ISO-10303-21;
HEADER;
FILE_DESCRIPTION(('STEP AP242'),
    '1');
FILE_NAME('6_WRIST3',
    '2026-06-28T17:45:31',
    ('vano888888@gmail.com'),
    (''),
    'C3D Converter',
    'C3D Toolkit',
    '');
/**/
FILE_SCHEMA(('AP242_MANAGED_MODEL_BASED_3D_ENGINEERING_MIM_LF { 1 0 10303 442 1 1 4 }'));
ENDSEC;

DATA;
#1=PRODUCT_DEFINITION('','UNSPECIFIED',#31,#34);
#2=SHAPE_DEFINITION_REPRESENTATION(#29,#3);
#3=SHAPE_REPRESENTATION('NONE',(#4),#8);
#4=AXIS2_PLACEMENT_3D('',#5,#6,#7);
#5=CARTESIAN_POINT('',(0.,0.,0.));
#6=DIRECTION('',(0.,0.,1.));
#7=DIRECTION('',(1.,0.,0.));
#8=(GEOMETRIC_REPRESENTATION_CONTEXT(3)GLOBAL_UNCERTAINTY_ASSIGNED_CONTEXT((#10))
GLOBAL_UNIT_ASSIGNED_CONTEXT((#9,#11,#12))REPRESENTATION_CONTEXT('NONE','NONE'));
#9=(LENGTH_UNIT()NAMED_UNIT(*)SI_UNIT(.MILLI.,.METRE.));
#10=UNCERTAINTY_MEASURE_WITH_UNIT(LENGTH_MEASURE(1.E-5),#9,'NONE','NONE');
#11=(NAMED_UNIT(*)PLANE_ANGLE_UNIT()SI_UNIT($,.RADIAN.));
#12=(NAMED_UNIT(*)SI_UNIT($,.STERADIAN.)SOLID_ANGLE_UNIT());
#13=MANIFOLD_SOLID_BREP('',#14);
#14=CLOSED_SHELL('',(#51,#60,#69,#78,#87,#96,#105,#114,#123,#132,#141,#150,#159,
#168,#177,#186,#195,#204,#213,#222,#231,#240,#249,#258,#267,#276));
#15=COLOUR_RGB('',0.56078431372549,0.56078431372549,0.56078431372549);
#16=FILL_AREA_STYLE_COLOUR('',#15);
#17=FILL_AREA_STYLE($,(#16));
#18=SURFACE_STYLE_FILL_AREA(#17);
#19=SURFACE_SIDE_STYLE('',(#18));
#20=SURFACE_STYLE_USAGE(.BOTH.,#19);
#21=PRESENTATION_STYLE_ASSIGNMENT((#20));
#22=MECHANICAL_DESIGN_GEOMETRIC_PRESENTATION_REPRESENTATION('NONE',(#23,#59,#68,
#77,#86,#95,#104,#113,#122,#131,#140,#149,#158,#167,#176,#185,#194,#203,#212,#221,
#230,#239,#248,#257,#266,#275,#284),#8);
#23=STYLED_ITEM('',(#21),#13);
#24=ADVANCED_BREP_SHAPE_REPRESENTATION('NONE',(#13),#8);
#25=SHAPE_REPRESENTATION_RELATIONSHIP('','',#3,#24);
#26=GEOMETRIC_CURVE_SET('',(#285));
#27=GEOMETRICALLY_BOUNDED_WIREFRAME_SHAPE_REPRESENTATION('NONE',(#26),#8);
#28=SHAPE_REPRESENTATION_RELATIONSHIP('','',#3,#27);
#29=PRODUCT_DEFINITION_SHAPE('NONE','NONE',#1);
#30=MECHANICAL_CONTEXT('NONE',#35,'mechanical');
#31=PRODUCT_DEFINITION_FORMATION_WITH_SPECIFIED_SOURCE('ANY','UNSPECIFIED',#32,.NOT_KNOWN.);
#32=PRODUCT('6_WRIST3','6_WRIST3','NONE',(#30));
#33=PRODUCT_RELATED_PRODUCT_CATEGORY('detail','',(#32));
#34=DESIGN_CONTEXT('detailed design',#35,'design');
#35=APPLICATION_CONTEXT('configuration controlled 3d designs of mechanical parts and assemblies');
#36=APPLICATION_PROTOCOL_DEFINITION('international standard','config_control_design',
1994,#35);
#37=CC_DESIGN_DATE_AND_TIME_ASSIGNMENT(#38,#42,(#1));
#38=DATE_AND_TIME(#39,#40);
#39=CALENDAR_DATE(0,1,1);
#40=LOCAL_TIME(0,0,0.,#41);
#41=COORDINATED_UNIVERSAL_TIME_OFFSET(0,0,.AHEAD.);
#42=DATE_TIME_ROLE('creation_date');
#43=CC_DESIGN_APPROVAL(#44,(#1));
#44=APPROVAL(#45,'UNSPECIFIED');
#45=APPROVAL_STATUS('not_yet_approved');
#46=APPROVAL_DATE_TIME(#47,#44);
#47=DATE_AND_TIME(#48,#49);
#48=CALENDAR_DATE(0,1,1);
#49=LOCAL_TIME(0,0,0.,#50);
#50=COORDINATED_UNIVERSAL_TIME_OFFSET(0,0,.AHEAD.);
#51=ADVANCED_FACE('',(#286,#288),#290,.T.);
#52=COLOUR_RGB('',0.56078431372549,0.56078431372549,0.56078431372549);
#53=FILL_AREA_STYLE_COLOUR('',#52);
#54=FILL_AREA_STYLE($,(#53));
#55=SURFACE_STYLE_FILL_AREA(#54);
#56=SURFACE_SIDE_STYLE('',(#55));
#57=SURFACE_STYLE_USAGE(.BOTH.,#56);
#58=PRESENTATION_STYLE_ASSIGNMENT((#57));
#59=STYLED_ITEM('',(#58),#51);
#60=ADVANCED_FACE('',(#295),#297,.T.);
#61=COLOUR_RGB('',0.56078431372549,0.56078431372549,0.56078431372549);
#62=FILL_AREA_STYLE_COLOUR('',#61);
#63=FILL_AREA_STYLE($,(#62));
#64=SURFACE_STYLE_FILL_AREA(#63);
#65=SURFACE_SIDE_STYLE('',(#64));
#66=SURFACE_STYLE_USAGE(.BOTH.,#65);
#67=PRESENTATION_STYLE_ASSIGNMENT((#66));
#68=STYLED_ITEM('',(#67),#60);
#69=ADVANCED_FACE('',(#302,#304),#306,.T.);
#70=COLOUR_RGB('',0.56078431372549,0.56078431372549,0.56078431372549);
#71=FILL_AREA_STYLE_COLOUR('',#70);
#72=FILL_AREA_STYLE($,(#71));
#73=SURFACE_STYLE_FILL_AREA(#72);
#74=SURFACE_SIDE_STYLE('',(#73));
#75=SURFACE_STYLE_USAGE(.BOTH.,#74);
#76=PRESENTATION_STYLE_ASSIGNMENT((#75));
#77=STYLED_ITEM('',(#76),#69);
#78=ADVANCED_FACE('',(#311,#313),#315,.F.);
#79=COLOUR_RGB('',0.56078431372549,0.56078431372549,0.56078431372549);
#80=FILL_AREA_STYLE_COLOUR('',#79);
#81=FILL_AREA_STYLE($,(#80));
#82=SURFACE_STYLE_FILL_AREA(#81);
#83=SURFACE_SIDE_STYLE('',(#82));
#84=SURFACE_STYLE_USAGE(.BOTH.,#83);
#85=PRESENTATION_STYLE_ASSIGNMENT((#84));
#86=STYLED_ITEM('',(#85),#78);
#87=ADVANCED_FACE('',(#320,#322),#324,.F.);
#88=COLOUR_RGB('',0.56078431372549,0.56078431372549,0.56078431372549);
#89=FILL_AREA_STYLE_COLOUR('',#88);
#90=FILL_AREA_STYLE($,(#89));
#91=SURFACE_STYLE_FILL_AREA(#90);
#92=SURFACE_SIDE_STYLE('',(#91));
#93=SURFACE_STYLE_USAGE(.BOTH.,#92);
#94=PRESENTATION_STYLE_ASSIGNMENT((#93));
#95=STYLED_ITEM('',(#94),#87);
#96=ADVANCED_FACE('',(#329,#331),#333,.F.);
#97=COLOUR_RGB('',0.56078431372549,0.56078431372549,0.56078431372549);
#98=FILL_AREA_STYLE_COLOUR('',#97);
#99=FILL_AREA_STYLE($,(#98));
#100=SURFACE_STYLE_FILL_AREA(#99);
#101=SURFACE_SIDE_STYLE('',(#100));
#102=SURFACE_STYLE_USAGE(.BOTH.,#101);
#103=PRESENTATION_STYLE_ASSIGNMENT((#102));
#104=STYLED_ITEM('',(#103),#96);
#105=ADVANCED_FACE('',(#338,#340),#342,.F.);
#106=COLOUR_RGB('',0.56078431372549,0.56078431372549,0.56078431372549);
#107=FILL_AREA_STYLE_COLOUR('',#106);
#108=FILL_AREA_STYLE($,(#107));
#109=SURFACE_STYLE_FILL_AREA(#108);
#110=SURFACE_SIDE_STYLE('',(#109));
#111=SURFACE_STYLE_USAGE(.BOTH.,#110);
#112=PRESENTATION_STYLE_ASSIGNMENT((#111));
#113=STYLED_ITEM('',(#112),#105);
#114=ADVANCED_FACE('',(#347,#349),#351,.F.);
#115=COLOUR_RGB('',0.56078431372549,0.56078431372549,0.56078431372549);
#116=FILL_AREA_STYLE_COLOUR('',#115);
#117=FILL_AREA_STYLE($,(#116));
#118=SURFACE_STYLE_FILL_AREA(#117);
#119=SURFACE_SIDE_STYLE('',(#118));
#120=SURFACE_STYLE_USAGE(.BOTH.,#119);
#121=PRESENTATION_STYLE_ASSIGNMENT((#120));
#122=STYLED_ITEM('',(#121),#114);
#123=ADVANCED_FACE('',(#356,#358),#360,.F.);
#124=COLOUR_RGB('',0.56078431372549,0.56078431372549,0.56078431372549);
#125=FILL_AREA_STYLE_COLOUR('',#124);
#126=FILL_AREA_STYLE($,(#125));
#127=SURFACE_STYLE_FILL_AREA(#126);
#128=SURFACE_SIDE_STYLE('',(#127));
#129=SURFACE_STYLE_USAGE(.BOTH.,#128);
#130=PRESENTATION_STYLE_ASSIGNMENT((#129));
#131=STYLED_ITEM('',(#130),#123);
#132=ADVANCED_FACE('',(#365,#367),#369,.F.);
#133=COLOUR_RGB('',0.56078431372549,0.56078431372549,0.56078431372549);
#134=FILL_AREA_STYLE_COLOUR('',#133);
#135=FILL_AREA_STYLE($,(#134));
#136=SURFACE_STYLE_FILL_AREA(#135);
#137=SURFACE_SIDE_STYLE('',(#136));
#138=SURFACE_STYLE_USAGE(.BOTH.,#137);
#139=PRESENTATION_STYLE_ASSIGNMENT((#138));
#140=STYLED_ITEM('',(#139),#132);
#141=ADVANCED_FACE('',(#374,#376),#378,.F.);
#142=COLOUR_RGB('',0.56078431372549,0.56078431372549,0.56078431372549);
#143=FILL_AREA_STYLE_COLOUR('',#142);
#144=FILL_AREA_STYLE($,(#143));
#145=SURFACE_STYLE_FILL_AREA(#144);
#146=SURFACE_SIDE_STYLE('',(#145));
#147=SURFACE_STYLE_USAGE(.BOTH.,#146);
#148=PRESENTATION_STYLE_ASSIGNMENT((#147));
#149=STYLED_ITEM('',(#148),#141);
#150=ADVANCED_FACE('',(#383,#385),#387,.F.);
#151=COLOUR_RGB('',0.56078431372549,0.56078431372549,0.56078431372549);
#152=FILL_AREA_STYLE_COLOUR('',#151);
#153=FILL_AREA_STYLE($,(#152));
#154=SURFACE_STYLE_FILL_AREA(#153);
#155=SURFACE_SIDE_STYLE('',(#154));
#156=SURFACE_STYLE_USAGE(.BOTH.,#155);
#157=PRESENTATION_STYLE_ASSIGNMENT((#156));
#158=STYLED_ITEM('',(#157),#150);
#159=ADVANCED_FACE('',(#392,#394),#396,.F.);
#160=COLOUR_RGB('',0.56078431372549,0.56078431372549,0.56078431372549);
#161=FILL_AREA_STYLE_COLOUR('',#160);
#162=FILL_AREA_STYLE($,(#161));
#163=SURFACE_STYLE_FILL_AREA(#162);
#164=SURFACE_SIDE_STYLE('',(#163));
#165=SURFACE_STYLE_USAGE(.BOTH.,#164);
#166=PRESENTATION_STYLE_ASSIGNMENT((#165));
#167=STYLED_ITEM('',(#166),#159);
#168=ADVANCED_FACE('',(#401),#403,.T.);
#169=COLOUR_RGB('',0.56078431372549,0.56078431372549,0.56078431372549);
#170=FILL_AREA_STYLE_COLOUR('',#169);
#171=FILL_AREA_STYLE($,(#170));
#172=SURFACE_STYLE_FILL_AREA(#171);
#173=SURFACE_SIDE_STYLE('',(#172));
#174=SURFACE_STYLE_USAGE(.BOTH.,#173);
#175=PRESENTATION_STYLE_ASSIGNMENT((#174));
#176=STYLED_ITEM('',(#175),#168);
#177=ADVANCED_FACE('',(#408),#410,.T.);
#178=COLOUR_RGB('',0.56078431372549,0.56078431372549,0.56078431372549);
#179=FILL_AREA_STYLE_COLOUR('',#178);
#180=FILL_AREA_STYLE($,(#179));
#181=SURFACE_STYLE_FILL_AREA(#180);
#182=SURFACE_SIDE_STYLE('',(#181));
#183=SURFACE_STYLE_USAGE(.BOTH.,#182);
#184=PRESENTATION_STYLE_ASSIGNMENT((#183));
#185=STYLED_ITEM('',(#184),#177);
#186=ADVANCED_FACE('',(#415),#417,.T.);
#187=COLOUR_RGB('',0.56078431372549,0.56078431372549,0.56078431372549);
#188=FILL_AREA_STYLE_COLOUR('',#187);
#189=FILL_AREA_STYLE($,(#188));
#190=SURFACE_STYLE_FILL_AREA(#189);
#191=SURFACE_SIDE_STYLE('',(#190));
#192=SURFACE_STYLE_USAGE(.BOTH.,#191);
#193=PRESENTATION_STYLE_ASSIGNMENT((#192));
#194=STYLED_ITEM('',(#193),#186);
#195=ADVANCED_FACE('',(#422,#424,#426,#428,#430,#432,#434,#436,#438,#440),#442,.F.);
#196=COLOUR_RGB('',0.56078431372549,0.56078431372549,0.56078431372549);
#197=FILL_AREA_STYLE_COLOUR('',#196);
#198=FILL_AREA_STYLE($,(#197));
#199=SURFACE_STYLE_FILL_AREA(#198);
#200=SURFACE_SIDE_STYLE('',(#199));
#201=SURFACE_STYLE_USAGE(.BOTH.,#200);
#202=PRESENTATION_STYLE_ASSIGNMENT((#201));
#203=STYLED_ITEM('',(#202),#195);
#204=ADVANCED_FACE('',(#447),#449,.F.);
#205=COLOUR_RGB('',0.56078431372549,0.56078431372549,0.56078431372549);
#206=FILL_AREA_STYLE_COLOUR('',#205);
#207=FILL_AREA_STYLE($,(#206));
#208=SURFACE_STYLE_FILL_AREA(#207);
#209=SURFACE_SIDE_STYLE('',(#208));
#210=SURFACE_STYLE_USAGE(.BOTH.,#209);
#211=PRESENTATION_STYLE_ASSIGNMENT((#210));
#212=STYLED_ITEM('',(#211),#204);
#213=ADVANCED_FACE('',(#454),#456,.F.);
#214=COLOUR_RGB('',0.56078431372549,0.56078431372549,0.56078431372549);
#215=FILL_AREA_STYLE_COLOUR('',#214);
#216=FILL_AREA_STYLE($,(#215));
#217=SURFACE_STYLE_FILL_AREA(#216);
#218=SURFACE_SIDE_STYLE('',(#217));
#219=SURFACE_STYLE_USAGE(.BOTH.,#218);
#220=PRESENTATION_STYLE_ASSIGNMENT((#219));
#221=STYLED_ITEM('',(#220),#213);
#222=ADVANCED_FACE('',(#461),#463,.F.);
#223=COLOUR_RGB('',0.56078431372549,0.56078431372549,0.56078431372549);
#224=FILL_AREA_STYLE_COLOUR('',#223);
#225=FILL_AREA_STYLE($,(#224));
#226=SURFACE_STYLE_FILL_AREA(#225);
#227=SURFACE_SIDE_STYLE('',(#226));
#228=SURFACE_STYLE_USAGE(.BOTH.,#227);
#229=PRESENTATION_STYLE_ASSIGNMENT((#228));
#230=STYLED_ITEM('',(#229),#222);
#231=ADVANCED_FACE('',(#468),#470,.F.);
#232=COLOUR_RGB('',0.56078431372549,0.56078431372549,0.56078431372549);
#233=FILL_AREA_STYLE_COLOUR('',#232);
#234=FILL_AREA_STYLE($,(#233));
#235=SURFACE_STYLE_FILL_AREA(#234);
#236=SURFACE_SIDE_STYLE('',(#235));
#237=SURFACE_STYLE_USAGE(.BOTH.,#236);
#238=PRESENTATION_STYLE_ASSIGNMENT((#237));
#239=STYLED_ITEM('',(#238),#231);
#240=ADVANCED_FACE('',(#475),#477,.F.);
#241=COLOUR_RGB('',0.56078431372549,0.56078431372549,0.56078431372549);
#242=FILL_AREA_STYLE_COLOUR('',#241);
#243=FILL_AREA_STYLE($,(#242));
#244=SURFACE_STYLE_FILL_AREA(#243);
#245=SURFACE_SIDE_STYLE('',(#244));
#246=SURFACE_STYLE_USAGE(.BOTH.,#245);
#247=PRESENTATION_STYLE_ASSIGNMENT((#246));
#248=STYLED_ITEM('',(#247),#240);
#249=ADVANCED_FACE('',(#482),#484,.F.);
#250=COLOUR_RGB('',0.56078431372549,0.56078431372549,0.56078431372549);
#251=FILL_AREA_STYLE_COLOUR('',#250);
#252=FILL_AREA_STYLE($,(#251));
#253=SURFACE_STYLE_FILL_AREA(#252);
#254=SURFACE_SIDE_STYLE('',(#253));
#255=SURFACE_STYLE_USAGE(.BOTH.,#254);
#256=PRESENTATION_STYLE_ASSIGNMENT((#255));
#257=STYLED_ITEM('',(#256),#249);
#258=ADVANCED_FACE('',(#489),#491,.F.);
#259=COLOUR_RGB('',0.56078431372549,0.56078431372549,0.56078431372549);
#260=FILL_AREA_STYLE_COLOUR('',#259);
#261=FILL_AREA_STYLE($,(#260));
#262=SURFACE_STYLE_FILL_AREA(#261);
#263=SURFACE_SIDE_STYLE('',(#262));
#264=SURFACE_STYLE_USAGE(.BOTH.,#263);
#265=PRESENTATION_STYLE_ASSIGNMENT((#264));
#266=STYLED_ITEM('',(#265),#258);
#267=ADVANCED_FACE('',(#496),#498,.F.);
#268=COLOUR_RGB('',0.56078431372549,0.56078431372549,0.56078431372549);
#269=FILL_AREA_STYLE_COLOUR('',#268);
#270=FILL_AREA_STYLE($,(#269));
#271=SURFACE_STYLE_FILL_AREA(#270);
#272=SURFACE_SIDE_STYLE('',(#271));
#273=SURFACE_STYLE_USAGE(.BOTH.,#272);
#274=PRESENTATION_STYLE_ASSIGNMENT((#273));
#275=STYLED_ITEM('',(#274),#267);
#276=ADVANCED_FACE('',(#503),#505,.F.);
#277=COLOUR_RGB('',0.56078431372549,0.56078431372549,0.56078431372549);
#278=FILL_AREA_STYLE_COLOUR('',#277);
#279=FILL_AREA_STYLE($,(#278));
#280=SURFACE_STYLE_FILL_AREA(#279);
#281=SURFACE_SIDE_STYLE('',(#280));
#282=SURFACE_STYLE_USAGE(.BOTH.,#281);
#283=PRESENTATION_STYLE_ASSIGNMENT((#282));
#284=STYLED_ITEM('',(#283),#276);
#285=CARTESIAN_POINT('',(0.,0.,0.));
#286=FACE_BOUND('',#287,.T.);
#287=EDGE_LOOP('',(#510,#511,#512,#513,#514));
#288=FACE_OUTER_BOUND('',#289,.T.);
#289=EDGE_LOOP('',(#515));
#290=CYLINDRICAL_SURFACE('',#291,19.9999396310999);
#291=AXIS2_PLACEMENT_3D('',#292,#293,#294);
#292=CARTESIAN_POINT('',(0.,1.38777877573889E-17,-13.2));
#293=DIRECTION('',(0.,0.,-1.));
#294=DIRECTION('',(-1.,0.,0.));
#295=FACE_BOUND('',#296,.T.);
#296=EDGE_LOOP('',(#516,#517,#518,#519));
#297=CONICAL_SURFACE('',#298,19.7499698451738,0.785398162499998);
#298=AXIS2_PLACEMENT_3D('',#299,#300,#301);
#299=CARTESIAN_POINT('',(0.,-7.35522753814165E-16,-3.25003021362502));
#300=DIRECTION('',(0.,0.,-1.));
#301=DIRECTION('',(-1.,0.,0.));
#302=FACE_OUTER_BOUND('',#303,.T.);
#303=EDGE_LOOP('',(#520));
#304=FACE_BOUND('',#305,.T.);
#305=EDGE_LOOP('',(#521,#522,#523));
#306=CONICAL_SURFACE('',#307,19.7499396314368,0.785398162500142);
#307=AXIS2_PLACEMENT_3D('',#308,#309,#310);
#308=CARTESIAN_POINT('',(6.41072140939743E-16,-1.00106352905097E-15,-0.249999999887905));
#309=DIRECTION('',(-2.5642885625987E-15,1.06216310046662E-15,-1.));
#310=DIRECTION('',(-1.,-2.72369269014091E-30,2.5642885625987E-15));
#311=FACE_OUTER_BOUND('',#312,.T.);
#312=EDGE_LOOP('',(#524));
#313=FACE_OUTER_BOUND('',#314,.T.);
#314=EDGE_LOOP('',(#525));
#315=CYLINDRICAL_SURFACE('',#316,2.49999999999995);
#316=AXIS2_PLACEMENT_3D('',#317,#318,#319);
#317=CARTESIAN_POINT('',(11.13693180369,11.1369318036882,0.));
#318=DIRECTION('',(0.,0.,-1.));
#319=DIRECTION('',(-1.,0.,0.));
#320=FACE_OUTER_BOUND('',#321,.T.);
#321=EDGE_LOOP('',(#526));
#322=FACE_OUTER_BOUND('',#323,.T.);
#323=EDGE_LOOP('',(#527));
#324=CYLINDRICAL_SURFACE('',#325,2.49999999999995);
#325=AXIS2_PLACEMENT_3D('',#326,#327,#328);
#326=CARTESIAN_POINT('',(-11.13693180369,11.1369318036882,0.));
#327=DIRECTION('',(0.,0.,-1.));
#328=DIRECTION('',(-1.,0.,0.));
#329=FACE_OUTER_BOUND('',#330,.T.);
#330=EDGE_LOOP('',(#528));
#331=FACE_OUTER_BOUND('',#332,.T.);
#332=EDGE_LOOP('',(#529));
#333=CYLINDRICAL_SURFACE('',#334,2.49999999999995);
#334=AXIS2_PLACEMENT_3D('',#335,#336,#337);
#335=CARTESIAN_POINT('',(15.75,-3.03437830418367E-14,0.));
#336=DIRECTION('',(0.,0.,-1.));
#337=DIRECTION('',(-1.,0.,0.));
#338=FACE_OUTER_BOUND('',#339,.T.);
#339=EDGE_LOOP('',(#530));
#340=FACE_OUTER_BOUND('',#341,.T.);
#341=EDGE_LOOP('',(#531));
#342=CYLINDRICAL_SURFACE('',#343,2.49999999999995);
#343=AXIS2_PLACEMENT_3D('',#344,#345,#346);
#344=CARTESIAN_POINT('',(11.13693180369,-11.1369318036881,0.));
#345=DIRECTION('',(0.,0.,-1.));
#346=DIRECTION('',(-1.,0.,0.));
#347=FACE_OUTER_BOUND('',#348,.T.);
#348=EDGE_LOOP('',(#532));
#349=FACE_OUTER_BOUND('',#350,.T.);
#350=EDGE_LOOP('',(#533));
#351=CYLINDRICAL_SURFACE('',#352,2.49999999999995);
#352=AXIS2_PLACEMENT_3D('',#353,#354,#355);
#353=CARTESIAN_POINT('',(0.,-15.75,0.));
#354=DIRECTION('',(0.,0.,-1.));
#355=DIRECTION('',(-1.,0.,0.));
#356=FACE_OUTER_BOUND('',#357,.T.);
#357=EDGE_LOOP('',(#534));
#358=FACE_OUTER_BOUND('',#359,.T.);
#359=EDGE_LOOP('',(#535));
#360=CYLINDRICAL_SURFACE('',#361,2.49999999999995);
#361=AXIS2_PLACEMENT_3D('',#362,#363,#364);
#362=CARTESIAN_POINT('',(-11.13693180369,-11.1369318036881,0.));
#363=DIRECTION('',(0.,0.,-1.));
#364=DIRECTION('',(-1.,0.,0.));
#365=FACE_OUTER_BOUND('',#366,.T.);
#366=EDGE_LOOP('',(#536));
#367=FACE_BOUND('',#368,.T.);
#368=EDGE_LOOP('',(#537,#538,#539));
#369=CONICAL_SURFACE('',#370,10.2500000001119,0.785398162500003);
#370=AXIS2_PLACEMENT_3D('',#371,#372,#373);
#371=CARTESIAN_POINT('',(0.,1.31838984174239E-16,-0.250000000336674));
#372=DIRECTION('',(0.,0.,1.));
#373=DIRECTION('',(-1.,1.22464679914735E-16,0.));
#374=FACE_OUTER_BOUND('',#375,.T.);
#375=EDGE_LOOP('',(#540));
#376=FACE_OUTER_BOUND('',#377,.T.);
#377=EDGE_LOOP('',(#541));
#378=CYLINDRICAL_SURFACE('',#379,2.49999999999995);
#379=AXIS2_PLACEMENT_3D('',#380,#381,#382);
#380=CARTESIAN_POINT('',(0.,15.75,0.));
#381=DIRECTION('',(0.,0.,-1.));
#382=DIRECTION('',(-1.,0.,0.));
#383=FACE_OUTER_BOUND('',#384,.T.);
#384=EDGE_LOOP('',(#542));
#385=FACE_OUTER_BOUND('',#386,.T.);
#386=EDGE_LOOP('',(#543));
#387=CYLINDRICAL_SURFACE('',#388,2.49999999999995);
#388=AXIS2_PLACEMENT_3D('',#389,#390,#391);
#389=CARTESIAN_POINT('',(-15.75,1.17232612506009E-14,0.));
#390=DIRECTION('',(0.,0.,-1.));
#391=DIRECTION('',(-1.,0.,0.));
#392=FACE_BOUND('',#393,.T.);
#393=EDGE_LOOP('',(#544,#545,#546));
#394=FACE_BOUND('',#395,.T.);
#395=EDGE_LOOP('',(#547,#548));
#396=CYLINDRICAL_SURFACE('',#397,10.);
#397=AXIS2_PLACEMENT_3D('',#398,#399,#400);
#398=CARTESIAN_POINT('',(0.,1.38777877573889E-17,-13.2));
#399=DIRECTION('',(0.,0.,-1.));
#400=DIRECTION('',(-1.,0.,0.));
#401=FACE_BOUND('',#402,.T.);
#402=EDGE_LOOP('',(#549,#550,#551,#552));
#403=PLANE('',#404);
#404=AXIS2_PLACEMENT_3D('',#405,#406,#407);
#405=CARTESIAN_POINT('',(-19.5,0.,2.79999999999995));
#406=DIRECTION('',(-0.707106781186547,-0.707106781186548,0.));
#407=DIRECTION('',(0.707106781186548,-0.707106781186547,0.));
#408=FACE_BOUND('',#409,.T.);
#409=EDGE_LOOP('',(#553,#554,#555,#556));
#410=PLANE('',#411);
#411=AXIS2_PLACEMENT_3D('',#412,#413,#414);
#412=CARTESIAN_POINT('',(-22.5,-3.00000000000001,2.79999999999995));
#413=DIRECTION('',(-0.707106781186548,0.707106781186548,0.));
#414=DIRECTION('',(-0.707106781186548,-0.707106781186548,0.));
#415=FACE_BOUND('',#416,.T.);
#416=EDGE_LOOP('',(#557));
#417=PLANE('',#418);
#418=AXIS2_PLACEMENT_3D('',#419,#420,#421);
#419=CARTESIAN_POINT('',(0.,0.,-13.5000000000001));
#420=DIRECTION('',(0.,0.,-1.));
#421=DIRECTION('',(-1.,0.,0.));
#422=FACE_BOUND('',#423,.T.);
#423=EDGE_LOOP('',(#558));
#424=FACE_BOUND('',#425,.T.);
#425=EDGE_LOOP('',(#559));
#426=FACE_BOUND('',#427,.T.);
#427=EDGE_LOOP('',(#560));
#428=FACE_BOUND('',#429,.T.);
#429=EDGE_LOOP('',(#561));
#430=FACE_BOUND('',#431,.T.);
#431=EDGE_LOOP('',(#562));
#432=FACE_BOUND('',#433,.T.);
#433=EDGE_LOOP('',(#563));
#434=FACE_BOUND('',#435,.T.);
#435=EDGE_LOOP('',(#564));
#436=FACE_BOUND('',#437,.T.);
#437=EDGE_LOOP('',(#565));
#438=FACE_BOUND('',#439,.T.);
#439=EDGE_LOOP('',(#566));
#440=FACE_BOUND('',#441,.T.);
#441=EDGE_LOOP('',(#567));
#442=PLANE('',#443);
#443=AXIS2_PLACEMENT_3D('',#444,#445,#446);
#444=CARTESIAN_POINT('',(9.23879532511,-3.82683432365089,0.));
#445=DIRECTION('',(0.,0.,-1.));
#446=DIRECTION('',(-1.,0.,0.));
#447=FACE_BOUND('',#448,.T.);
#448=EDGE_LOOP('',(#568));
#449=PLANE('',#450);
#450=AXIS2_PLACEMENT_3D('',#451,#452,#453);
#451=CARTESIAN_POINT('',(11.13693180369,11.1369318036882,-7.00000000000011));
#452=DIRECTION('',(0.,0.,-1.));
#453=DIRECTION('',(-1.,0.,0.));
#454=FACE_BOUND('',#455,.T.);
#455=EDGE_LOOP('',(#569));
#456=PLANE('',#457);
#457=AXIS2_PLACEMENT_3D('',#458,#459,#460);
#458=CARTESIAN_POINT('',(-11.13693180369,11.1369318036882,-7.00000000000011));
#459=DIRECTION('',(0.,0.,-1.));
#460=DIRECTION('',(-1.,0.,0.));
#461=FACE_BOUND('',#462,.T.);
#462=EDGE_LOOP('',(#570));
#463=PLANE('',#464);
#464=AXIS2_PLACEMENT_3D('',#465,#466,#467);
#465=CARTESIAN_POINT('',(15.75,0.,-7.00000000000011));
#466=DIRECTION('',(0.,0.,-1.));
#467=DIRECTION('',(-1.,0.,0.));
#468=FACE_BOUND('',#469,.T.);
#469=EDGE_LOOP('',(#571));
#470=PLANE('',#471);
#471=AXIS2_PLACEMENT_3D('',#472,#473,#474);
#472=CARTESIAN_POINT('',(11.13693180369,-11.1369318036881,-7.00000000000011));
#473=DIRECTION('',(0.,0.,-1.));
#474=DIRECTION('',(-1.,0.,0.));
#475=FACE_BOUND('',#476,.T.);
#476=EDGE_LOOP('',(#572));
#477=PLANE('',#478);
#478=AXIS2_PLACEMENT_3D('',#479,#480,#481);
#479=CARTESIAN_POINT('',(0.,-15.75,-7.00000000000011));
#480=DIRECTION('',(0.,0.,-1.));
#481=DIRECTION('',(-1.,0.,0.));
#482=FACE_BOUND('',#483,.T.);
#483=EDGE_LOOP('',(#573));
#484=PLANE('',#485);
#485=AXIS2_PLACEMENT_3D('',#486,#487,#488);
#486=CARTESIAN_POINT('',(-11.13693180369,-11.1369318036881,-7.00000000000011));
#487=DIRECTION('',(0.,0.,-1.));
#488=DIRECTION('',(-1.,0.,0.));
#489=FACE_BOUND('',#490,.T.);
#490=EDGE_LOOP('',(#574));
#491=PLANE('',#492);
#492=AXIS2_PLACEMENT_3D('',#493,#494,#495);
#493=CARTESIAN_POINT('',(0.,15.75,-7.00000000000011));
#494=DIRECTION('',(0.,0.,-1.));
#495=DIRECTION('',(-1.,0.,0.));
#496=FACE_BOUND('',#497,.T.);
#497=EDGE_LOOP('',(#575));
#498=PLANE('',#499);
#499=AXIS2_PLACEMENT_3D('',#500,#501,#502);
#500=CARTESIAN_POINT('',(-15.75,0.,-5.00000000000011));
#501=DIRECTION('',(0.,0.,-1.));
#502=DIRECTION('',(-1.,0.,0.));
#503=FACE_BOUND('',#504,.T.);
#504=EDGE_LOOP('',(#576,#577));
#505=PLANE('',#506);
#506=AXIS2_PLACEMENT_3D('',#507,#508,#509);
#507=CARTESIAN_POINT('',(4.61939766256,-1.91341716182544,-6.00000000000011));
#508=DIRECTION('',(0.,0.,-1.));
#509=DIRECTION('',(-1.,0.,0.));
#510=ORIENTED_EDGE('',*,*,#578,.T.);
#511=ORIENTED_EDGE('',*,*,#579,.T.);
#512=ORIENTED_EDGE('',*,*,#580,.T.);
#513=ORIENTED_EDGE('',*,*,#581,.T.);
#514=ORIENTED_EDGE('',*,*,#582,.T.);
#515=ORIENTED_EDGE('',*,*,#583,.T.);
#516=ORIENTED_EDGE('',*,*,#584,.F.);
#517=ORIENTED_EDGE('',*,*,#581,.F.);
#518=ORIENTED_EDGE('',*,*,#580,.F.);
#519=ORIENTED_EDGE('',*,*,#585,.T.);
#520=ORIENTED_EDGE('',*,*,#586,.T.);
#521=ORIENTED_EDGE('',*,*,#587,.F.);
#522=ORIENTED_EDGE('',*,*,#578,.F.);
#523=ORIENTED_EDGE('',*,*,#588,.F.);
#524=ORIENTED_EDGE('',*,*,#589,.T.);
#525=ORIENTED_EDGE('',*,*,#590,.F.);
#526=ORIENTED_EDGE('',*,*,#591,.T.);
#527=ORIENTED_EDGE('',*,*,#592,.F.);
#528=ORIENTED_EDGE('',*,*,#593,.T.);
#529=ORIENTED_EDGE('',*,*,#594,.F.);
#530=ORIENTED_EDGE('',*,*,#595,.T.);
#531=ORIENTED_EDGE('',*,*,#596,.F.);
#532=ORIENTED_EDGE('',*,*,#597,.T.);
#533=ORIENTED_EDGE('',*,*,#598,.F.);
#534=ORIENTED_EDGE('',*,*,#599,.T.);
#535=ORIENTED_EDGE('',*,*,#600,.F.);
#536=ORIENTED_EDGE('',*,*,#601,.T.);
#537=ORIENTED_EDGE('',*,*,#602,.F.);
#538=ORIENTED_EDGE('',*,*,#603,.F.);
#539=ORIENTED_EDGE('',*,*,#604,.F.);
#540=ORIENTED_EDGE('',*,*,#605,.T.);
#541=ORIENTED_EDGE('',*,*,#606,.F.);
#542=ORIENTED_EDGE('',*,*,#607,.T.);
#543=ORIENTED_EDGE('',*,*,#608,.F.);
#544=ORIENTED_EDGE('',*,*,#604,.T.);
#545=ORIENTED_EDGE('',*,*,#603,.T.);
#546=ORIENTED_EDGE('',*,*,#602,.T.);
#547=ORIENTED_EDGE('',*,*,#609,.F.);
#548=ORIENTED_EDGE('',*,*,#610,.F.);
#549=ORIENTED_EDGE('',*,*,#611,.T.);
#550=ORIENTED_EDGE('',*,*,#588,.T.);
#551=ORIENTED_EDGE('',*,*,#582,.F.);
#552=ORIENTED_EDGE('',*,*,#584,.T.);
#553=ORIENTED_EDGE('',*,*,#611,.F.);
#554=ORIENTED_EDGE('',*,*,#585,.F.);
#555=ORIENTED_EDGE('',*,*,#579,.F.);
#556=ORIENTED_EDGE('',*,*,#587,.T.);
#557=ORIENTED_EDGE('',*,*,#583,.F.);
#558=ORIENTED_EDGE('',*,*,#586,.F.);
#559=ORIENTED_EDGE('',*,*,#589,.F.);
#560=ORIENTED_EDGE('',*,*,#591,.F.);
#561=ORIENTED_EDGE('',*,*,#593,.F.);
#562=ORIENTED_EDGE('',*,*,#595,.F.);
#563=ORIENTED_EDGE('',*,*,#597,.F.);
#564=ORIENTED_EDGE('',*,*,#599,.F.);
#565=ORIENTED_EDGE('',*,*,#601,.F.);
#566=ORIENTED_EDGE('',*,*,#605,.F.);
#567=ORIENTED_EDGE('',*,*,#607,.F.);
#568=ORIENTED_EDGE('',*,*,#590,.T.);
#569=ORIENTED_EDGE('',*,*,#592,.T.);
#570=ORIENTED_EDGE('',*,*,#594,.T.);
#571=ORIENTED_EDGE('',*,*,#596,.T.);
#572=ORIENTED_EDGE('',*,*,#598,.T.);
#573=ORIENTED_EDGE('',*,*,#600,.T.);
#574=ORIENTED_EDGE('',*,*,#606,.T.);
#575=ORIENTED_EDGE('',*,*,#608,.T.);
#576=ORIENTED_EDGE('',*,*,#609,.T.);
#577=ORIENTED_EDGE('',*,*,#610,.T.);
#578=EDGE_CURVE('',#612,#613,#614,.T.);
#579=EDGE_CURVE('',#613,#615,#616,.T.);
#580=EDGE_CURVE('',#615,#617,#618,.T.);
#581=EDGE_CURVE('',#617,#619,#620,.T.);
#582=EDGE_CURVE('',#619,#612,#621,.T.);
#583=EDGE_CURVE('',#622,#622,#623,.T.);
#584=EDGE_CURVE('',#619,#624,#625,.T.);
#585=EDGE_CURVE('',#615,#624,#626,.T.);
#586=EDGE_CURVE('',#627,#627,#628,.T.);
#587=EDGE_CURVE('',#613,#629,#630,.T.);
#588=EDGE_CURVE('',#629,#612,#631,.T.);
#589=EDGE_CURVE('',#632,#632,#633,.T.);
#590=EDGE_CURVE('',#634,#634,#635,.T.);
#591=EDGE_CURVE('',#636,#636,#637,.T.);
#592=EDGE_CURVE('',#638,#638,#639,.T.);
#593=EDGE_CURVE('',#640,#640,#641,.T.);
#594=EDGE_CURVE('',#642,#642,#643,.T.);
#595=EDGE_CURVE('',#644,#644,#645,.T.);
#596=EDGE_CURVE('',#646,#646,#647,.T.);
#597=EDGE_CURVE('',#648,#648,#649,.T.);
#598=EDGE_CURVE('',#650,#650,#651,.T.);
#599=EDGE_CURVE('',#652,#652,#653,.T.);
#600=EDGE_CURVE('',#654,#654,#655,.T.);
#601=EDGE_CURVE('',#656,#656,#657,.T.);
#602=EDGE_CURVE('',#658,#659,#660,.T.);
#603=EDGE_CURVE('',#661,#658,#662,.T.);
#604=EDGE_CURVE('',#659,#661,#663,.T.);
#605=EDGE_CURVE('',#664,#664,#665,.T.);
#606=EDGE_CURVE('',#666,#666,#667,.T.);
#607=EDGE_CURVE('',#668,#668,#669,.T.);
#608=EDGE_CURVE('',#670,#670,#671,.T.);
#609=EDGE_CURVE('',#672,#673,#674,.T.);
#610=EDGE_CURVE('',#673,#672,#675,.T.);
#611=EDGE_CURVE('',#624,#629,#676,.T.);
#612=VERTEX_POINT('',#677);
#613=VERTEX_POINT('',#678);
#614=CIRCLE('',#679,19.9999396310999);
#615=VERTEX_POINT('',#683);
#616=LINE('',#684,#685);
#617=VERTEX_POINT('',#687);
#618=CIRCLE('',#688,19.9999396310999);
#619=VERTEX_POINT('',#692);
#620=CIRCLE('',#693,19.9999396310999);
#621=LINE('',#697,#698);
#622=VERTEX_POINT('',#700);
#623=CIRCLE('',#701,19.9999396310999);
#624=VERTEX_POINT('',#705);
#625=B_SPLINE_CURVE_WITH_KNOTS('',3,
(#706,#707,#708,#709,#710,#711,#712,#713,#714,#715,#716,#717,#718,#719,#720,#721,
#722,#723,#724),
.UNSPECIFIED.,.F.,.F.,
(4,1,1,1,1,1,1,1,1,1,1,1,1,1,1,1,4),
(0.,0.0621426918017377,0.124436417086743,0.186860550446648,0.249425900540279,0.312051580753954,
0.374706584644527,0.437337734047652,0.499881948167131,0.562334438440764,0.624699977244215,
0.687041502564468,0.749412713883771,0.811844824993205,0.874421281363622,0.937132178373218,
1.),
.UNSPECIFIED.);
#626=B_SPLINE_CURVE_WITH_KNOTS('',3,
(#725,#726,#727,#728,#729,#730,#731,#732,#733,#734,#735,#736,#737,#738,#739,#740,
#741,#742,#743),
.UNSPECIFIED.,.F.,.F.,
(4,1,1,1,1,1,1,1,1,1,1,1,1,1,1,1,4),
(0.,0.0622079768438817,0.124539555988708,0.18697775006018,0.249531256577413,0.312133934275555,
0.374760498752775,0.437367599935166,0.499903905267963,0.56236554414676,0.624756433843946,
0.687127827153542,0.749523378323512,0.811968448695665,0.874530651638929,0.937201808108863,
1.),
.UNSPECIFIED.);
#627=VERTEX_POINT('',#744);
#628=CIRCLE('',#745,19.4999396315485);
#629=VERTEX_POINT('',#749);
#630=B_SPLINE_CURVE_WITH_KNOTS('',3,
(#750,#751,#752,#753,#754,#755,#756,#757,#758,#759,#760,#761,#762,#763,#764,#765,
#766,#767,#768),
.UNSPECIFIED.,.F.,.F.,
(4,1,1,1,1,1,1,1,1,1,1,1,1,1,1,1,4),
(0.,0.062142691755931,0.124436417014449,0.186860550364583,0.249425900466622,0.312051580696493,
0.374706584606989,0.437337734026888,0.499881948151753,0.5623344384188,0.624699977204428,
0.687041502503804,0.749412713806241,0.8118448249068,0.874421281287419,0.937132178324895,
1.),
.UNSPECIFIED.);
#631=B_SPLINE_CURVE_WITH_KNOTS('',3,
(#769,#770,#771,#772,#773,#774,#775,#776,#777,#778,#779,#780,#781,#782,#783,#784,
#785,#786,#787),
.UNSPECIFIED.,.F.,.F.,
(4,1,1,1,1,1,1,1,1,1,1,1,1,1,1,1,4),
(0.,0.062867821675499,0.125578718713178,0.188155175093878,0.250587286194368,0.312958497496663,
0.37530002279589,0.437665561581372,0.500118051848371,0.562662265973289,0.625293415393317,
0.687948419303974,0.750574099533971,0.813139449636068,0.875563582986134,0.937857308244431,
1.),
.UNSPECIFIED.);
#632=VERTEX_POINT('',#788);
#633=CIRCLE('',#789,2.49999999999995);
#634=VERTEX_POINT('',#793);
#635=CIRCLE('',#794,2.49999999999995);
#636=VERTEX_POINT('',#798);
#637=CIRCLE('',#799,2.49999999999995);
#638=VERTEX_POINT('',#803);
#639=CIRCLE('',#804,2.49999999999995);
#640=VERTEX_POINT('',#808);
#641=CIRCLE('',#809,2.49999999999995);
#642=VERTEX_POINT('',#813);
#643=CIRCLE('',#814,2.49999999999995);
#644=VERTEX_POINT('',#818);
#645=CIRCLE('',#819,2.49999999999995);
#646=VERTEX_POINT('',#823);
#647=CIRCLE('',#824,2.49999999999995);
#648=VERTEX_POINT('',#828);
#649=CIRCLE('',#829,2.49999999999995);
#650=VERTEX_POINT('',#833);
#651=CIRCLE('',#834,2.49999999999995);
#652=VERTEX_POINT('',#838);
#653=CIRCLE('',#839,2.49999999999995);
#654=VERTEX_POINT('',#843);
#655=CIRCLE('',#844,2.49999999999995);
#656=VERTEX_POINT('',#848);
#657=CIRCLE('',#849,10.4999999999993);
#658=VERTEX_POINT('',#853);
#659=VERTEX_POINT('',#854);
#660=CIRCLE('',#855,10.);
#661=VERTEX_POINT('',#859);
#662=CIRCLE('',#860,10.);
#663=CIRCLE('',#864,10.);
#664=VERTEX_POINT('',#868);
#665=CIRCLE('',#869,2.49999999999995);
#666=VERTEX_POINT('',#873);
#667=CIRCLE('',#874,2.49999999999995);
#668=VERTEX_POINT('',#878);
#669=CIRCLE('',#879,2.49999999999995);
#670=VERTEX_POINT('',#883);
#671=CIRCLE('',#884,2.49999999999995);
#672=VERTEX_POINT('',#888);
#673=VERTEX_POINT('',#889);
#674=CIRCLE('',#890,10.);
#675=CIRCLE('',#894,10.);
#676=LINE('',#898,#899);
#677=CARTESIAN_POINT('',(-19.9938416926382,0.493841692638273,-0.500000000000114));
#678=CARTESIAN_POINT('',(-19.9938416926382,-0.493841692638277,-0.500000000000114));
#679=AXIS2_PLACEMENT_3D('',#680,#681,#682);
#680=CARTESIAN_POINT('',(0.,1.38777877573889E-17,-0.499999999999968));
#681=DIRECTION('',(0.,0.,-1.));
#682=DIRECTION('',(-0.999695102156566,0.0246921591638381,0.));
#683=CARTESIAN_POINT('',(-19.9938416926377,-0.49384169263773,-3.50000000000041));
#684=CARTESIAN_POINT('',(-19.9938416926376,-0.493841692637712,-0.500000000000115));
#685=VECTOR('',#686,1.);
#686=DIRECTION('',(1.89478062869331E-14,1.94659103650914E-14,-1.));
#687=CARTESIAN_POINT('',(-19.9999396311,-3.50163733308205E-15,-3.50000000000011));
#688=AXIS2_PLACEMENT_3D('',#689,#690,#691);
#689=CARTESIAN_POINT('',(0.,1.38777877573889E-17,-3.50000000000011));
#690=DIRECTION('',(0.,0.,-1.));
#691=DIRECTION('',(-0.999695102156567,-0.0246921591638079,0.));
#692=CARTESIAN_POINT('',(-19.9938416926382,0.493841692638273,-3.50000000000011));
#693=AXIS2_PLACEMENT_3D('',#694,#695,#696);
#694=CARTESIAN_POINT('',(0.,1.38777877573889E-17,-3.50000000000011));
#695=DIRECTION('',(0.,0.,-1.));
#696=DIRECTION('',(-1.,0.,0.));
#697=CARTESIAN_POINT('',(-19.9938416926376,0.493841692637662,-3.50000000000011));
#698=VECTOR('',#699,1.);
#699=DIRECTION('',(0.,0.,1.));
#700=CARTESIAN_POINT('',(-19.9999396310999,8.3030652283628E-16,-13.5000000000001));
#701=AXIS2_PLACEMENT_3D('',#702,#703,#704);
#702=CARTESIAN_POINT('',(0.,1.38777877573889E-17,-13.5000000000001));
#703=DIRECTION('',(0.,0.,1.));
#704=DIRECTION('',(-1.,2.4492935982947E-16,0.));
#705=CARTESIAN_POINT('',(-19.5000000886464,-8.60357549449952E-15,-3.00006045709745));
#706=CARTESIAN_POINT('',(-19.9938416926381,0.493841692638193,-3.50000000000019));
#707=CARTESIAN_POINT('',(-19.983482635094,0.483482635094126,-3.48938831334276));
#708=CARTESIAN_POINT('',(-19.9627554600391,0.462755460039438,-3.46817097978678));
#709=CARTESIAN_POINT('',(-19.9316788591965,0.431678859195037,-3.43640558479274));
#710=CARTESIAN_POINT('',(-19.9005806476347,0.400580647640209,-3.40466449431895));
#711=CARTESIAN_POINT('',(-19.869476187255,0.369476187234246,-3.37296368008086));
#712=CARTESIAN_POINT('',(-19.8383824605479,0.338382460625623,-3.34132066881375));
#713=CARTESIAN_POINT('',(-19.8073269021923,0.307326901902342,-3.30976349007146));
#714=CARTESIAN_POINT('',(-19.7763338465367,0.27633384761791,-3.2783168707364));
#715=CARTESIAN_POINT('',(-19.7454231516277,0.245423147601297,-3.24700084897747));
#716=CARTESIAN_POINT('',(-19.7146050173363,0.21460501841284,-3.21582557132642));
#717=CARTESIAN_POINT('',(-19.6838689054925,0.183868905204333,-3.18478019513286));
#718=CARTESIAN_POINT('',(-19.6531947585487,0.153194758625972,-3.15384434554879));
#719=CARTESIAN_POINT('',(-19.6225583343577,0.122558334337018,-3.12299357066928));
#720=CARTESIAN_POINT('',(-19.5919321873506,0.091932187356213,-3.09220034050078));
#721=CARTESIAN_POINT('',(-19.5612994274768,0.0612994274753297,-3.06144789251753));
#722=CARTESIAN_POINT('',(-19.5306446981742,0.0306446981745484,-3.03072110869678));
#723=CARTESIAN_POINT('',(-19.5102179555699,0.0102179555700338,-3.01027832356189));
#724=CARTESIAN_POINT('',(-19.5000000592471,5.92470959071041E-8,-3.00006042724965));
#725=CARTESIAN_POINT('',(-19.9938416926381,-0.493841692637887,-3.50000000000045));
#726=CARTESIAN_POINT('',(-19.9834996342355,-0.483499634235422,-3.48940572707898));
#727=CARTESIAN_POINT('',(-19.9628076711875,-0.462807671187558,-3.46822441057395));
#728=CARTESIAN_POINT('',(-19.9317799084205,-0.431779908420484,-3.4365088236772));
#729=CARTESIAN_POINT('',(-19.9007330959206,-0.40073309592055,-3.40482000664204));
#730=CARTESIAN_POINT('',(-19.8696797471306,-0.36967974713102,-3.37317101624304));
#731=CARTESIAN_POINT('',(-19.838633683997,-0.338633683995371,-3.34157616460585));
#732=CARTESIAN_POINT('',(-19.8076172436851,-0.307617243691344,-3.31005832063963));
#733=CARTESIAN_POINT('',(-19.7766502173176,-0.276650217294399,-3.27863764359535));
#734=CARTESIAN_POINT('',(-19.7457487673463,-0.245748767432923,-3.24733048775835));
#735=CARTESIAN_POINT('',(-19.7149212020348,-0.21492120201169,-3.21614517266622));
#736=CARTESIAN_POINT('',(-19.6841589442927,-0.184158944298935,-3.18507291520996));
#737=CARTESIAN_POINT('',(-19.653445665524,-0.153445665522302,-3.15409717967836));
#738=CARTESIAN_POINT('',(-19.6227616131467,-0.122761613147205,-3.12319809012981));
#739=CARTESIAN_POINT('',(-19.5920844511144,-0.0920844511142693,-3.09235329083469));
#740=CARTESIAN_POINT('',(-19.5614004294419,-0.0614004294419021,-3.06154918484369));
#741=CARTESIAN_POINT('',(-19.5306970569521,-0.0306970569520919,-3.03077352487426));
#742=CARTESIAN_POINT('',(-19.510235015909,-0.0102350159090404,-3.01029538393656));
#743=CARTESIAN_POINT('',(-19.5000000592471,-5.92471389318997E-8,-3.00006042724968));
#744=CARTESIAN_POINT('',(-19.4999396316982,-3.69469154100772E-15,1.49698327807831E-10));
#745=AXIS2_PLACEMENT_3D('',#746,#747,#748);
#746=CARTESIAN_POINT('',(0.,-1.33226762955019E-15,0.));
#747=DIRECTION('',(0.,0.,-1.));
#748=DIRECTION('',(-1.,-5.47147526849391E-30,0.));
#749=CARTESIAN_POINT('',(-19.5000000002525,-2.96913169872412E-15,-6.03685635078288E-5));
#750=CARTESIAN_POINT('',(-19.9938416926382,-0.493841692638244,-0.500000000000217));
#751=CARTESIAN_POINT('',(-19.9834826338482,-0.483482633848363,-0.489388312066488));
#752=CARTESIAN_POINT('',(-19.9627554562994,-0.462755456299748,-0.468170975959368));
#753=CARTESIAN_POINT('',(-19.9316788517194,-0.431678851717942,-0.436405577153474));
#754=CARTESIAN_POINT('',(-19.9005806364149,-0.400580636420441,-0.4046644828736));
#755=CARTESIAN_POINT('',(-19.8694761722911,-0.369476172270312,-0.372963664839258));
#756=CARTESIAN_POINT('',(-19.8383824418426,-0.338382441920314,-0.341320649790102));
#757=CARTESIAN_POINT('',(-19.8073268797553,-0.307326879465281,-0.309763467286954));
#758=CARTESIAN_POINT('',(-19.7763338203836,-0.276333821464763,-0.278316844218407));
#759=CARTESIAN_POINT('',(-19.7454231217791,-0.245423117752814,-0.247000818758102));
#760=CARTESIAN_POINT('',(-19.7146049838154,-0.21460498489193,-0.215825537440635));
#761=CARTESIAN_POINT('',(-19.6838688683197,-0.183868868031515,-0.184780157612561));
#762=CARTESIAN_POINT('',(-19.6531947177396,-0.153194717817002,-0.15384430442051));
#763=CARTESIAN_POINT('',(-19.6225582899214,-0.12255828989993,-0.122993525955246));
#764=CARTESIAN_POINT('',(-19.59193213929,-0.0919321392984679,-0.0922002922096541));
#765=CARTESIAN_POINT('',(-19.5612993757889,-0.0612993757767598,-0.0614478406792229));
#766=CARTESIAN_POINT('',(-19.5306446428588,-0.0306446428991489,-0.0307210532427827));
#767=CARTESIAN_POINT('',(-19.5102178978253,-0.0102178977391918,-0.0102782658942154));
#768=CARTESIAN_POINT('',(-19.5000000002805,-5.61050332563132E-11,-6.03685635020001E-5));
#769=CARTESIAN_POINT('',(-19.5000000002805,5.610033248419E-11,-6.0368563501334E-5));
#770=CARTESIAN_POINT('',(-19.5102178978252,0.0102178977390909,-0.0102782658941206));
#771=CARTESIAN_POINT('',(-19.5306446428585,0.0306446428988477,-0.0307210532424887));
#772=CARTESIAN_POINT('',(-19.5612993757883,0.0612993757761866,-0.0614478406786537));
#773=CARTESIAN_POINT('',(-19.5919321392892,0.0919321392975988,-0.0922002922087884));
#774=CARTESIAN_POINT('',(-19.6225582899203,0.122558289898783,-0.122993525954101));
#775=CARTESIAN_POINT('',(-19.6531947177381,0.153194717815582,-0.153844304419091));
#776=CARTESIAN_POINT('',(-19.6838688683181,0.183868868029875,-0.184780157610924));
#777=CARTESIAN_POINT('',(-19.7146049838136,0.21460498489016,-0.215825537438839));
#778=CARTESIAN_POINT('',(-19.7454231217773,0.245423117750972,-0.247000818756263));
#779=CARTESIAN_POINT('',(-19.7763338203818,0.276333821462984,-0.278316844216611));
#780=CARTESIAN_POINT('',(-19.8073268797537,0.307326879463649,-0.309763467285307));
#781=CARTESIAN_POINT('',(-19.8383824418412,0.338382441918896,-0.341320649788676));
#782=CARTESIAN_POINT('',(-19.86947617229,0.369476172269164,-0.372963664838092));
#783=CARTESIAN_POINT('',(-19.900580636414,0.400580636419577,-0.404664482872739));
#784=CARTESIAN_POINT('',(-19.9316788517188,0.431678851717372,-0.436405577152891));
#785=CARTESIAN_POINT('',(-19.9627554562991,0.462755456299448,-0.468170975959077));
#786=CARTESIAN_POINT('',(-19.9834826338481,0.483482633848258,-0.489388312066395));
#787=CARTESIAN_POINT('',(-19.9938416926382,0.493841692638236,-0.500000000000216));
#788=CARTESIAN_POINT('',(8.63693180369005,11.1369318036882,0.));
#789=AXIS2_PLACEMENT_3D('',#790,#791,#792);
#790=CARTESIAN_POINT('',(11.13693180369,11.1369318036882,0.));
#791=DIRECTION('',(0.,0.,1.));
#792=DIRECTION('',(-1.,0.,0.));
#793=CARTESIAN_POINT('',(8.63693180369005,11.1369318036882,-7.00000000000011));
#794=AXIS2_PLACEMENT_3D('',#795,#796,#797);
#795=CARTESIAN_POINT('',(11.13693180369,11.1369318036882,-7.00000000000011));
#796=DIRECTION('',(0.,0.,1.));
#797=DIRECTION('',(-1.,0.,0.));
#798=CARTESIAN_POINT('',(-13.63693180369,11.1369318036882,0.));
#799=AXIS2_PLACEMENT_3D('',#800,#801,#802);
#800=CARTESIAN_POINT('',(-11.13693180369,11.1369318036882,0.));
#801=DIRECTION('',(0.,0.,1.));
#802=DIRECTION('',(-1.,0.,0.));
#803=CARTESIAN_POINT('',(-13.63693180369,11.1369318036882,-7.00000000000011));
#804=AXIS2_PLACEMENT_3D('',#805,#806,#807);
#805=CARTESIAN_POINT('',(-11.13693180369,11.1369318036882,-7.00000000000011));
#806=DIRECTION('',(0.,0.,1.));
#807=DIRECTION('',(-1.,0.,0.));
#808=CARTESIAN_POINT('',(13.25,-3.04253037160421E-14,0.));
#809=AXIS2_PLACEMENT_3D('',#810,#811,#812);
#810=CARTESIAN_POINT('',(15.75,-3.01980662698043E-14,0.));
#811=DIRECTION('',(0.,0.,1.));
#812=DIRECTION('',(-1.,0.,0.));
#813=CARTESIAN_POINT('',(13.25,-3.04458369417656E-14,-7.00000000000011));
#814=AXIS2_PLACEMENT_3D('',#815,#816,#817);
#815=CARTESIAN_POINT('',(15.75,-3.03437830418367E-14,-7.00000000000011));
#816=DIRECTION('',(0.,0.,1.));
#817=DIRECTION('',(-1.,0.,0.));
#818=CARTESIAN_POINT('',(8.63693180369005,-11.1369318036881,0.));
#819=AXIS2_PLACEMENT_3D('',#820,#821,#822);
#820=CARTESIAN_POINT('',(11.13693180369,-11.1369318036881,0.));
#821=DIRECTION('',(0.,0.,1.));
#822=DIRECTION('',(-1.,0.,0.));
#823=CARTESIAN_POINT('',(8.63693180369005,-11.1369318036881,-7.00000000000011));
#824=AXIS2_PLACEMENT_3D('',#825,#826,#827);
#825=CARTESIAN_POINT('',(11.13693180369,-11.1369318036881,-7.00000000000011));
#826=DIRECTION('',(0.,0.,1.));
#827=DIRECTION('',(-1.,0.,0.));
#828=CARTESIAN_POINT('',(-2.49999999999995,-15.75,0.));
#829=AXIS2_PLACEMENT_3D('',#830,#831,#832);
#830=CARTESIAN_POINT('',(0.,-15.75,0.));
#831=DIRECTION('',(0.,0.,1.));
#832=DIRECTION('',(-1.,0.,0.));
#833=CARTESIAN_POINT('',(-2.49999999999995,-15.75,-7.00000000000011));
#834=AXIS2_PLACEMENT_3D('',#835,#836,#837);
#835=CARTESIAN_POINT('',(0.,-15.75,-7.00000000000011));
#836=DIRECTION('',(0.,0.,1.));
#837=DIRECTION('',(-1.,0.,0.));
#838=CARTESIAN_POINT('',(-13.63693180369,-11.1369318036881,0.));
#839=AXIS2_PLACEMENT_3D('',#840,#841,#842);
#840=CARTESIAN_POINT('',(-11.13693180369,-11.1369318036881,0.));
#841=DIRECTION('',(0.,0.,1.));
#842=DIRECTION('',(-1.,0.,0.));
#843=CARTESIAN_POINT('',(-13.63693180369,-11.1369318036881,-7.00000000000011));
#844=AXIS2_PLACEMENT_3D('',#845,#846,#847);
#845=CARTESIAN_POINT('',(-11.13693180369,-11.1369318036881,-7.00000000000011));
#846=DIRECTION('',(0.,0.,1.));
#847=DIRECTION('',(-1.,0.,0.));
#848=CARTESIAN_POINT('',(10.4999999999995,-3.81613325164336E-15,-1.85333230244093E-13));
#849=AXIS2_PLACEMENT_3D('',#850,#851,#852);
#850=CARTESIAN_POINT('',(0.,0.,0.));
#851=DIRECTION('',(0.,0.,1.));
#852=DIRECTION('',(1.,-2.4492935982947E-16,0.));
#853=CARTESIAN_POINT('',(-1.22464679919541E-15,-10.0000000001121,-0.500000000560952));
#854=CARTESIAN_POINT('',(10.0000000001495,-1.94855941326522E-15,-0.500000000598325));
#855=AXIS2_PLACEMENT_3D('',#856,#857,#858);
#856=CARTESIAN_POINT('',(0.,1.38777877573889E-17,-0.500000000448836));
#857=DIRECTION('',(0.,0.,1.));
#858=DIRECTION('',(1.83697019872103E-16,-1.,0.));
#859=CARTESIAN_POINT('',(-10.0000000001494,4.61413786333707E-16,-0.500000000448949));
#860=AXIS2_PLACEMENT_3D('',#861,#862,#863);
#861=CARTESIAN_POINT('',(0.,1.38777877573889E-17,-0.500000000448836));
#862=DIRECTION('',(0.,0.,1.));
#863=DIRECTION('',(-1.,0.,0.));
#864=AXIS2_PLACEMENT_3D('',#865,#866,#867);
#865=CARTESIAN_POINT('',(0.,1.38777877573889E-17,-0.500000000448836));
#866=DIRECTION('',(0.,0.,1.));
#867=DIRECTION('',(1.,1.22464679914735E-16,0.));
#868=CARTESIAN_POINT('',(-2.49999999999995,15.75,0.));
#869=AXIS2_PLACEMENT_3D('',#870,#871,#872);
#870=CARTESIAN_POINT('',(0.,15.75,0.));
#871=DIRECTION('',(0.,0.,1.));
#872=DIRECTION('',(-1.,0.,0.));
#873=CARTESIAN_POINT('',(-2.49999999999995,15.75,-7.00000000000011));
#874=AXIS2_PLACEMENT_3D('',#875,#876,#877);
#875=CARTESIAN_POINT('',(0.,15.75,-7.00000000000011));
#876=DIRECTION('',(0.,0.,1.));
#877=DIRECTION('',(-1.,0.,0.));
#878=CARTESIAN_POINT('',(-18.25,1.15341877208849E-14,0.));
#879=AXIS2_PLACEMENT_3D('',#880,#881,#882);
#880=CARTESIAN_POINT('',(-15.75,1.15463194561016E-14,0.));
#881=DIRECTION('',(0.,0.,1.));
#882=DIRECTION('',(-1.,0.,0.));
#883=CARTESIAN_POINT('',(-18.25,1.1621207350672E-14,-5.00000000000011));
#884=AXIS2_PLACEMENT_3D('',#885,#886,#887);
#885=CARTESIAN_POINT('',(-15.75,1.17232612506009E-14,-5.00000000000011));
#886=DIRECTION('',(0.,0.,1.));
#887=DIRECTION('',(-1.,0.,0.));
#888=CARTESIAN_POINT('',(-10.,-3.63090131076581E-16,-6.00000000000023));
#889=CARTESIAN_POINT('',(4.74395889510452E-16,-10.,-6.00000000000011));
#890=AXIS2_PLACEMENT_3D('',#891,#892,#893);
#891=CARTESIAN_POINT('',(0.,0.,-6.00000000000011));
#892=DIRECTION('',(0.,0.,1.));
#893=DIRECTION('',(-1.,0.,0.));
#894=AXIS2_PLACEMENT_3D('',#895,#896,#897);
#895=CARTESIAN_POINT('',(0.,0.,-6.00000000000011));
#896=DIRECTION('',(0.,0.,1.));
#897=DIRECTION('',(-6.12323399573677E-17,-1.,0.));
#898=CARTESIAN_POINT('',(-19.5,1.70473864481621E-14,-3.00006045709745));
#899=VECTOR('',#900,1.);
#900=DIRECTION('',(-1.89478057284699E-14,-6.85617969077002E-15,1.));
ENDSEC;
END-ISO-10303-21;
