DBRep_DrawableShape

CASCADE Topology V3, (c) Open Cascade
Locations 0
Curve2ds 63
1 0.024694668998630931 -12.700000000000031 1 0 
1 0.024694668998630931 0.35355339043432898 1 -9.3501149349400469e-16 
1 6.2584906381809837 -12.699999999999884 8.8817841970003737e-16 1 
1 6.2584906381809855 -9.6999999999998892 1 0 
1 -0.024694668998600733 0.3535106617576721 1 0 
1 6.2831853071795862 0 0 1 
1 0 0 0 1 
1 6.2831853071795862 0.30000000000010019 -1 0 
1 0 -9.6999999999998892 1 0 
1 0 0.3535106617576721 1 1.0340340892115189e-13 
1 0.024694668998600733 -9.6999999999998892 0 -1 
7 0 0  3 69 67  0.024694668998626407 0.35351066175810042  0.024571539108959692 0.34985163641865125  0.02432523040778372 0.34253625852973751  0.023955620683329577 0.33157121014248436  0.02358586437888192 0.32061418027811162  0.023215961587630066 0.30966516901128477  0.022845912403071374 0.29872417641481269  0.022475716919260452 0.28779120256732144  0.022105375230632211 0.27686624754690997  0.021734887431951583 0.26594931142886036  0.02136425361843242 0.25504039429053132  0.020993473884930242 0.24413949617945083  0.020622548326480809 0.23324661713488226  0.020251477038527439 0.22236175719594195  0.019880260116838407 0.21148491640056896  0.0195088976576639 0.20061609478041328  0.019137389757674109 0.18975529236330782  0.018765736513865022 0.17890250917582179  0.018393938023666977 0.16805774524359568  0.018021994384514683 0.15722100058663502  0.017649905693882809 0.14639227522001047  0.017277672049728361 0.1355715691575935  0.016905293550138652 0.12475888241274105  0.016532770294482226 0.11395421499162696  0.016160102383916599 0.10315756688961597  0.015787289919603122 0.092368938103754863  0.015414333003489289 0.081588328622699685  0.015041231736461082 0.070815738458578248  0.014667986215576939 0.060051167695778236  0.014294596538998137 0.049294616404977919  0.013921062804590783 0.038546084663317506  0.013547385112501737 0.027805572525937839  0.013173563576955051 0.017073079902340804  0.012799598311338622 0.0063486067128917705  0.012425489429776927 -0.0043678471276086166  0.012051237046558963 -0.015076281704257895  0.011676841256801327 -0.025776696931232079  0.011302302156013713 -0.036469092724424342  0.010927619840317619 -0.047153469003910174  0.010552794405134194 -0.057829825680165772  0.010177825960187249 -0.068498162811983565  0.0098027146171662319 -0.079158480477057799  0.0094274604875723231 -0.089810778747812681  0.0090520636839624118 -0.10045505770988793  0.0086765243149021891 -0.1110913173724966  0.0083008424881370821 -0.12171955772527432  0.0079250183121562234 -0.1323397787654389  0.0075490518954690351 -0.1429519804887667  0.0071729433485605626 -0.15355616290285082  0.0067966927830819092 -0.16415232602166305  0.0064203003108526894 -0.17474046986006062  0.0060437660441935949 -0.18532059443409102  0.0056670900954258431 -0.19589269976584581  0.0052902725769422686 -0.20645678588276403  0.0049133136015842866 -0.21701285281348803  0.0045362132825330515 -0.22756090058789955  0.0041589717334368365 -0.2381009292407327  0.0037815890684346405 -0.24863293881275733  0.003404065402040816 -0.25915692934633489  0.0030264008490799243 -0.26967290088333273  0.0026485955250108322 -0.28018085347755028  0.0022706495430013149 -0.29068078721198959  0.0018925630240130028 -0.3011727021670319  0.0015143360620810853 -0.31165659842637838  0.001135968853415431 -0.32213247607395712  0.00075746121503332845 -0.33260033518796184  0.00037881438162861873 -0.34306017584892506  0.00012628765973035665 -0.35002805737607212  0 -0.35351066175829732 
 0 4 0.015151515151515152 1 0.030303030303030304 1 0.045454545454545456 1 0.060606060606060608 1 0.07575757575757576 1 0.090909090909090912 1 0.10606060606060606 1 0.12121212121212122 1 0.13636363636363635 1 0.15151515151515152 1 0.16666666666666669 1 0.18181818181818182 1 0.19696969696969696 1 0.21212121212121213 1 0.22727272727272729 1 0.24242424242424243 1 0.25757575757575757 1 0.27272727272727271 1 0.2878787878787879 1 0.30303030303030304 1 0.31818181818181818 1 0.33333333333333337 1 0.34848484848484851 1 0.36363636363636365 1 0.37878787878787878 1 0.39393939393939392 1 0.40909090909090912 1 0.42424242424242425 1 0.43939393939393939 1 0.45454545454545459 1 0.46969696969696972 1 0.48484848484848486 1 0.5 1 0.51515151515151514 1 0.53030303030303028 1 0.54545454545454541 1 0.56060606060606066 1 0.5757575757575758 1 0.59090909090909094 1 0.60606060606060608 1 0.62121212121212122 1 0.63636363636363635 1 0.65151515151515149 1 0.66666666666666674 1 0.68181818181818188 1 0.69696969696969702 1 0.71212121212121215 1 0.72727272727272729 1 0.74242424242424243 1 0.75757575757575757 1 0.77272727272727271 1 0.78787878787878785 1 0.80303030303030309 1 0.81818181818181823 1 0.83333333333333337 1 0.84848484848484851 1 0.86363636363636365 1 0.87878787878787878 1 0.89393939393939392 1 0.90909090909090917 1 0.92424242424242431 1 0.93939393939393945 1 0.95454545454545459 1 0.96969696969696972 1 0.98484848484848486 1 1 4
7 0 0  3 69 67  -0.024694668998611391 0.35351066175827661  -0.024571870172587319 0.34986147457407518  -0.024326214159816485 0.34256547033531809  -0.023957555071980132 0.331628575036722  -0.023588720928848381 0.32069879146847213  -0.023219711744167124 0.30977612030065854  -0.022850527531896932 0.29886056220257418  -0.022481168306371788 0.28795211784689012  -0.022111634082194527 0.27705078790618076  -0.021741924874208465 0.26615657305188734  -0.021372040697566087 0.25526947395670802  -0.02100198156728051 0.24438949127798026  -0.020631747498522521 0.23351662566869971  -0.020261338506744209 0.2226508777821482  -0.019890754607649656 0.21179224827104057  -0.019519995817199064 0.20094073778594482  -0.019149062151600307 0.19009634697615008  -0.018777953627322524 0.17925907649016407  -0.018406670261108916 0.16842892697707193  -0.018035212069874573 0.15760589907957764  -0.017663579070702762 0.14678999343464899  -0.017291771280961918 0.13598121067999711  -0.016919788718273043 0.12517955145160484  -0.016547631400539067 0.11438501638832071  -0.016175299345972016 0.10359760613352144  -0.015802792573050783 0.092817321329028368  -0.015430111100449825 0.082044162616376315  -0.015057254947398522 0.071278130635752543  -0.014684224134292078 0.06051922602410293  -0.014311018681647259 0.049767449418442029  -0.013937638610321846 0.039022801453766083  -0.013564083941297321 0.028285282769351983  -0.013190354694794001 0.017554894040710492  -0.012816450891389839 0.0068316359394797908  -0.012442372551904697 -0.0038844908624012364  -0.01206811969743723 -0.014593485694186623  -0.011693692350803898 -0.025295347942793655  -0.011319090535094506 -0.035990076995804338  -0.010944314273646567 -0.046677672240732354  -0.010569363590153447 -0.057358133068671081  -0.010194238507538037 -0.068031458834057174  -0.0098189390488700023 -0.078697648887738392  -0.0094434652375515668 -0.089356702582418859  -0.009067817097122682 -0.10000861927086072  -0.0086919946523501389 -0.11065339830900346  -0.0083159979285351605 -0.12129103905423148  -0.0079398269511902243 -0.13192154086418781  -0.0075634817461163531 -0.14254490309824402  -0.0071869623394384598 -0.15316112511082206  -0.0068102687575944919 -0.16377020625409014  -0.0064334010272848914 -0.17437214588192126  -0.0060563591755097689 -0.18496694334751049  -0.0056791432294547479 -0.19555459801076625  -0.0053017532165000603 -0.20613510923755884  -0.0049241891643196766 -0.21670847639334917  -0.0045464511008699981 -0.22727469884440482  -0.0041685390543786038 -0.23783377595869593  -0.0037904530533526396 -0.24838570710642607  -0.0034121931266044392 -0.2589304916585512  -0.0030337593031193335 -0.26946812898557448  -0.0026551516125534859 -0.27999861846387825  -0.002276370082495433 -0.29052195948503273  -0.0018974147481813609 -0.30103815143912172  -0.0015182856178432361 -0.31154719371765754  -0.0011389828017716065 -0.32204908571216073  -0.00075950603088141306 -0.33254382681091366  -0.00037985645367905778 -0.34303141640322732  -0.00012663877084544909 -0.35001837472062219  0 -0.35351066175827595 
 0 4 0.015151515151515152 1 0.030303030303030304 1 0.045454545454545456 1 0.060606060606060608 1 0.07575757575757576 1 0.090909090909090912 1 0.10606060606060606 1 0.12121212121212122 1 0.13636363636363635 1 0.15151515151515152 1 0.16666666666666669 1 0.18181818181818182 1 0.19696969696969696 1 0.21212121212121213 1 0.22727272727272729 1 0.24242424242424243 1 0.25757575757575757 1 0.27272727272727271 1 0.2878787878787879 1 0.30303030303030304 1 0.31818181818181818 1 0.33333333333333337 1 0.34848484848484851 1 0.36363636363636365 1 0.37878787878787878 1 0.39393939393939392 1 0.40909090909090912 1 0.42424242424242425 1 0.43939393939393939 1 0.45454545454545459 1 0.46969696969696972 1 0.48484848484848486 1 0.5 1 0.51515151515151514 1 0.53030303030303028 1 0.54545454545454541 1 0.56060606060606066 1 0.5757575757575758 1 0.59090909090909094 1 0.60606060606060608 1 0.62121212121212122 1 0.63636363636363635 1 0.65151515151515149 1 0.66666666666666674 1 0.68181818181818188 1 0.69696969696969702 1 0.71212121212121215 1 0.72727272727272729 1 0.74242424242424243 1 0.75757575757575757 1 0.77272727272727271 1 0.78787878787878785 1 0.80303030303030309 1 0.81818181818181823 1 0.83333333333333337 1 0.84848484848484851 1 0.86363636363636365 1 0.87878787878787878 1 0.89393939393939392 1 0.90909090909090917 1 0.92424242424242431 1 0.93939393939393945 1 0.95454545454545459 1 0.96969696969696972 1 0.98484848484848486 1 1 4
1 0 -0.35355339043499079 1 0 
1 6.2831853071795862 0 0 1 
1 0 0 0 1 
7 0 0  3 69 67  6.2584906381809571 0.35355339043494138  6.2586137680855227 0.34989436465271712  6.2588600768165081 0.34257898587892144  6.2592296865857113 0.3316139361663431  6.2595994429349409 0.32065690497862737  6.2599693457710099 0.30970789239045421  6.26033939500042 0.29876689847459542  6.2607095905291148 0.28783392330970764  6.2610799322626667 0.27690896697385942  6.261450420106299 0.26599202954237949  6.2618210539648089 0.25508311109255916  6.2621918337433309 0.24418221167200929  6.262562759346836 0.23328933131990295  6.2629338306798807 0.22240447007543504  6.2633050476466918 0.21152762797649718  6.2636764101510245 0.20065880505477604  6.264047918096205 0.18979800133805463  6.2644195713852389 0.17894521685295556  6.2647913699206956 0.1681004516250604  6.2651633136051395 0.15726370567443598  6.2655354023410963 0.14643497901610275  6.2659076360306134 0.13561427166396126  6.2662800145755932 0.12480158363135037  6.266652537876678 0.11399691492446452  6.2670252058327032 0.10320026553866481  6.2673980183425089 0.092411635470958126  6.2677709753041517 0.081631024710076411  6.2681440766167391 0.070858433268053203  6.2685173221832171 0.060093861229361341  6.2688907119054234 0.049337308664605735  6.2692642456854912 0.038588775650981053  6.2696379234232733 0.027848262243580963  6.2700117450045463 0.017115768351953956  6.2703857103159191 0.0063912938964380012  6.2707598192432767 -0.004325161208146318  6.2711340716723196 -0.015033597046881687  6.2715084675079389 -0.02573401353397553  6.2718830066546225 -0.036426410585296311  6.2722576890162411 -0.047110788120960694  6.2726325144973858 -0.057787146051398758  6.2730074829883229 -0.068455484435439251  6.2733825943773684 -0.079115803350773978  6.2737578485530179 -0.089768102869817262  6.274133245402715 -0.10041238307821784  6.2745087848178986 -0.11104864398517161  6.2748844666908159 -0.12167688558030855  6.2752602909129847 -0.13229710786082088  6.2756362573758979 -0.14290931082249186  6.2760123659690663 -0.15351349447291535  6.2763886165808316 -0.16410965882616876  6.2767650090993765 -0.17469780389713235  6.2771415434123625 -0.18527792970196924  6.2775182194074901 -0.19585003626265196  6.2778950369723727 -0.20641412360636532  6.2782719959941895 -0.21697019176154211  6.2786490963597839 -0.22751824075770985  6.279026337955492 -0.23805827062983351  6.2794037206670961 -0.24859028141969464  6.2797812443800503 -0.25911427317044322  6.2801589089793426 -0.26963024592506113  6.280536714349938 -0.28013819973723503  6.2809146603773893 -0.29063813468618677  6.2812927469467272 -0.30113005084921296  6.2816709739426715 -0.31161394830664602  6.2820493412494249 -0.32208982713924211  6.2824278487508849 -0.33255768742306735  6.2828064963293011 -0.34301752923633777  6.2830590213573654 -0.34998541151852258  6.2831853071795862 -0.35346801627459817 
 0 4 0.015151515151515152 1 0.030303030303030304 1 0.045454545454545456 1 0.060606060606060608 1 0.07575757575757576 1 0.090909090909090912 1 0.10606060606060606 1 0.12121212121212122 1 0.13636363636363635 1 0.15151515151515152 1 0.16666666666666669 1 0.18181818181818182 1 0.19696969696969696 1 0.21212121212121213 1 0.22727272727272729 1 0.24242424242424243 1 0.25757575757575757 1 0.27272727272727271 1 0.2878787878787879 1 0.30303030303030304 1 0.31818181818181818 1 0.33333333333333337 1 0.34848484848484851 1 0.36363636363636365 1 0.37878787878787878 1 0.39393939393939392 1 0.40909090909090912 1 0.42424242424242425 1 0.43939393939393939 1 0.45454545454545459 1 0.46969696969696972 1 0.48484848484848486 1 0.5 1 0.51515151515151514 1 0.53030303030303028 1 0.54545454545454541 1 0.56060606060606066 1 0.5757575757575758 1 0.59090909090909094 1 0.60606060606060608 1 0.62121212121212122 1 0.63636363636363635 1 0.65151515151515149 1 0.66666666666666674 1 0.68181818181818188 1 0.69696969696969702 1 0.71212121212121215 1 0.72727272727272729 1 0.74242424242424243 1 0.75757575757575757 1 0.77272727272727271 1 0.78787878787878785 1 0.80303030303030309 1 0.81818181818181823 1 0.83333333333333337 1 0.84848484848484851 1 0.86363636363636365 1 0.87878787878787878 1 0.89393939393939392 1 0.90909090909090917 1 0.92424242424242431 1 0.93939393939393945 1 0.95454545454545459 1 0.96969696969696972 1 0.98484848484848486 1 1 4
7 0 0  3 69 67  0 -0.35346801627459867  0.00012628582221818618 -0.3499854115185807  0.00037881085027979822 -0.34301752923650325  0.00075745842868890634 -0.33255768742337943  0.0011359659301444225 -0.3220898271397229  0.0015143332368907636 -0.31161394830725192  0.0018925602328314639 -0.30113005084997674  0.0022706468021640447 -0.29063813468708144  0.0026485928296136052 -0.28013819973826198  0.0030263982002018963 -0.26963024592622808  0.003404062799488905 -0.25911427317170471  0.0037815865124404269 -0.24859028142107495  0.0041589692240400211 -0.23805827063131291  0.004536210819744646 -0.22751824075928198  0.0049133111853345568 -0.21697019176320562  0.0052902702071486729 -0.20641412360812911  0.005667087772029511 -0.19585003626450961  0.00604376376714999 -0.18527792970392262  0.0064202980801377763 -0.17469780389918294  0.0067966905986773796 -0.16410965882831099  0.0071729412104408752 -0.1535134944751432  0.0075490498036066001 -0.14290931082480693  0.0079250162665172041 -0.13229710786319315  0.0083008404886850684 -0.12167688558273433  0.0086765223616023235 -0.1110486439876345  0.0090520617767815281 -0.10041238308072609  0.0094274586264777582 -0.089768102872355829  0.009802712802126301 -0.079115803353352901  0.010177824191170082 -0.06845548443805094  0.01055279268210807 -0.057787146054050095  0.010927618163250052 -0.047110788123630766  0.011302300524872244 -0.036426410587982759  0.011676839671552308 -0.025734013536673515  0.0120512355071698 -0.0150335970495805  0.012425487936214452 -0.0043251612108479512  0.012799596863569462 0.0063912938937430606  0.013173562174945808 0.017115768349255548  0.013547383756218778 0.027848262240892121  0.013921061494001741 0.038588775648303424  0.01429459527407051 0.049337308661950796  0.014667984996276751 0.060093861226728759  0.015041230562756525 0.070858433265479512  0.015414331875346576 0.081631024707522787  0.015787288836988544 0.092411635468467757  0.016160101346797795 0.10320026553621042  0.016532769302824768 0.11399691492206512  0.016905292603910382 0.12480158362900114  0.017277671148894669 0.13561427166167617  0.01764990483841089 0.14643497901388847  0.018021993574371287 0.15726370567229647  0.01839393725881866 0.16810045162300352  0.018765735794278093 0.1789452168509631  0.019137389083315526 0.18979800133615141  0.019508897028499561 0.20065880505294606  0.019880259532834899 0.21152762797476499  0.020251476499650423 0.22240447007379191  0.020622547832697791 0.2332893313183691  0.0209934734362065 0.24418221167056833  0.021364253214734674 0.25508311109125253  0.021734887073246334 0.26599202954119588  0.022105374916884912 0.2769089669728057  0.022475716650437683 0.28783392330880331  0.02284591217913956 0.29876689847381949  0.023215961408554975 0.30970789238982638  0.023585864244629384 0.32065690497814886  0.023955620593864246 0.33161393616603058  0.02432523036307277 0.34257898587874785  0.024571539094060846 0.3498943646526535  0.024694668998628266 0.35355339043494149 
 0 4 0.015151515151515152 1 0.030303030303030304 1 0.045454545454545456 1 0.060606060606060608 1 0.07575757575757576 1 0.090909090909090912 1 0.10606060606060606 1 0.12121212121212122 1 0.13636363636363635 1 0.15151515151515152 1 0.16666666666666669 1 0.18181818181818182 1 0.19696969696969696 1 0.21212121212121213 1 0.22727272727272729 1 0.24242424242424243 1 0.25757575757575757 1 0.27272727272727271 1 0.2878787878787879 1 0.30303030303030304 1 0.31818181818181818 1 0.33333333333333337 1 0.34848484848484851 1 0.36363636363636365 1 0.37878787878787878 1 0.39393939393939392 1 0.40909090909090912 1 0.42424242424242425 1 0.43939393939393939 1 0.45454545454545459 1 0.46969696969696972 1 0.48484848484848486 1 0.5 1 0.51515151515151514 1 0.53030303030303028 1 0.54545454545454541 1 0.56060606060606066 1 0.5757575757575758 1 0.59090909090909094 1 0.60606060606060608 1 0.62121212121212122 1 0.63636363636363635 1 0.65151515151515149 1 0.66666666666666674 1 0.68181818181818188 1 0.69696969696969702 1 0.71212121212121215 1 0.72727272727272729 1 0.74242424242424243 1 0.75757575757575757 1 0.77272727272727271 1 0.78787878787878785 1 0.80303030303030309 1 0.81818181818181823 1 0.83333333333333337 1 0.84848484848484851 1 0.86363636363636365 1 0.87878787878787878 1 0.89393939393939392 1 0.90909090909090917 1 0.92424242424242431 1 0.93939393939393945 1 0.95454545454545459 1 0.96969696969696972 1 0.98484848484848486 1 1 4
1 6.2831853071795862 0 -1 0 
1 6.2831853071795862 0 0 1 
1 0 0 0 1 
1 6.2831853071795862 7.0000000000001101 -1 0 
1 6.2831853071795862 0 -1 0 
1 6.2831853071795862 0 0 1 
1 0 0 0 1 
1 6.2831853071795862 7.0000000000001101 -1 0 
1 6.2831853071795862 0 -1 0 
1 6.2831853071795862 0 0 1 
1 0 0 0 1 
1 6.2831853071795862 7.0000000000001101 -1 0 
1 6.2831853071795862 0 -1 0 
1 6.2831853071795862 0 0 1 
1 0 0 0 1 
1 6.2831853071795862 7.0000000000001101 -1 0 
1 6.2831853071795862 0 -1 0 
1 6.2831853071795862 0 0 1 
1 0 0 0 1 
1 6.2831853071795862 7.0000000000001101 -1 0 
1 6.2831853071795862 0 -1 0 
1 6.2831853071795862 0 0 1 
1 0 0 0 1 
1 6.2831853071795862 7.0000000000001101 -1 0 
1 3.1415926535897931 0.35355339075171821 1 0 
1 9.4247779607693793 0 0 1 
1 3.1415926535897931 0 0 1 
1 3.1415926535897931 -0.35355339075170933 1 0 
1 3.1415926535897931 -12.699999999551164 -1 0 
1 6.2831853071795862 -0.35355339075170933 1 0 
1 6.2831853071795862 -12.699999999551164 -1 0 
1 7.8539816339744828 -0.35355339075170933 1 0 
1 4.7123889803846897 -12.699999999551164 -1 0 
1 6.2831853071795862 0 -1 0 
1 6.2831853071795862 0 0 1 
1 0 0 0 1 
1 6.2831853071795862 7.0000000000001101 -1 0 
1 6.2831853071795862 0 -1 0 
1 6.2831853071795862 0 0 1 
1 0 0 0 1 
1 6.2831853071795862 5.0000000000001101 -1 0 
1 6.2831853071795862 0 0 1 
1 0 0 0 1 
1 6.2831853071795862 -7.1999999999998892 -1 0 
1 4.7123889803846897 -7.1999999999998892 -1 0 
Curves 46
2 0 1.3877787757388901e-17 -0.49999999999996803 0 0 -1 -0.99969510215656643 0.024692159163838111 0 0.024692159163838111 0.99969510215656643 0 19.999939631099899
1 -19.993841692637599 -0.49384169263771199 -0.50000000000011502 1.8947806286933101e-14 1.9465910365091399e-14 -1 
2 0 1.3877787757388901e-17 -3.5000000000001101 0 0 -1 -0.99969510215656721 -0.024692159163807906 -0 -0.024692159163807906 0.99969510215656721 0 19.999939631099899
7 0 0  1 2 2  -19.999939631099899 1.3877787757388901e-17 -3.5000000000001101  -19.999939631099899 1.3877787757388901e-17 -13.500000000000099 
 -9.6999999999998892 2 0.30000000000010019 2
2 0 1.3877787757388901e-17 -13.500000000000099 0 0 1 -1 2.4492935982947e-16 0 -2.4492935982947e-16 -1 0 19.999939631099899
2 0 1.3877787757388901e-17 -3.5000000000001101 0 0 -1 -1 0 0 0 1 0 19.999939631099899
1 -19.993841692637599 0.49384169263766198 -3.5000000000001101 0 0 1 
7 0 0  3 19 17  -19.9938416926381 0.493841692638193 -3.5000000000001901  -19.983482635093999 0.48348263509412598 -3.4893883133427601  -19.962755460039102 0.46275546003943802 -3.4681709797867799  -19.931678859196499 0.43167885919503701 -3.4364055847927402  -19.900580647634701 0.40058064764020901 -3.4046644943189501  -19.869476187255 0.36947618723424602 -3.37296368008086  -19.838382460547901 0.33838246062562299 -3.3413206688137498  -19.807326902192301 0.30732690190234202 -3.3097634900714601  -19.776333846536701 0.27633384761791002 -3.2783168707364001  -19.745423151627701 0.24542314760129699 -3.24700084897747  -19.7146050173363 0.21460501841283999 -3.2158255713264201  -19.683868905492499 0.18386890520433299 -3.18478019513286  -19.6531947585487 0.15319475862597201 -3.1538443455487899  -19.622558334357699 0.122558334337018 -3.12299357066928  -19.591932187350601 0.091932187356213002 -3.0922003405007801  -19.561299427476801 0.061299427475329703 -3.0614478925175299  -19.5306446981742 0.030644698174548402 -3.0307211086967798  -19.5102179555699 0.0102179555700338 -3.0102783235618902  -19.5000000592471 5.9247095907104102e-08 -3.0000604272496498 
 0 4 0.062142691801737697 1 0.124436417086743 1 0.18686055044664801 1 0.24942590054027899 1 0.31205158075395401 1 0.374706584644527 1 0.43733773404765203 1 0.499881948167131 1 0.56233443844076403 1 0.624699977244215 1 0.68704150256446805 1 0.74941271388377095 1 0.81184482499320498 1 0.87442128136362196 1 0.93713217837321805 1 1 4
7 0 0  3 19 17  -19.9938416926381 -0.49384169263788702 -3.5000000000004499  -19.9834996342355 -0.48349963423542203 -3.4894057270789798  -19.962807671187502 -0.462807671187558 -3.4682244105739501  -19.931779908420499 -0.43177990842048403 -3.4365088236772001  -19.9007330959206 -0.40073309592055001 -3.4048200066420402  -19.869679747130601 -0.36967974713101998 -3.3731710162430399  -19.838633683996999 -0.33863368399537103 -3.3415761646058502  -19.807617243685101 -0.30761724369134402 -3.3100583206396301  -19.776650217317599 -0.27665021729439898 -3.2786376435953501  -19.745748767346299 -0.24574876743292301 -3.24733048775835  -19.714921202034802 -0.21492120201168999 -3.21614517266622  -19.684158944292701 -0.18415894429893501 -3.1850729152099602  -19.653445665524 -0.15344566552230199 -3.1540971796783599  -19.6227616131467 -0.122761613147205 -3.1231980901298102  -19.592084451114399 -0.0920844511142693 -3.0923532908346898  -19.5614004294419 -0.061400429441902098 -3.06154918484369  -19.5306970569521 -0.030697056952091899 -3.03077352487426  -19.510235015909 -0.0102350159090404 -3.01029538393656  -19.5000000592471 -5.9247138931899698e-08 -3.00006042724968 
 0 4 0.062207976843881699 1 0.124539555988708 1 0.18697775006018 1 0.24953125657741301 1 0.31213393427555503 1 0.37476049875277501 1 0.437367599935166 1 0.49990390526796302 1 0.56236554414675999 1 0.62475643384394597 1 0.68712782715354204 1 0.74952337832351201 1 0.81196844869566498 1 0.87453065163892896 1 0.937201808108863 1 1 4
2 0 -1.33226762955019e-15 0 0 0 -1 -1 -5.4714752684939097e-30 -0 -5.4714752684939097e-30 1 0 19.4999396315485
7 0 0  1 2 2  -19.499939631773049 -1.2666043042870691e-15 2.245486296903465e-10  -19.500000000420744 -1.2665401829369448e-15 -6.0368423257101123e-05 
 -0.35355339043499079 2 -0.35346801627459845 2
7 0 0  3 19 17  -19.993841692638199 -0.49384169263824401 -0.50000000000021705  -19.983482633848201 -0.48348263384836299 -0.48938831206648797  -19.962755456299401 -0.46275545629974801 -0.46817097595936802  -19.931678851719401 -0.43167885171794201 -0.436405577153474  -19.900580636414901 -0.40058063642044101 -0.40466448287360002  -19.869476172291101 -0.36947617227031199 -0.37296366483925802  -19.838382441842601 -0.33838244192031403 -0.34132064979010202  -19.807326879755301 -0.30732687946528098 -0.30976346728695398  -19.776333820383599 -0.27633382146476299 -0.27831684421840702  -19.745423121779101 -0.245423117752814 -0.24700081875810201  -19.714604983815398 -0.21460498489193 -0.21582553744063501  -19.683868868319699 -0.183868868031515 -0.184780157612561  -19.653194717739598 -0.153194717817002 -0.15384430442051  -19.6225582899214 -0.12255828989993001 -0.122993525955246  -19.591932139290002 -0.091932139298467899 -0.092200292209654103  -19.561299375788899 -0.061299375776759799 -0.061447840679222897  -19.5306446428588 -0.030644642899148901 -0.030721053242782698  -19.510217897825299 -0.0102178977391918 -0.0102782658942154  -19.500000000280501 -5.6105033256313199e-11 -6.0368563502000102e-05 
 0 4 0.062142691755930998 1 0.12443641701444901 1 0.18686055036458299 1 0.249425900466622 1 0.31205158069649302 1 0.37470658460698902 1 0.43733773402688803 1 0.49988194815175302 1 0.56233443841880004 1 0.62469997720442805 1 0.68704150250380402 1 0.74941271380624097 1 0.81184482490679999 1 0.87442128128741903 1 0.93713217832489504 1 1 4
7 0 0  3 19 17  -19.500000000280501 5.610033248419e-11 -6.0368563501334003e-05  -19.5102178978252 0.0102178977390909 -0.0102782658941206  -19.530644642858501 0.030644642898847701 -0.030721053242488701  -19.561299375788298 0.061299375776186597 -0.061447840678653699  -19.591932139289199 0.091932139297598803 -0.092200292208788406  -19.622558289920299 0.12255828989878299 -0.122993525954101  -19.653194717738099 0.153194717815582 -0.153844304419091  -19.6838688683181 0.18386886802987501 -0.18478015761092401  -19.714604983813601 0.21460498489016 -0.215825537438839  -19.7454231217773 0.245423117750972 -0.24700081875626301  -19.776333820381801 0.27633382146298402 -0.27831684421661101  -19.807326879753699 0.30732687946364901 -0.30976346728530701  -19.838382441841201 0.33838244191889599 -0.34132064978867599  -19.86947617229 0.36947617226916402 -0.37296366483809201  -19.900580636413999 0.40058063641957697 -0.40466448287273898  -19.9316788517188 0.43167885171737203 -0.43640557715289102  -19.962755456299099 0.46275545629944798 -0.46817097595907697  -19.983482633848102 0.48348263384825801 -0.48938831206639499  -19.993841692638199 0.49384169263823602 -0.50000000000021605 
 0 4 0.062867821675498994 1 0.12557871871317799 1 0.188155175093878 1 0.25058728619436799 1 0.31295849749666299 1 0.37530002279588998 1 0.43766556158137199 1 0.50011805184837099 1 0.56266226597328906 1 0.62529341539331695 1 0.68794841930397399 1 0.75057409953397103 1 0.81313944963606799 1 0.87556358298613401 1 0.93785730824443103 1 1 4
2 11.13693180369 11.136931803688199 0 0 0 1 -1 0 0 0 -1 0 2.4999999999999498
7 0 0  1 2 2  8.6369318036900502 11.136931803688199 0  8.6369318036900502 11.136931803688199 -7.0000000000001101 
 0 2 7.0000000000001101 2
2 11.13693180369 11.136931803688199 -7.0000000000001101 0 0 1 -1 0 0 0 -1 0 2.4999999999999498
2 -11.13693180369 11.136931803688199 0 0 0 1 -1 0 0 0 -1 0 2.4999999999999498
7 0 0  1 2 2  -13.636931803689951 11.136931803688199 0  -13.636931803689951 11.136931803688199 -7.0000000000001101 
 0 2 7.0000000000001101 2
2 -11.13693180369 11.136931803688199 -7.0000000000001101 0 0 1 -1 0 0 0 -1 0 2.4999999999999498
2 15.75 -3.0198066269804302e-14 0 0 0 1 -1 0 0 0 -1 0 2.4999999999999498
7 0 0  1 2 2  13.25000000000005 -3.0343783041836702e-14 0  13.25000000000005 -3.0343783041836702e-14 -7.0000000000001101 
 0 2 7.0000000000001101 2
2 15.75 -3.0343783041836702e-14 -7.0000000000001101 0 0 1 -1 0 0 0 -1 0 2.4999999999999498
2 11.13693180369 -11.1369318036881 0 0 0 1 -1 0 0 0 -1 0 2.4999999999999498
7 0 0  1 2 2  8.6369318036900502 -11.1369318036881 0  8.6369318036900502 -11.1369318036881 -7.0000000000001101 
 0 2 7.0000000000001101 2
2 11.13693180369 -11.1369318036881 -7.0000000000001101 0 0 1 -1 0 0 0 -1 0 2.4999999999999498
2 0 -15.75 0 0 0 1 -1 0 0 0 -1 0 2.4999999999999498
7 0 0  1 2 2  -2.4999999999999498 -15.75 0  -2.4999999999999498 -15.75 -7.0000000000001101 
 0 2 7.0000000000001101 2
2 0 -15.75 -7.0000000000001101 0 0 1 -1 0 0 0 -1 0 2.4999999999999498
2 -11.13693180369 -11.1369318036881 0 0 0 1 -1 0 0 0 -1 0 2.4999999999999498
7 0 0  1 2 2  -13.636931803689951 -11.1369318036881 0  -13.636931803689951 -11.1369318036881 -7.0000000000001101 
 0 2 7.0000000000001101 2
2 -11.13693180369 -11.1369318036881 -7.0000000000001101 0 0 1 -1 0 0 0 -1 0 2.4999999999999498
2 0 0 0 0 0 1 1 -2.4492935982947e-16 0 2.4492935982947e-16 1 -0 10.4999999999993
7 0 0  1 2 2  10.00000000022423 -4.7666268765500814e-15 -0.50000000067306627  10.499999999999575 -5.0115501694707595e-15 -2.7555735471196385e-13 
 -0.35355339075170933 2 0.35355339075171821 2
2 0 1.3877787757388901e-17 -0.50000000044883597 0 0 1 1 1.22464679914735e-16 -0 -1.22464679914735e-16 1 0 10
2 0 1.3877787757388901e-17 -0.50000000044883597 0 0 1 -1 0 0 0 -1 0 10
2 0 1.3877787757388901e-17 -0.50000000044883597 0 0 1 1.8369701987210299e-16 -1 0 1 1.8369701987210299e-16 -0 10
2 0 15.75 0 0 0 1 -1 0 0 0 -1 0 2.4999999999999498
7 0 0  1 2 2  -2.4999999999999498 15.75 0  -2.4999999999999498 15.75 -7.0000000000001101 
 0 2 7.0000000000001101 2
2 0 15.75 -7.0000000000001101 0 0 1 -1 0 0 0 -1 0 2.4999999999999498
2 -15.75 1.15463194561016e-14 0 0 0 1 -1 0 0 0 -1 0 2.4999999999999498
7 0 0  1 2 2  -18.24999999999995 1.17232612506009e-14 0  -18.24999999999995 1.17232612506009e-14 -5.0000000000001101 
 0 2 5.0000000000001101 2
2 -15.75 1.17232612506009e-14 -5.0000000000001101 0 0 1 -1 0 0 0 -1 0 2.4999999999999498
7 0 0  1 2 2  -10 1.3877787757388901e-17 -0.50000000044883564  -10 1.3877787757388901e-17 -6.0000000000001101 
 -12.699999999551164 2 -7.1999999999998892 2
2 0 0 -6.0000000000001101 0 0 1 -1 0 0 0 -1 0 10
2 0 0 -6.0000000000001101 0 0 1 -6.1232339957367697e-17 -1 0 1 -6.1232339957367697e-17 0 10
1 -19.5 1.7047386448162099e-14 -3.0000604570974501 -1.89478057284699e-14 -6.8561796907700199e-15 1 
Polygon3D 0
PolygonOnTriangulations 0
Surfaces 26
10 0 6.2831853071795862 -12.700000000000031 0.30000000000010019
2 0 1.3877787757388901e-17 -13.199999999999999 0 0 -1 -1 0 0 0 1 0 19.999939631099899
10 0 6.2831853071795862 -0.35355339043499079 0.35355339043494149
3 6.4107214093974297e-16 -1.0010635290509701e-15 -0.249999999887905 -2.5642885625986999e-15 1.06216310046662e-15 -1 -1 -2.7236926901409098e-30 2.5642885625986999e-15 1.7516230804060213e-44 1 1.06216310046662e-15 19.749939631436799
0.78539816250014205
1 -22.5 -3.0000000000000102 2.7999999999999501 -0.70710678118654757 0.70710678118654757 0 -0.70710678118654757 -0.70710678118654757 0 0 0 1 
3 0 -7.3552275381416502e-16 -3.2500302136250201 0 0 -1 -1 0 0 0 1 0 19.749969845173801
0.78539816249999805
1 0 0 -13.500000000000099 0 0 -1 -1 0 0 0 1 0 
1 -19.5 0 2.7999999999999501 -0.70710678118654702 -0.70710678118654802 0 0.70710678118654802 -0.70710678118654702 0 0 0 1 
1 9.2387953251100008 -3.8268343236508899 0 0 0 -1 -1 0 0 0 1 0 
10 0 6.2831853071795862 0 7.0000000000001101
2 11.13693180369 11.136931803688199 0 0 0 -1 -1 0 0 0 1 0 2.4999999999999498
1 11.13693180369 11.136931803688199 -7.0000000000001101 0 0 -1 -1 0 0 0 1 0 
10 0 6.2831853071795862 0 7.0000000000001101
2 -11.13693180369 11.136931803688199 0 0 0 -1 -1 0 0 0 1 0 2.4999999999999498
1 -11.13693180369 11.136931803688199 -7.0000000000001101 0 0 -1 -1 0 0 0 1 0 
10 0 6.2831853071795862 0 7.0000000000001101
2 15.75 -3.0343783041836702e-14 0 0 0 -1 -1 0 0 0 1 0 2.4999999999999498
1 15.75 0 -7.0000000000001101 0 0 -1 -1 0 0 0 1 0 
10 0 6.2831853071795862 0 7.0000000000001101
2 11.13693180369 -11.1369318036881 0 0 0 -1 -1 0 0 0 1 0 2.4999999999999498
1 11.13693180369 -11.1369318036881 -7.0000000000001101 0 0 -1 -1 0 0 0 1 0 
10 0 6.2831853071795862 0 7.0000000000001101
2 0 -15.75 0 0 0 -1 -1 0 0 0 1 0 2.4999999999999498
1 0 -15.75 -7.0000000000001101 0 0 -1 -1 0 0 0 1 0 
10 0 6.2831853071795862 0 7.0000000000001101
2 -11.13693180369 -11.1369318036881 0 0 0 -1 -1 0 0 0 1 0 2.4999999999999498
1 -11.13693180369 -11.1369318036881 -7.0000000000001101 0 0 -1 -1 0 0 0 1 0 
10 3.1415926535897931 9.4247779607693793 -0.35355339075170933 0.35355339075171821
3 0 1.3183898417423899e-16 -0.25000000033667402 0 0 1 -1 1.22464679914735e-16 0 -1.22464679914735e-16 -1 0 10.2500000001119
0.78539816250000305
10 0 6.2831853071795862 -12.699999999551164 -7.1999999999998892
2 0 1.3877787757388901e-17 -13.199999999999999 0 0 -1 -1 0 0 0 1 0 10
10 0 6.2831853071795862 0 7.0000000000001101
2 0 15.75 0 0 0 -1 -1 0 0 0 1 0 2.4999999999999498
1 0 15.75 -7.0000000000001101 0 0 -1 -1 0 0 0 1 0 
10 0 6.2831853071795862 0 5.0000000000001101
2 -15.75 1.17232612506009e-14 0 0 0 -1 -1 0 0 0 1 0 2.4999999999999498
1 -15.75 0 -5.0000000000001101 0 0 -1 -1 0 0 0 1 0 
1 4.61939766256 -1.9134171618254401 -6.0000000000001101 0 0 -1 -1 0 0 0 1 0 
Triangulations 0

TShapes 143
Ve
1e-07
-19.9938416926382 -0.493841692638277 -0.500000000000114
0 0

0101101
*
Ve
1e-07
-19.9938416926382 0.493841692638273 -0.500000000000114
0 0

0101101
*
Ed
 1e-07 1 1 0
1  1 0 0 6.23379596918232
2  1 1 0 0 6.23379596918232
2  2 2 0 0 6.23379596918232
4 C0 1 0 2 0
0

0101000
-143 0 +142 0 *
Ve
1e-07
-19.9938416926377 -0.49384169263773 -3.50000000000041
0 0

0101101
*
Ed
 1e-07 1 1 0
1  2 0 -9.99200722185015e-16 3.00000000000029
2  3 1 0 -9.99200722185015e-16 3.00000000000029
4 C0 1 0 3 0
0

0101000
+143 0 -140 0 *
Ve
1e-05
-19.9999396311 -3.50163733308205e-15 -3.50000000000011
0 0

0101101
*
Ed
 1e-07 1 1 0
1  3 0 0 0.0246946689986006
2  4 1 0 0 0.0246946689986006
2  5 4 0 0 0.0246946689986006
4 C0 1 0 4 0
0

0101000
+140 0 -138 0 *
Ve
1e-05
-19.9999396310999 8.3030652283628e-16 -13.5000000000001
0 0

0101101
*
Ed
 1e-05 1 1 0
1  4 0 -9.69999999999989 0.3000000000001
3  6 7CN 1 0 -9.69999999999989 0.3000000000001
0

0101000
+138 0 -136 0 *
Ed
 1e-07 1 1 0
1  5 0 0 6.28318530717959
2  8 1 0 0 6.28318530717959
4 C0 1 0 5 0
0

0101000
+136 0 -136 0 *
Ve
1e-07
-19.9938416926382 0.493841692638273 -3.50000000000011
0 0

0101101
*
Ed
 1e-07 1 1 0
1  6 0 0 0.0246946689986302
2  9 1 0 0 0.0246946689986302
2  10 4 0 0 0.0246946689986302
4 C0 1 0 4 0
0

0101000
+138 0 -133 0 *
Ed
 1e-07 1 1 0
1  7 0 0 3
2  11 1 0 0 3
4 C0 1 0 6 0
0

0101000
+133 0 -142 0 *
Wi

0101100
+141 0 +139 0 +137 0 +135 0 +134 0 -135 0 +132 0 +131 0 *
Fa
0  1e-07 1 0

0101000
+130 0 *
Ve
1e-07
-19.5000000886464 -8.60357549449952e-15 -3.00006045709745
0 0

0101101
*
Ed
 1e-07 1 1 0
1  8 0 0 1
2  12 4 0 0 1
4 C0 4 0 6 0
0

0101000
+133 0 -128 0 *
Ed
 1e-07 1 1 0
1  9 0 0 1
2  13 4 0 0 1
4 C0 4 0 3 0
0

0101000
+140 0 -128 0 *
Wi

0101100
-127 0 -132 0 -137 0 +126 0 *
Fa
0  1e-07 4 0

0111000
+125 0 *
Ve
1e-05
-19.4999396316982 -3.69469154100772e-15 1.49698327807831e-10
0 0

0101101
*
Ed
 1e-07 1 1 0
1  10 0 0 6.28318530717959
2  14 2 0 0 6.28318530717959
4 C0 2 0 7 0
0

0101000
+123 0 -123 0 *
Ve
1e-05
-19.5000000002525 -2.96913169872412e-15 -6.03685635078288e-05
0 0

0101101
*
Ed
 1e-05 1 1 0
1  11 0 -0.353553390434991 -0.353468016274598
3  15 16CN 2 0 -0.353553390434991 -0.353468016274598
0

0101000
+123 0 -121 0 *
Ed
 1e-07 1 1 0
1  12 0 0 1
2  17 2 0 0 1
4 C0 2 0 3 0
0

0101000
-121 0 +143 0 *
Ed
 1e-07 1 1 0
1  13 0 0 1
2  18 2 0 0 1
4 C0 2 0 6 0
0

0101000
-142 0 +121 0 *
Wi

0101100
+122 0 +120 0 -119 0 -141 0 -118 0 -120 0 *
Fa
0  1e-07 2 0

0111000
+117 0 *
Ve
1e-05
8.63693180369005 11.1369318036882 0
0 0

0101101
*
Ed
 1e-07 1 1 0
1  14 0 0 6.28318530717959
2  19 8 0 0 6.28318530717959
4 C0 8 0 7 0
0

0101000
-115 0 +115 0 *
Ve
1e-05
8.63693180369005 11.1369318036882 -7.00000000000011
0 0

0101101
*
Ed
 1e-05 1 1 0
1  15 0 0 7.00000000000011
3  20 21CN 8 0 0 7.00000000000011
0

0101000
+115 0 -113 0 *
Ed
 1e-07 1 1 0
1  16 0 0 6.28318530717959
2  22 8 0 0 6.28318530717959
4 C0 8 0 9 0
0

0101000
+113 0 -113 0 *
Wi

0101100
-114 0 +112 0 +111 0 -112 0 *
Fa
0  1e-07 8 0

0111000
+110 0 *
Ve
1e-05
-13.63693180369 11.1369318036882 0
0 0

0101101
*
Ed
 1e-07 1 1 0
1  17 0 0 6.28318530717959
2  23 10 0 0 6.28318530717959
4 C0 10 0 7 0
0

0101000
-108 0 +108 0 *
Ve
1e-05
-13.63693180369 11.1369318036882 -7.00000000000011
0 0

0101101
*
Ed
 1e-05 1 1 0
1  18 0 0 7.00000000000011
3  24 25CN 10 0 0 7.00000000000011
0

0101000
+108 0 -106 0 *
Ed
 1e-07 1 1 0
1  19 0 0 6.28318530717959
2  26 10 0 0 6.28318530717959
4 C0 10 0 11 0
0

0101000
+106 0 -106 0 *
Wi

0101100
-107 0 +105 0 +104 0 -105 0 *
Fa
0  1e-07 10 0

0111000
+103 0 *
Ve
1e-05
13.25 -3.04253037160421e-14 0
0 0

0101101
*
Ed
 1e-07 1 1 0
1  20 0 0 6.28318530717959
2  27 12 0 0 6.28318530717959
4 C0 12 0 7 0
0

0101000
-101 0 +101 0 *
Ve
1e-05
13.25 -3.04458369417656e-14 -7.00000000000011
0 0

0101101
*
Ed
 1e-05 1 1 0
1  21 0 0 7.00000000000011
3  28 29CN 12 0 0 7.00000000000011
0

0101000
+101 0 -99 0 *
Ed
 1e-07 1 1 0
1  22 0 0 6.28318530717959
2  30 12 0 0 6.28318530717959
4 C0 12 0 13 0
0

0101000
+99 0 -99 0 *
Wi

0101100
-100 0 +98 0 +97 0 -98 0 *
Fa
0  1e-07 12 0

0111000
+96 0 *
Ve
1e-05
8.63693180369005 -11.1369318036881 0
0 0

0101101
*
Ed
 1e-07 1 1 0
1  23 0 0 6.28318530717959
2  31 14 0 0 6.28318530717959
4 C0 14 0 7 0
0

0101000
-94 0 +94 0 *
Ve
1e-05
8.63693180369005 -11.1369318036881 -7.00000000000011
0 0

0101101
*
Ed
 1e-05 1 1 0
1  24 0 0 7.00000000000011
3  32 33CN 14 0 0 7.00000000000011
0

0101000
+94 0 -92 0 *
Ed
 1e-07 1 1 0
1  25 0 0 6.28318530717959
2  34 14 0 0 6.28318530717959
4 C0 14 0 15 0
0

0101000
+92 0 -92 0 *
Wi

0101100
-93 0 +91 0 +90 0 -91 0 *
Fa
0  1e-07 14 0

0111000
+89 0 *
Ve
1e-05
-2.49999999999995 -15.75 0
0 0

0101101
*
Ed
 1e-07 1 1 0
1  26 0 0 6.28318530717959
2  35 16 0 0 6.28318530717959
4 C0 16 0 7 0
0

0101000
-87 0 +87 0 *
Ve
1e-05
-2.49999999999995 -15.75 -7.00000000000011
0 0

0101101
*
Ed
 1e-05 1 1 0
1  27 0 0 7.00000000000011
3  36 37CN 16 0 0 7.00000000000011
0

0101000
+87 0 -85 0 *
Ed
 1e-07 1 1 0
1  28 0 0 6.28318530717959
2  38 16 0 0 6.28318530717959
4 C0 16 0 17 0
0

0101000
+85 0 -85 0 *
Wi

0101100
-86 0 +84 0 +83 0 -84 0 *
Fa
0  1e-07 16 0

0111000
+82 0 *
Ve
1e-05
-13.63693180369 -11.1369318036881 0
0 0

0101101
*
Ed
 1e-07 1 1 0
1  29 0 0 6.28318530717959
2  39 18 0 0 6.28318530717959
4 C0 18 0 7 0
0

0101000
-80 0 +80 0 *
Ve
1e-05
-13.63693180369 -11.1369318036881 -7.00000000000011
0 0

0101101
*
Ed
 1e-05 1 1 0
1  30 0 0 7.00000000000011
3  40 41CN 18 0 0 7.00000000000011
0

0101000
+80 0 -78 0 *
Ed
 1e-07 1 1 0
1  31 0 0 6.28318530717959
2  42 18 0 0 6.28318530717959
4 C0 18 0 19 0
0

0101000
+78 0 -78 0 *
Wi

0101100
-79 0 +77 0 +76 0 -77 0 *
Fa
0  1e-07 18 0

0111000
+75 0 *
Ve
1e-05
10.4999999999995 -3.81613325164336e-15 -1.85333230244093e-13
0 0

0101101
*
Ed
 1e-07 1 1 0
1  32 0 0 6.28318530717959
2  43 20 0 0 6.28318530717959
4 C0 20 0 7 0
0

0101000
-73 0 +73 0 *
Ve
1e-05
10.0000000001495 -1.94855941326522e-15 -0.500000000598325
0 0

0101101
*
Ed
 1e-05 1 1 0
1  33 0 -0.353553390751709 0.353553390751718
3  44 45CN 20 0 -0.353553390751709 0.353553390751718
0

0101000
-73 0 +71 0 *
Ve
1e-05
-10.0000000001494 4.61413786333707e-16 -0.500000000448949
0 0

0101101
*
Ed
 1e-07 1 1 0
1  34 0 0 3.14159265358979
2  46 20 0 0 3.14159265358979
2  47 21 0 0 3.14159265358979
4 C0 20 0 21 0
0

0101000
-69 0 +71 0 *
Ve
1e-07
-1.22464679919541e-15 -10.0000000001121 -0.500000000560952
0 0

0101101
*
Ed
 1e-07 1 1 0
1  35 0 0 1.5707963267949
2  48 20 0 0 1.5707963267949
2  49 21 0 0 1.5707963267949
4 C0 20 0 21 0
0

0101000
-67 0 +69 0 *
Ed
 1e-07 1 1 0
1  36 0 0 1.5707963267949
2  50 20 0 0 1.5707963267949
2  51 21 0 0 1.5707963267949
4 C0 20 0 21 0
0

0101000
-71 0 +67 0 *
Wi

0101100
-72 0 -70 0 +68 0 +66 0 +65 0 +70 0 *
Fa
0  1e-07 20 0

0101000
+64 0 *
Ve
1e-05
-2.49999999999995 15.75 0
0 0

0101101
*
Ed
 1e-07 1 1 0
1  37 0 0 6.28318530717959
2  52 22 0 0 6.28318530717959
4 C0 22 0 7 0
0

0101000
-62 0 +62 0 *
Ve
1e-05
-2.49999999999995 15.75 -7.00000000000011
0 0

0101101
*
Ed
 1e-05 1 1 0
1  38 0 0 7.00000000000011
3  53 54CN 22 0 0 7.00000000000011
0

0101000
+62 0 -60 0 *
Ed
 1e-07 1 1 0
1  39 0 0 6.28318530717959
2  55 22 0 0 6.28318530717959
4 C0 22 0 23 0
0

0101000
+60 0 -60 0 *
Wi

0101100
-61 0 +59 0 +58 0 -59 0 *
Fa
0  1e-07 22 0

0111000
+57 0 *
Ve
1e-05
-18.25 1.15341877208849e-14 0
0 0

0101101
*
Ed
 1e-07 1 1 0
1  40 0 0 6.28318530717959
2  56 24 0 0 6.28318530717959
4 C0 24 0 7 0
0

0101000
-55 0 +55 0 *
Ve
1e-05
-18.25 1.1621207350672e-14 -5.00000000000011
0 0

0101101
*
Ed
 1e-05 1 1 0
1  41 0 0 5.00000000000011
3  57 58CN 24 0 0 5.00000000000011
0

0101000
+55 0 -53 0 *
Ed
 1e-07 1 1 0
1  42 0 0 6.28318530717959
2  59 24 0 0 6.28318530717959
4 C0 24 0 25 0
0

0101000
+53 0 -53 0 *
Wi

0101100
-54 0 +52 0 +51 0 -52 0 *
Fa
0  1e-07 24 0

0111000
+50 0 *
Ve
1e-05
-10 -3.63090131076581e-16 -6.00000000000023
0 0

0101101
*
Ed
 1e-05 1 1 0
1  43 0 -12.6999999995512 -7.19999999999989
3  60 61CN 21 0 -12.6999999995512 -7.19999999999989
0

0101000
+69 0 -48 0 *
Ve
1e-07
4.74395889510452e-16 -10 -6.00000000000011
0 0

0101101
*
Ed
 1e-07 1 1 0
1  44 0 0 1.5707963267949
2  62 21 0 0 1.5707963267949
4 C0 21 0 26 0
0

0101000
+48 0 -46 0 *
Ed
 1e-07 1 1 0
1  45 0 0 4.71238898038469
2  63 21 0 0 4.71238898038469
4 C0 21 0 26 0
0

0101000
+46 0 -48 0 *
Wi

0101100
-65 0 -66 0 +47 0 +45 0 +44 0 -47 0 -68 0 *
Fa
0  1e-07 21 0

0111000
+43 0 *
Ed
 1e-07 1 1 0
1  46 0 1.67965491631974e-21 3.00000008853394
4 C0 6 0 3 0
0

0101000
+128 0 -121 0 *
Wi

0101100
+41 0 +118 0 -131 0 +127 0 *
Fa
0  1e-07 6 0

0111000
+40 0 *
Wi

0101100
-41 0 -126 0 -139 0 +119 0 *
Fa
0  1e-07 3 0

0111000
+38 0 *
Wi

0101100
-134 0 *
Fa
0  1e-07 5 0

0111000
+36 0 *
Wi

0101100
-122 0 *
Wi

0101100
-114 0 *
Wi

0101100
-107 0 *
Wi

0101100
-100 0 *
Wi

0101100
-93 0 *
Wi

0101100
-86 0 *
Wi

0101100
-79 0 *
Wi

0101100
-72 0 *
Wi

0101100
-61 0 *
Wi

0101100
-54 0 *
Fa
0  1e-07 7 0

0111000
-34 0 -33 0 -32 0 -31 0 -30 0 -29 0 -28 0 -27 0 -26 0 -25 0 
*
Wi

0101100
+111 0 *
Fa
0  1e-07 9 0

0111000
-23 0 *
Wi

0101100
+104 0 *
Fa
0  1e-07 11 0

0111000
-21 0 *
Wi

0101100
+97 0 *
Fa
0  1e-07 13 0

0111000
-19 0 *
Wi

0101100
+90 0 *
Fa
0  1e-07 15 0

0111000
-17 0 *
Wi

0101100
+83 0 *
Fa
0  1e-07 17 0

0111000
-15 0 *
Wi

0101100
+76 0 *
Fa
0  1e-07 19 0

0111000
-13 0 *
Wi

0101100
+58 0 *
Fa
0  1e-07 23 0

0111000
-11 0 *
Wi

0101100
+51 0 *
Fa
0  1e-07 25 0

0111000
-9 0 *
Wi

0101100
+45 0 +44 0 *
Fa
0  1e-07 26 0

0111000
-7 0 *
Sh

0101100
+129 0 +124 0 +116 0 -109 0 -102 0 -95 0 -88 0 -81 0 -74 0 -63 0 
-56 0 -49 0 -42 0 +39 0 +37 0 +35 0 -24 0 -22 0 -20 0 -18 0 
-16 0 -14 0 -12 0 -10 0 -8 0 -6 0 *
So

0100000
+5 0 *
Ve
1e-07
0 0 0
0 0

0101101
*
Co

0100000
+3 0 *
Co

1100000
+4 0 +2 0 *

+1 0 