ISO-10303-21;
HEADER;
FILE_DESCRIPTION(('STEP AP242'),
    '1');
FILE_NAME('EE_WP-500',
    '2026-09-28T12:29:22',
    ('vano888888@gmail.com'),
    (''),
    'C3D Converter',
    'C3D Toolkit',
    '');
/**/
FILE_SCHEMA(('AP242_MANAGED_MODEL_BASED_3D_ENGINEERING_MIM_LF { 1 0 10303 442 1 1 4 }'));
ENDSEC;

DATA;
#1=PRODUCT_DEFINITION('','UNSPECIFIED',#15,#18);
#2=SHAPE_DEFINITION_REPRESENTATION(#13,#3);
#3=SHAPE_REPRESENTATION('NONE',(#4,#35,#99),#8);
#4=AXIS2_PLACEMENT_3D('',#5,#6,#7);
#5=CARTESIAN_POINT('',(0.,0.,0.));
#6=DIRECTION('',(0.,0.,1.));
#7=DIRECTION('',(1.,0.,0.));
#8=(GEOMETRIC_REPRESENTATION_CONTEXT(3)GLOBAL_UNCERTAINTY_ASSIGNED_CONTEXT((#10))
GLOBAL_UNIT_ASSIGNED_CONTEXT((#9,#11,#12))REPRESENTATION_CONTEXT('NONE','NONE'));
#9=(LENGTH_UNIT()NAMED_UNIT(*)SI_UNIT(.MILLI.,.METRE.));
#10=UNCERTAINTY_MEASURE_WITH_UNIT(LENGTH_MEASURE(1.E-5),#9,'NONE','NONE');
#11=(NAMED_UNIT(*)PLANE_ANGLE_UNIT()SI_UNIT($,.RADIAN.));
#12=(NAMED_UNIT(*)SI_UNIT($,.STERADIAN.)SOLID_ANGLE_UNIT());
#13=PRODUCT_DEFINITION_SHAPE('NONE','NONE',#1);
#14=MECHANICAL_CONTEXT('NONE',#19,'mechanical');
#15=PRODUCT_DEFINITION_FORMATION_WITH_SPECIFIED_SOURCE('ANY','UNSPECIFIED',#16,.NOT_KNOWN.);
#16=PRODUCT('','EE_WP-500','NONE',(#14));
#17=PRODUCT_RELATED_PRODUCT_CATEGORY('assembly','',(#16));
#18=DESIGN_CONTEXT('detailed design',#19,'design');
#19=APPLICATION_CONTEXT('configuration controlled 3d designs of mechanical parts and assemblies');
#20=APPLICATION_PROTOCOL_DEFINITION('international standard','config_control_design',
1994,#19);
#21=CC_DESIGN_DATE_AND_TIME_ASSIGNMENT(#22,#26,(#1));
#22=DATE_AND_TIME(#23,#24);
#23=CALENDAR_DATE(0,1,1);
#24=LOCAL_TIME(0,0,0.,#25);
#25=COORDINATED_UNIVERSAL_TIME_OFFSET(0,0,.AHEAD.);
#26=DATE_TIME_ROLE('creation_date');
#27=CC_DESIGN_APPROVAL(#28,(#1));
#28=APPROVAL(#29,'UNSPECIFIED');
#29=APPROVAL_STATUS('not_yet_approved');
#30=APPROVAL_DATE_TIME(#31,#28);
#31=DATE_AND_TIME(#32,#33);
#32=CALENDAR_DATE(0,1,1);
#33=LOCAL_TIME(0,0,0.,#34);
#34=COORDINATED_UNIVERSAL_TIME_OFFSET(0,0,.AHEAD.);
#35=AXIS2_PLACEMENT_3D('',#36,#37,#38);
#36=CARTESIAN_POINT('',(0.,0.,0.));
#37=DIRECTION('',(6.12323399573677E-17,1.,6.12323399573677E-17));
#38=DIRECTION('',(-1.,6.12323399573677E-17,3.74939945665464E-33));
#39=PRODUCT_DEFINITION('','UNSPECIFIED',#57,#60);
#40=SHAPE_DEFINITION_REPRESENTATION(#55,#41);
#41=SHAPE_REPRESENTATION('NONE',(#4),#8);
#42=MANIFOLD_SOLID_BREP('',#43);
#43=CLOSED_SHELL('',(#162,#163,#164,#165,#166,#167,#168,#169,#170,#171,#172,#173,
#174,#175,#176,#177,#178,#179,#180,#181,#182,#183,#184,#185,#186,#187,#188,#189,
#190,#191));
#44=COLOUR_RGB('',0.564705882352941,0.564705882352941,0.564705882352941);
#45=FILL_AREA_STYLE_COLOUR('',#44);
#46=FILL_AREA_STYLE($,(#45));
#47=SURFACE_STYLE_FILL_AREA(#46);
#48=SURFACE_SIDE_STYLE('',(#47));
#49=SURFACE_STYLE_USAGE(.BOTH.,#48);
#50=PRESENTATION_STYLE_ASSIGNMENT((#49));
#51=MECHANICAL_DESIGN_GEOMETRIC_PRESENTATION_REPRESENTATION('NONE',(#52,#115),#8);
#52=STYLED_ITEM('',(#50),#42);
#53=ADVANCED_BREP_SHAPE_REPRESENTATION('NONE',(#42),#8);
#54=SHAPE_REPRESENTATION_RELATIONSHIP('','',#41,#53);
#55=PRODUCT_DEFINITION_SHAPE('NONE','NONE',#39);
#56=MECHANICAL_CONTEXT('NONE',#61,'mechanical');
#57=PRODUCT_DEFINITION_FORMATION_WITH_SPECIFIED_SOURCE('ANY','UNSPECIFIED',#58,.NOT_KNOWN.);
#58=PRODUCT('','Adapter-WP-500','NONE',(#56));
#59=PRODUCT_RELATED_PRODUCT_CATEGORY('detail','',(#58));
#60=DESIGN_CONTEXT('detailed design',#61,'design');
#61=APPLICATION_CONTEXT('configuration controlled 3d designs of mechanical parts and assemblies');
#62=APPLICATION_PROTOCOL_DEFINITION('international standard','config_control_design',
1994,#61);
#63=CC_DESIGN_DATE_AND_TIME_ASSIGNMENT(#64,#68,(#39));
#64=DATE_AND_TIME(#65,#66);
#65=CALENDAR_DATE(0,1,1);
#66=LOCAL_TIME(0,0,0.,#67);
#67=COORDINATED_UNIVERSAL_TIME_OFFSET(0,0,.AHEAD.);
#68=DATE_TIME_ROLE('creation_date');
#69=CC_DESIGN_APPROVAL(#70,(#39));
#70=APPROVAL(#71,'UNSPECIFIED');
#71=APPROVAL_STATUS('not_yet_approved');
#72=APPROVAL_DATE_TIME(#73,#70);
#73=DATE_AND_TIME(#74,#75);
#74=CALENDAR_DATE(0,1,1);
#75=LOCAL_TIME(0,0,0.,#76);
#76=COORDINATED_UNIVERSAL_TIME_OFFSET(0,0,.AHEAD.);
#77=ITEM_DEFINED_TRANSFORMATION('','',#4,#35);
#78=(REPRESENTATION_RELATIONSHIP('','',#41,#3)REPRESENTATION_RELATIONSHIP_WITH_TRANSFORMATION(
#77)SHAPE_REPRESENTATION_RELATIONSHIP());
#79=NEXT_ASSEMBLY_USAGE_OCCURRENCE('ANY','EE_WP-500','',#1,#39,'');
#80=CC_DESIGN_SECURITY_CLASSIFICATION(#81,(#79));
#81=SECURITY_CLASSIFICATION('','',#82);
#82=SECURITY_CLASSIFICATION_LEVEL('unclassified');
#83=CC_DESIGN_DATE_AND_TIME_ASSIGNMENT(#84,#88,(#81));
#84=DATE_AND_TIME(#85,#86);
#85=CALENDAR_DATE(0,1,1);
#86=LOCAL_TIME(0,0,0.,#87);
#87=COORDINATED_UNIVERSAL_TIME_OFFSET(0,0,.AHEAD.);
#88=DATE_TIME_ROLE('classification_date');
#89=CC_DESIGN_APPROVAL(#90,(#81));
#90=APPROVAL(#91,'UNSPECIFIED');
#91=APPROVAL_STATUS('not_yet_approved');
#92=APPROVAL_DATE_TIME(#93,#90);
#93=DATE_AND_TIME(#94,#95);
#94=CALENDAR_DATE(0,1,1);
#95=LOCAL_TIME(0,0,0.,#96);
#96=COORDINATED_UNIVERSAL_TIME_OFFSET(0,0,.AHEAD.);
#97=PRODUCT_DEFINITION_SHAPE('NONE','NONE',#79);
#98=CONTEXT_DEPENDENT_SHAPE_REPRESENTATION(#78,#97);
#99=AXIS2_PLACEMENT_3D('',#100,#101,#102);
#100=CARTESIAN_POINT('',(3.81614406400753E-15,1.27163422615564E-15,41.));
#101=DIRECTION('',(-0.110060724140984,0.993924864867341,-3.12275346381772E-17));
#102=DIRECTION('',(-2.78119074086856E-16,-6.2215488831593E-17,-1.));
#103=PRODUCT_DEFINITION('','UNSPECIFIED',#120,#123);
#104=SHAPE_DEFINITION_REPRESENTATION(#118,#105);
#105=SHAPE_REPRESENTATION('NONE',(#4),#8);
#106=MANIFOLD_SOLID_BREP('',#107);
#107=CLOSED_SHELL('',(#192,#193,#194,#195,#196,#197,#198,#199,#200,#201,#202,#203,
#204,#205,#206,#207,#208,#209,#210,#211,#212,#213,#214,#215,#216));
#108=COLOUR_RGB('',0.564705882352941,0.564705882352941,0.564705882352941);
#109=FILL_AREA_STYLE_COLOUR('',#108);
#110=FILL_AREA_STYLE($,(#109));
#111=SURFACE_STYLE_FILL_AREA(#110);
#112=SURFACE_SIDE_STYLE('',(#111));
#113=SURFACE_STYLE_USAGE(.BOTH.,#112);
#114=PRESENTATION_STYLE_ASSIGNMENT((#113));
#115=STYLED_ITEM('',(#114),#106);
#116=ADVANCED_BREP_SHAPE_REPRESENTATION('NONE',(#106),#8);
#117=SHAPE_REPRESENTATION_RELATIONSHIP('','',#105,#116);
#118=PRODUCT_DEFINITION_SHAPE('NONE','NONE',#103);
#119=MECHANICAL_CONTEXT('NONE',#124,'mechanical');
#120=PRODUCT_DEFINITION_FORMATION_WITH_SPECIFIED_SOURCE('ANY','UNSPECIFIED',#121,
.NOT_KNOWN.);
#121=PRODUCT('','WP-500','NONE',(#119));
#122=PRODUCT_RELATED_PRODUCT_CATEGORY('detail','',(#121));
#123=DESIGN_CONTEXT('detailed design',#124,'design');
#124=APPLICATION_CONTEXT('configuration controlled 3d designs of mechanical parts and assemblies');
#125=APPLICATION_PROTOCOL_DEFINITION('international standard','config_control_design',
1994,#124);
#126=CC_DESIGN_DATE_AND_TIME_ASSIGNMENT(#127,#131,(#103));
#127=DATE_AND_TIME(#128,#129);
#128=CALENDAR_DATE(0,1,1);
#129=LOCAL_TIME(0,0,0.,#130);
#130=COORDINATED_UNIVERSAL_TIME_OFFSET(0,0,.AHEAD.);
#131=DATE_TIME_ROLE('creation_date');
#132=CC_DESIGN_APPROVAL(#133,(#103));
#133=APPROVAL(#134,'UNSPECIFIED');
#134=APPROVAL_STATUS('not_yet_approved');
#135=APPROVAL_DATE_TIME(#136,#133);
#136=DATE_AND_TIME(#137,#138);
#137=CALENDAR_DATE(0,1,1);
#138=LOCAL_TIME(0,0,0.,#139);
#139=COORDINATED_UNIVERSAL_TIME_OFFSET(0,0,.AHEAD.);
#140=ITEM_DEFINED_TRANSFORMATION('','',#4,#99);
#141=(REPRESENTATION_RELATIONSHIP('','',#105,#3)REPRESENTATION_RELATIONSHIP_WITH_TRANSFORMATION(
#140)SHAPE_REPRESENTATION_RELATIONSHIP());
#142=NEXT_ASSEMBLY_USAGE_OCCURRENCE('ANY','EE_WP-500','',#1,#103,'');
#143=CC_DESIGN_SECURITY_CLASSIFICATION(#144,(#142));
#144=SECURITY_CLASSIFICATION('','',#145);
#145=SECURITY_CLASSIFICATION_LEVEL('unclassified');
#146=CC_DESIGN_DATE_AND_TIME_ASSIGNMENT(#147,#151,(#144));
#147=DATE_AND_TIME(#148,#149);
#148=CALENDAR_DATE(0,1,1);
#149=LOCAL_TIME(0,0,0.,#150);
#150=COORDINATED_UNIVERSAL_TIME_OFFSET(0,0,.AHEAD.);
#151=DATE_TIME_ROLE('classification_date');
#152=CC_DESIGN_APPROVAL(#153,(#144));
#153=APPROVAL(#154,'UNSPECIFIED');
#154=APPROVAL_STATUS('not_yet_approved');
#155=APPROVAL_DATE_TIME(#156,#153);
#156=DATE_AND_TIME(#157,#158);
#157=CALENDAR_DATE(0,1,1);
#158=LOCAL_TIME(0,0,0.,#159);
#159=COORDINATED_UNIVERSAL_TIME_OFFSET(0,0,.AHEAD.);
#160=PRODUCT_DEFINITION_SHAPE('NONE','NONE',#142);
#161=CONTEXT_DEPENDENT_SHAPE_REPRESENTATION(#141,#160);
#162=ADVANCED_FACE('',(#217,#219,#221,#223,#225,#227,#229),#231,.T.);
#163=ADVANCED_FACE('',(#236,#238,#240,#242,#244,#246,#248),#250,.T.);
#164=ADVANCED_FACE('',(#255,#257),#259,.F.);
#165=ADVANCED_FACE('',(#264,#266),#268,.T.);
#166=ADVANCED_FACE('',(#273,#275),#277,.F.);
#167=ADVANCED_FACE('',(#282,#284),#286,.F.);
#168=ADVANCED_FACE('',(#291,#293),#295,.F.);
#169=ADVANCED_FACE('',(#300,#302),#304,.F.);
#170=ADVANCED_FACE('',(#309,#311),#313,.F.);
#171=ADVANCED_FACE('',(#318,#320),#322,.F.);
#172=ADVANCED_FACE('',(#327,#329,#331,#333),#335,.T.);
#173=ADVANCED_FACE('',(#340,#342),#344,.F.);
#174=ADVANCED_FACE('',(#349,#351),#353,.F.);
#175=ADVANCED_FACE('',(#358,#360),#362,.F.);
#176=ADVANCED_FACE('',(#367,#369),#371,.F.);
#177=ADVANCED_FACE('',(#376,#378),#380,.F.);
#178=ADVANCED_FACE('',(#385,#387),#389,.F.);
#179=ADVANCED_FACE('',(#394,#396),#398,.F.);
#180=ADVANCED_FACE('',(#403,#405),#407,.F.);
#181=ADVANCED_FACE('',(#412,#414),#416,.F.);
#182=ADVANCED_FACE('',(#421,#423),#425,.T.);
#183=ADVANCED_FACE('',(#430,#432),#434,.F.);
#184=ADVANCED_FACE('',(#439,#441),#443,.F.);
#185=ADVANCED_FACE('',(#448,#450,#452,#454),#456,.F.);
#186=ADVANCED_FACE('',(#461,#463),#465,.F.);
#187=ADVANCED_FACE('',(#470,#472),#474,.T.);
#188=ADVANCED_FACE('',(#479),#481,.F.);
#189=ADVANCED_FACE('',(#486,#488),#490,.T.);
#190=ADVANCED_FACE('',(#495),#497,.T.);
#191=ADVANCED_FACE('',(#502,#504),#506,.F.);
#192=ADVANCED_FACE('',(#511,#513),#515,.T.);
#193=ADVANCED_FACE('',(#520),#522,.T.);
#194=ADVANCED_FACE('',(#527,#529),#531,.T.);
#195=ADVANCED_FACE('',(#536,#538),#540,.T.);
#196=ADVANCED_FACE('',(#545,#547),#549,.T.);
#197=ADVANCED_FACE('',(#554,#556),#558,.T.);
#198=ADVANCED_FACE('',(#563,#565),#567,.T.);
#199=ADVANCED_FACE('',(#572,#574),#576,.T.);
#200=ADVANCED_FACE('',(#581,#583),#585,.T.);
#201=ADVANCED_FACE('',(#590,#592),#594,.T.);
#202=ADVANCED_FACE('',(#599,#601),#603,.T.);
#203=ADVANCED_FACE('',(#608,#610),#612,.T.);
#204=ADVANCED_FACE('',(#617,#619),#621,.T.);
#205=ADVANCED_FACE('',(#626,#628),#630,.T.);
#206=ADVANCED_FACE('',(#635,#637),#639,.T.);
#207=ADVANCED_FACE('',(#644,#646),#648,.T.);
#208=ADVANCED_FACE('',(#653,#655),#657,.T.);
#209=ADVANCED_FACE('',(#662,#664),#666,.T.);
#210=ADVANCED_FACE('',(#671,#673),#675,.T.);
#211=ADVANCED_FACE('',(#680,#682),#684,.T.);
#212=ADVANCED_FACE('',(#689,#691),#693,.T.);
#213=ADVANCED_FACE('',(#698,#700),#702,.T.);
#214=ADVANCED_FACE('',(#707,#709),#711,.T.);
#215=ADVANCED_FACE('',(#716,#718),#720,.T.);
#216=ADVANCED_FACE('',(#725),#727,.T.);
#217=FACE_BOUND('',#218,.T.);
#218=EDGE_LOOP('',(#732));
#219=FACE_BOUND('',#220,.T.);
#220=EDGE_LOOP('',(#733));
#221=FACE_BOUND('',#222,.T.);
#222=EDGE_LOOP('',(#734));
#223=FACE_BOUND('',#224,.T.);
#224=EDGE_LOOP('',(#735));
#225=FACE_BOUND('',#226,.T.);
#226=EDGE_LOOP('',(#736));
#227=FACE_BOUND('',#228,.T.);
#228=EDGE_LOOP('',(#737));
#229=FACE_BOUND('',#230,.T.);
#230=EDGE_LOOP('',(#738));
#231=PLANE('',#232);
#232=AXIS2_PLACEMENT_3D('',#233,#234,#235);
#233=CARTESIAN_POINT('',(0.,0.,0.));
#234=DIRECTION('',(-1.12481983699639E-32,-1.,-6.12323399573677E-17));
#235=DIRECTION('',(1.83697019872103E-16,-6.12323399573677E-17,1.));
#236=FACE_BOUND('',#237,.T.);
#237=EDGE_LOOP('',(#739));
#238=FACE_BOUND('',#239,.T.);
#239=EDGE_LOOP('',(#740));
#240=FACE_BOUND('',#241,.T.);
#241=EDGE_LOOP('',(#741));
#242=FACE_BOUND('',#243,.T.);
#243=EDGE_LOOP('',(#742));
#244=FACE_BOUND('',#245,.T.);
#245=EDGE_LOOP('',(#743));
#246=FACE_BOUND('',#247,.T.);
#247=EDGE_LOOP('',(#744));
#248=FACE_BOUND('',#249,.T.);
#249=EDGE_LOOP('',(#745));
#250=PLANE('',#251);
#251=AXIS2_PLACEMENT_3D('',#252,#253,#254);
#252=CARTESIAN_POINT('',(1.01233785329675E-31,9.,5.51091059616309E-16));
#253=DIRECTION('',(1.12481983699639E-32,1.,6.12323399573677E-17));
#254=DIRECTION('',(1.83697019872103E-16,-6.12323399573677E-17,1.));
#255=FACE_OUTER_BOUND('',#256,.T.);
#256=EDGE_LOOP('',(#746));
#257=FACE_OUTER_BOUND('',#258,.T.);
#258=EDGE_LOOP('',(#747));
#259=CYLINDRICAL_SURFACE('',#260,2.5);
#260=AXIS2_PLACEMENT_3D('',#261,#262,#263);
#261=CARTESIAN_POINT('',(15.75,-31.,-1.8982025386784E-15));
#262=DIRECTION('',(1.12481983699639E-32,1.,6.12323399573677E-17));
#263=DIRECTION('',(1.,-1.12481983699639E-32,-6.88753506497541E-49));
#264=FACE_OUTER_BOUND('',#265,.T.);
#265=EDGE_LOOP('',(#748));
#266=FACE_OUTER_BOUND('',#267,.T.);
#267=EDGE_LOOP('',(#749));
#268=CYLINDRICAL_SURFACE('',#269,25.);
#269=AXIS2_PLACEMENT_3D('',#270,#271,#272);
#270=CARTESIAN_POINT('',(4.37905770101505E-47,3.5527136788005E-15,1.97215226305253E-31));
#271=DIRECTION('',(1.12481983699639E-32,1.,6.12323399573677E-17));
#272=DIRECTION('',(1.83697019872103E-16,-6.12323399573677E-17,1.));
#273=FACE_OUTER_BOUND('',#274,.T.);
#274=EDGE_LOOP('',(#750));
#275=FACE_OUTER_BOUND('',#276,.T.);
#276=EDGE_LOOP('',(#751));
#277=CYLINDRICAL_SURFACE('',#278,2.8);
#278=AXIS2_PLACEMENT_3D('',#279,#280,#281);
#279=CARTESIAN_POINT('',(11.1369318036881,-5.,-11.1369318036881));
#280=DIRECTION('',(1.12481983699639E-32,1.,6.12323399573677E-17));
#281=DIRECTION('',(1.,-1.12481983699639E-32,-6.8875350649754E-49));
#282=FACE_OUTER_BOUND('',#283,.T.);
#283=EDGE_LOOP('',(#752));
#284=FACE_OUTER_BOUND('',#285,.T.);
#285=EDGE_LOOP('',(#753));
#286=TOROIDAL_SURFACE('',#287,10.5358571571457,1.);
#287=AXIS2_PLACEMENT_3D('',#288,#289,#290);
#288=CARTESIAN_POINT('',(-7.87373885897526E-33,-0.700000000000045,-4.28626379701601E-17));
#289=DIRECTION('',(1.12481983699639E-32,1.,6.12323399573677E-17));
#290=DIRECTION('',(1.83697019872103E-16,-6.12323399573677E-17,1.));
#291=FACE_OUTER_BOUND('',#292,.T.);
#292=EDGE_LOOP('',(#754));
#293=FACE_OUTER_BOUND('',#294,.T.);
#294=EDGE_LOOP('',(#755));
#295=CYLINDRICAL_SURFACE('',#296,2.8);
#296=AXIS2_PLACEMENT_3D('',#297,#298,#299);
#297=CARTESIAN_POINT('',(11.1369318036881,-5.,11.1369318036881));
#298=DIRECTION('',(1.23259516440783E-32,1.,6.12323399573677E-17));
#299=DIRECTION('',(-7.54746861368278E-49,-6.12323399573677E-17,1.));
#300=FACE_OUTER_BOUND('',#301,.T.);
#301=EDGE_LOOP('',(#756));
#302=FACE_OUTER_BOUND('',#303,.T.);
#303=EDGE_LOOP('',(#757));
#304=CYLINDRICAL_SURFACE('',#305,2.8);
#305=AXIS2_PLACEMENT_3D('',#306,#307,#308);
#306=CARTESIAN_POINT('',(-11.1369318036881,-5.,11.1369318036881));
#307=DIRECTION('',(1.12481983699639E-32,1.,6.12323399573677E-17));
#308=DIRECTION('',(-1.,1.12481983699639E-32,6.8875350649754E-49));
#309=FACE_OUTER_BOUND('',#310,.T.);
#310=EDGE_LOOP('',(#758));
#311=FACE_OUTER_BOUND('',#312,.T.);
#312=EDGE_LOOP('',(#759));
#313=CYLINDRICAL_SURFACE('',#314,2.8);
#314=AXIS2_PLACEMENT_3D('',#315,#316,#317);
#315=CARTESIAN_POINT('',(-11.1369318036881,-5.,-11.1369318036881));
#316=DIRECTION('',(1.23259516440783E-32,1.,6.12323399573677E-17));
#317=DIRECTION('',(7.54746861368278E-49,6.12323399573677E-17,-1.));
#318=FACE_OUTER_BOUND('',#319,.T.);
#319=EDGE_LOOP('',(#760));
#320=FACE_OUTER_BOUND('',#321,.T.);
#321=EDGE_LOOP('',(#761));
#322=CYLINDRICAL_SURFACE('',#323,5.);
#323=AXIS2_PLACEMENT_3D('',#324,#325,#326);
#324=CARTESIAN_POINT('',(11.1369318036881,4.,-11.1369318036881));
#325=DIRECTION('',(1.12481983699639E-32,1.,6.12323399573677E-17));
#326=DIRECTION('',(1.,-1.12481983699639E-32,-6.88753506497541E-49));
#327=FACE_OUTER_BOUND('',#328,.T.);
#328=EDGE_LOOP('',(#762));
#329=FACE_BOUND('',#330,.T.);
#330=EDGE_LOOP('',(#763,#764));
#331=FACE_OUTER_BOUND('',#332,.T.);
#332=EDGE_LOOP('',(#765));
#333=FACE_BOUND('',#334,.T.);
#334=EDGE_LOOP('',(#766));
#335=CYLINDRICAL_SURFACE('',#336,10.);
#336=AXIS2_PLACEMENT_3D('',#337,#338,#339);
#337=CARTESIAN_POINT('',(1.01233785329675E-31,9.,5.51091059616309E-16));
#338=DIRECTION('',(1.12481983699639E-32,1.,6.12323399573677E-17));
#339=DIRECTION('',(1.83697019872103E-16,-6.12323399573677E-17,1.));
#340=FACE_OUTER_BOUND('',#341,.T.);
#341=EDGE_LOOP('',(#767));
#342=FACE_OUTER_BOUND('',#343,.T.);
#343=EDGE_LOOP('',(#768));
#344=CYLINDRICAL_SURFACE('',#345,5.);
#345=AXIS2_PLACEMENT_3D('',#346,#347,#348);
#346=CARTESIAN_POINT('',(11.1369318036881,4.,11.1369318036881));
#347=DIRECTION('',(1.23259516440783E-32,1.,6.12323399573677E-17));
#348=DIRECTION('',(-3.5527136788005E-16,-6.12323399573677E-17,1.));
#349=FACE_OUTER_BOUND('',#350,.T.);
#350=EDGE_LOOP('',(#769));
#351=FACE_OUTER_BOUND('',#352,.T.);
#352=EDGE_LOOP('',(#770));
#353=CYLINDRICAL_SURFACE('',#354,5.);
#354=AXIS2_PLACEMENT_3D('',#355,#356,#357);
#355=CARTESIAN_POINT('',(-11.1369318036881,4.,11.1369318036881));
#356=DIRECTION('',(1.12481983699639E-32,1.,6.12323399573677E-17));
#357=DIRECTION('',(-1.,1.12481983699639E-32,6.8875350649754E-49));
#358=FACE_OUTER_BOUND('',#359,.T.);
#359=EDGE_LOOP('',(#771));
#360=FACE_OUTER_BOUND('',#361,.T.);
#361=EDGE_LOOP('',(#772));
#362=CYLINDRICAL_SURFACE('',#363,5.);
#363=AXIS2_PLACEMENT_3D('',#364,#365,#366);
#364=CARTESIAN_POINT('',(-11.1369318036881,4.,-11.1369318036881));
#365=DIRECTION('',(1.23259516440783E-32,1.,6.12323399573677E-17));
#366=DIRECTION('',(7.54746861368278E-49,6.12323399573677E-17,-1.));
#367=FACE_BOUND('',#368,.T.);
#368=EDGE_LOOP('',(#773));
#369=FACE_BOUND('',#370,.T.);
#370=EDGE_LOOP('',(#774));
#371=PLANE('',#372);
#372=AXIS2_PLACEMENT_3D('',#373,#374,#375);
#373=CARTESIAN_POINT('',(11.1369318036881,4.,-11.1369318036881));
#374=DIRECTION('',(-1.12481983699639E-32,-1.,-6.12323399573677E-17));
#375=DIRECTION('',(1.,-1.12481983699639E-32,-6.88753506497541E-49));
#376=FACE_OUTER_BOUND('',#377,.T.);
#377=EDGE_LOOP('',(#775));
#378=FACE_OUTER_BOUND('',#379,.T.);
#379=EDGE_LOOP('',(#776));
#380=TOROIDAL_SURFACE('',#381,10.5535995108909,0.8);
#381=AXIS2_PLACEMENT_3D('',#382,#383,#384);
#382=CARTESIAN_POINT('',(-5.63296875213828E-33,-0.500788532248862,-3.06644536534135E-17));
#383=DIRECTION('',(1.12481983699639E-32,1.,6.12323399573677E-17));
#384=DIRECTION('',(1.83697019872103E-16,-6.12323399573677E-17,1.));
#385=FACE_BOUND('',#386,.T.);
#386=EDGE_LOOP('',(#777));
#387=FACE_BOUND('',#388,.T.);
#388=EDGE_LOOP('',(#778));
#389=PLANE('',#390);
#390=AXIS2_PLACEMENT_3D('',#391,#392,#393);
#391=CARTESIAN_POINT('',(11.1369318036881,4.,11.1369318036881));
#392=DIRECTION('',(-1.23259516440783E-32,-1.,-6.12323399573677E-17));
#393=DIRECTION('',(-3.5527136788005E-16,-6.12323399573677E-17,1.));
#394=FACE_BOUND('',#395,.T.);
#395=EDGE_LOOP('',(#779));
#396=FACE_BOUND('',#397,.T.);
#397=EDGE_LOOP('',(#780));
#398=PLANE('',#399);
#399=AXIS2_PLACEMENT_3D('',#400,#401,#402);
#400=CARTESIAN_POINT('',(-11.1369318036881,4.,11.1369318036881));
#401=DIRECTION('',(-1.12481983699639E-32,-1.,-6.12323399573677E-17));
#402=DIRECTION('',(-1.,1.12481983699639E-32,6.8875350649754E-49));
#403=FACE_BOUND('',#404,.T.);
#404=EDGE_LOOP('',(#781));
#405=FACE_BOUND('',#406,.T.);
#406=EDGE_LOOP('',(#782));
#407=PLANE('',#408);
#408=AXIS2_PLACEMENT_3D('',#409,#410,#411);
#409=CARTESIAN_POINT('',(-11.1369318036881,4.,-11.1369318036881));
#410=DIRECTION('',(-1.23259516440783E-32,-1.,-6.12323399573677E-17));
#411=DIRECTION('',(7.54746861368278E-49,6.12323399573677E-17,-1.));
#412=FACE_BOUND('',#413,.T.);
#413=EDGE_LOOP('',(#783,#784));
#414=FACE_BOUND('',#415,.T.);
#415=EDGE_LOOP('',(#785,#786));
#416=CYLINDRICAL_SURFACE('',#417,2.066987298);
#417=AXIS2_PLACEMENT_3D('',#418,#419,#420);
#418=CARTESIAN_POINT('',(1.7145055188063E-15,22.,25.));
#419=DIRECTION('',(-1.22464679914735E-16,6.12323399573676E-17,-1.));
#420=DIRECTION('',(-6.12323399573676E-17,1.,6.12323399573676E-17));
#421=FACE_BOUND('',#422,.T.);
#422=EDGE_LOOP('',(#787));
#423=FACE_BOUND('',#424,.T.);
#424=EDGE_LOOP('',(#788));
#425=PLANE('',#426);
#426=AXIS2_PLACEMENT_3D('',#427,#428,#429);
#427=CARTESIAN_POINT('',(3.93686942948738E-31,35.,2.14313189850787E-15));
#428=DIRECTION('',(1.12481983699639E-32,1.,6.12323399573677E-17));
#429=DIRECTION('',(1.83697019872103E-16,-6.12323399573677E-17,1.));
#430=FACE_OUTER_BOUND('',#431,.T.);
#431=EDGE_LOOP('',(#789));
#432=FACE_OUTER_BOUND('',#433,.T.);
#433=EDGE_LOOP('',(#790));
#434=CYLINDRICAL_SURFACE('',#435,2.066987298);
#435=AXIS2_PLACEMENT_3D('',#436,#437,#438);
#436=CARTESIAN_POINT('',(25.,22.,-1.53080849893419E-15));
#437=DIRECTION('',(-1.,0.,6.12323399573677E-17));
#438=DIRECTION('',(0.,1.,0.));
#439=FACE_OUTER_BOUND('',#440,.T.);
#440=EDGE_LOOP('',(#791));
#441=FACE_OUTER_BOUND('',#442,.T.);
#442=EDGE_LOOP('',(#792));
#443=TOROIDAL_SURFACE('',#444,10.75,1.);
#444=AXIS2_PLACEMENT_3D('',#445,#446,#447);
#445=CARTESIAN_POINT('',(-6.05785414784522E-33,-0.538562172233867,-3.29774220184026E-17));
#446=DIRECTION('',(1.12481983699639E-32,1.,6.12323399573677E-17));
#447=DIRECTION('',(1.83697019872103E-16,-6.12323399573677E-17,1.));
#448=FACE_OUTER_BOUND('',#449,.T.);
#449=EDGE_LOOP('',(#793));
#450=FACE_BOUND('',#451,.T.);
#451=EDGE_LOOP('',(#794,#795));
#452=FACE_OUTER_BOUND('',#453,.T.);
#453=EDGE_LOOP('',(#796));
#454=FACE_BOUND('',#455,.T.);
#455=EDGE_LOOP('',(#797));
#456=CYLINDRICAL_SURFACE('',#457,4.);
#457=AXIS2_PLACEMENT_3D('',#458,#459,#460);
#458=CARTESIAN_POINT('',(3.88062843763756E-31,34.5,2.11251572852918E-15));
#459=DIRECTION('',(1.12481983699639E-32,1.,6.12323399573677E-17));
#460=DIRECTION('',(1.83697019872103E-16,-6.12323399573677E-17,1.));
#461=FACE_OUTER_BOUND('',#462,.T.);
#462=EDGE_LOOP('',(#798));
#463=FACE_OUTER_BOUND('',#464,.T.);
#464=EDGE_LOOP('',(#799));
#465=CONICAL_SURFACE('',#466,4.25,0.785398163397448);
#466=AXIS2_PLACEMENT_3D('',#467,#468,#469);
#467=CARTESIAN_POINT('',(3.90874893356247E-31,34.75,2.12782381351853E-15));
#468=DIRECTION('',(1.12481983699639E-32,1.,6.12323399573677E-17));
#469=DIRECTION('',(1.83697019872103E-16,-6.12323399573677E-17,1.));
#470=FACE_OUTER_BOUND('',#471,.T.);
#471=EDGE_LOOP('',(#800));
#472=FACE_OUTER_BOUND('',#473,.T.);
#473=EDGE_LOOP('',(#801));
#474=CYLINDRICAL_SURFACE('',#475,10.0000000000001);
#475=AXIS2_PLACEMENT_3D('',#476,#477,#478);
#476=CARTESIAN_POINT('',(-5.06168926648377E-32,-4.5,-2.75545529808155E-16));
#477=DIRECTION('',(1.12481983699639E-32,1.,6.12323399573677E-17));
#478=DIRECTION('',(1.83697019872103E-16,-6.12323399573677E-17,1.));
#479=FACE_OUTER_BOUND('',#480,.T.);
#480=EDGE_LOOP('',(#802));
#481=CONICAL_SURFACE('',#482,2.,1.0297442586786);
#482=AXIS2_PLACEMENT_3D('',#483,#484,#485);
#483=CARTESIAN_POINT('',(8.77165864586922E-32,7.79827876195017,4.77506856234053E-16));
#484=DIRECTION('',(1.12481983699639E-32,1.,6.12323399573677E-17));
#485=DIRECTION('',(1.83697019872103E-16,-6.12323399573677E-17,1.));
#486=FACE_OUTER_BOUND('',#487,.T.);
#487=EDGE_LOOP('',(#803));
#488=FACE_OUTER_BOUND('',#489,.T.);
#489=EDGE_LOOP('',(#804));
#490=CONICAL_SURFACE('',#491,9.75,0.785398163397455);
#491=AXIS2_PLACEMENT_3D('',#492,#493,#494);
#492=CARTESIAN_POINT('',(-5.34289422573287E-32,-4.75,-2.90853614797497E-16));
#493=DIRECTION('',(1.12481983699639E-32,1.,6.12323399573677E-17));
#494=DIRECTION('',(1.83697019872103E-16,-6.12323399573677E-17,1.));
#495=FACE_BOUND('',#496,.T.);
#496=EDGE_LOOP('',(#805));
#497=PLANE('',#498);
#498=AXIS2_PLACEMENT_3D('',#499,#500,#501);
#499=CARTESIAN_POINT('',(-5.62409918498197E-32,-5.,-3.06161699786838E-16));
#500=DIRECTION('',(-1.12481983699639E-32,-1.,-6.12323399573677E-17));
#501=DIRECTION('',(1.83697019872103E-16,-6.12323399573677E-17,1.));
#502=FACE_OUTER_BOUND('',#503,.T.);
#503=EDGE_LOOP('',(#806));
#504=FACE_OUTER_BOUND('',#505,.T.);
#505=EDGE_LOOP('',(#807));
#506=CONICAL_SURFACE('',#507,2.75,0.785398163397448);
#507=AXIS2_PLACEMENT_3D('',#508,#509,#510);
#508=CARTESIAN_POINT('',(15.75,0.25,1.53080849893419E-17));
#509=DIRECTION('',(-1.12481983699639E-32,-1.,-6.12323399573677E-17));
#510=DIRECTION('',(-1.,-1.02256348817854E-33,2.00396748951385E-16));
#511=FACE_OUTER_BOUND('',#512,.T.);
#512=EDGE_LOOP('',(#808));
#513=FACE_OUTER_BOUND('',#514,.T.);
#514=EDGE_LOOP('',(#809));
#515=CYLINDRICAL_SURFACE('',#516,1.);
#516=AXIS2_PLACEMENT_3D('',#517,#518,#519);
#517=CARTESIAN_POINT('',(-66.7,8.16839415031284E-15,0.));
#518=DIRECTION('',(-1.,1.22464679914735E-16,0.));
#519=DIRECTION('',(-1.22464679914735E-16,-1.,0.));
#520=FACE_OUTER_BOUND('',#521,.T.);
#521=EDGE_LOOP('',(#810));
#522=SPHERICAL_SURFACE('',#523,1.5);
#523=AXIS2_PLACEMENT_3D('',#524,#525,#526);
#524=CARTESIAN_POINT('',(-86.7,1.06176877486076E-14,0.));
#525=DIRECTION('',(-1.,1.22464679914735E-16,0.));
#526=DIRECTION('',(-1.22464679914735E-16,-1.,0.));
#527=FACE_OUTER_BOUND('',#528,.T.);
#528=EDGE_LOOP('',(#811));
#529=FACE_OUTER_BOUND('',#530,.T.);
#530=EDGE_LOOP('',(#812));
#531=CONICAL_SURFACE('',#532,2.25,0.463647609000806);
#532=AXIS2_PLACEMENT_3D('',#533,#534,#535);
#533=CARTESIAN_POINT('',(-64.2,7.86223245052601E-15,0.));
#534=DIRECTION('',(1.,-1.22464679914735E-16,0.));
#535=DIRECTION('',(1.22464679914735E-16,1.,0.));
#536=FACE_OUTER_BOUND('',#537,.T.);
#537=EDGE_LOOP('',(#813));
#538=FACE_OUTER_BOUND('',#539,.T.);
#539=EDGE_LOOP('',(#814));
#540=CYLINDRICAL_SURFACE('',#541,3.5);
#541=AXIS2_PLACEMENT_3D('',#542,#543,#544);
#542=CARTESIAN_POINT('',(-56.7,6.94374735116549E-15,0.));
#543=DIRECTION('',(-1.,1.22464679914735E-16,0.));
#544=DIRECTION('',(-1.22464679914735E-16,-1.,0.));
#545=FACE_BOUND('',#546,.T.);
#546=EDGE_LOOP('',(#815));
#547=FACE_BOUND('',#548,.T.);
#548=EDGE_LOOP('',(#816));
#549=PLANE('',#550);
#550=AXIS2_PLACEMENT_3D('',#551,#552,#553);
#551=CARTESIAN_POINT('',(-56.7,6.94374735116549E-15,0.));
#552=DIRECTION('',(-1.,1.22464679914735E-16,0.));
#553=DIRECTION('',(-1.22464679914735E-16,-1.,0.));
#554=FACE_OUTER_BOUND('',#555,.T.);
#555=EDGE_LOOP('',(#817));
#556=FACE_OUTER_BOUND('',#557,.T.);
#557=EDGE_LOOP('',(#818));
#558=CYLINDRICAL_SURFACE('',#559,4.);
#559=AXIS2_PLACEMENT_3D('',#560,#561,#562);
#560=CARTESIAN_POINT('',(-51.,6.2456986756515E-15,0.));
#561=DIRECTION('',(-1.,1.22464679914735E-16,0.));
#562=DIRECTION('',(-1.22464679914735E-16,-1.,0.));
#563=FACE_BOUND('',#564,.T.);
#564=EDGE_LOOP('',(#819));
#565=FACE_BOUND('',#566,.T.);
#566=EDGE_LOOP('',(#820));
#567=PLANE('',#568);
#568=AXIS2_PLACEMENT_3D('',#569,#570,#571);
#569=CARTESIAN_POINT('',(-51.,6.2456986756515E-15,0.));
#570=DIRECTION('',(-1.,1.22464679914735E-16,0.));
#571=DIRECTION('',(-1.22464679914735E-16,-1.,0.));
#572=FACE_OUTER_BOUND('',#573,.T.);
#573=EDGE_LOOP('',(#821));
#574=FACE_OUTER_BOUND('',#575,.T.);
#575=EDGE_LOOP('',(#822));
#576=CONICAL_SURFACE('',#577,20.7,0.785398163397448);
#577=AXIS2_PLACEMENT_3D('',#578,#579,#580);
#578=CARTESIAN_POINT('',(-50.7,6.20895927167708E-15,0.));
#579=DIRECTION('',(1.,-1.22464679914735E-16,0.));
#580=DIRECTION('',(1.22464679914735E-16,1.,0.));
#581=FACE_OUTER_BOUND('',#582,.T.);
#582=EDGE_LOOP('',(#823));
#583=FACE_OUTER_BOUND('',#584,.T.);
#584=EDGE_LOOP('',(#824));
#585=CYLINDRICAL_SURFACE('',#586,21.);
#586=AXIS2_PLACEMENT_3D('',#587,#588,#589);
#587=CARTESIAN_POINT('',(-48.9,5.98852284783056E-15,0.));
#588=DIRECTION('',(-1.,1.22464679914735E-16,0.));
#589=DIRECTION('',(-1.22464679914735E-16,-1.,0.));
#590=FACE_BOUND('',#591,.T.);
#591=EDGE_LOOP('',(#825));
#592=FACE_BOUND('',#593,.T.);
#593=EDGE_LOOP('',(#826));
#594=PLANE('',#595);
#595=AXIS2_PLACEMENT_3D('',#596,#597,#598);
#596=CARTESIAN_POINT('',(-48.9,5.98852284783056E-15,0.));
#597=DIRECTION('',(1.,-1.22464679914735E-16,0.));
#598=DIRECTION('',(-1.22464679914735E-16,-1.,0.));
#599=FACE_OUTER_BOUND('',#600,.T.);
#600=EDGE_LOOP('',(#827));
#601=FACE_OUTER_BOUND('',#602,.T.);
#602=EDGE_LOOP('',(#828));
#603=TOROIDAL_SURFACE('',#604,20.2,0.799999999999997);
#604=AXIS2_PLACEMENT_3D('',#605,#606,#607);
#605=CARTESIAN_POINT('',(-48.1,5.89055110389877E-15,0.));
#606=DIRECTION('',(-1.,1.22464679914735E-16,0.));
#607=DIRECTION('',(-1.22464679914735E-16,-1.,0.));
#608=FACE_BOUND('',#609,.T.);
#609=EDGE_LOOP('',(#829));
#610=FACE_BOUND('',#611,.T.);
#611=EDGE_LOOP('',(#830));
#612=PLANE('',#613);
#613=AXIS2_PLACEMENT_3D('',#614,#615,#616);
#614=CARTESIAN_POINT('',(-47.3,5.79257935996698E-15,0.));
#615=DIRECTION('',(-1.,1.22464679914735E-16,0.));
#616=DIRECTION('',(-1.22464679914735E-16,-1.,0.));
#617=FACE_OUTER_BOUND('',#618,.T.);
#618=EDGE_LOOP('',(#831));
#619=FACE_OUTER_BOUND('',#620,.T.);
#620=EDGE_LOOP('',(#832));
#621=CYLINDRICAL_SURFACE('',#622,21.);
#622=AXIS2_PLACEMENT_3D('',#623,#624,#625);
#623=CARTESIAN_POINT('',(-37.3,4.56793256081963E-15,0.));
#624=DIRECTION('',(-1.,1.22464679914735E-16,0.));
#625=DIRECTION('',(-1.22464679914735E-16,-1.,0.));
#626=FACE_BOUND('',#627,.T.);
#627=EDGE_LOOP('',(#833));
#628=FACE_BOUND('',#629,.T.);
#629=EDGE_LOOP('',(#834));
#630=PLANE('',#631);
#631=AXIS2_PLACEMENT_3D('',#632,#633,#634);
#632=CARTESIAN_POINT('',(-37.3,4.56793256081963E-15,0.));
#633=DIRECTION('',(1.,-1.22464679914735E-16,0.));
#634=DIRECTION('',(-1.22464679914735E-16,-1.,0.));
#635=FACE_OUTER_BOUND('',#636,.T.);
#636=EDGE_LOOP('',(#835));
#637=FACE_OUTER_BOUND('',#638,.T.);
#638=EDGE_LOOP('',(#836));
#639=CYLINDRICAL_SURFACE('',#640,19.7);
#640=AXIS2_PLACEMENT_3D('',#641,#642,#643);
#641=CARTESIAN_POINT('',(-30.3,3.71067980141648E-15,0.));
#642=DIRECTION('',(-1.,1.22464679914735E-16,0.));
#643=DIRECTION('',(-1.22464679914735E-16,-1.,0.));
#644=FACE_BOUND('',#645,.T.);
#645=EDGE_LOOP('',(#837));
#646=FACE_BOUND('',#647,.T.);
#647=EDGE_LOOP('',(#838));
#648=PLANE('',#649);
#649=AXIS2_PLACEMENT_3D('',#650,#651,#652);
#650=CARTESIAN_POINT('',(-30.3,3.71067980141648E-15,0.));
#651=DIRECTION('',(-1.,1.22464679914735E-16,0.));
#652=DIRECTION('',(-1.22464679914735E-16,-1.,0.));
#653=FACE_OUTER_BOUND('',#654,.T.);
#654=EDGE_LOOP('',(#839));
#655=FACE_OUTER_BOUND('',#656,.T.);
#656=EDGE_LOOP('',(#840));
#657=CYLINDRICAL_SURFACE('',#658,21.);
#658=AXIS2_PLACEMENT_3D('',#659,#660,#661);
#659=CARTESIAN_POINT('',(-3.4,4.163799117101E-16,0.));
#660=DIRECTION('',(-1.,1.22464679914735E-16,0.));
#661=DIRECTION('',(-1.22464679914735E-16,-1.,0.));
#662=FACE_OUTER_BOUND('',#663,.T.);
#663=EDGE_LOOP('',(#841));
#664=FACE_OUTER_BOUND('',#665,.T.);
#665=EDGE_LOOP('',(#842));
#666=CONICAL_SURFACE('',#667,20.7,0.785398163397448);
#667=AXIS2_PLACEMENT_3D('',#668,#669,#670);
#668=CARTESIAN_POINT('',(-3.1,3.79640507735679E-16,0.));
#669=DIRECTION('',(-1.,1.22464679914735E-16,0.));
#670=DIRECTION('',(-1.22464679914735E-16,-1.,0.));
#671=FACE_BOUND('',#672,.T.);
#672=EDGE_LOOP('',(#843));
#673=FACE_BOUND('',#674,.T.);
#674=EDGE_LOOP('',(#844));
#675=PLANE('',#676);
#676=AXIS2_PLACEMENT_3D('',#677,#678,#679);
#677=CARTESIAN_POINT('',(-2.8,3.42901103761259E-16,0.));
#678=DIRECTION('',(1.,-1.22464679914735E-16,0.));
#679=DIRECTION('',(-1.22464679914735E-16,-1.,0.));
#680=FACE_OUTER_BOUND('',#681,.T.);
#681=EDGE_LOOP('',(#845));
#682=FACE_OUTER_BOUND('',#683,.T.);
#683=EDGE_LOOP('',(#846));
#684=CYLINDRICAL_SURFACE('',#685,19.);
#685=AXIS2_PLACEMENT_3D('',#686,#687,#688);
#686=CARTESIAN_POINT('',(-0.600000000000005,7.34788079488417E-17,0.));
#687=DIRECTION('',(-1.,1.22464679914735E-16,0.));
#688=DIRECTION('',(-1.22464679914735E-16,-1.,0.));
#689=FACE_OUTER_BOUND('',#690,.T.);
#690=EDGE_LOOP('',(#847));
#691=FACE_OUTER_BOUND('',#692,.T.);
#692=EDGE_LOOP('',(#848));
#693=CONICAL_SURFACE('',#694,18.7,0.785398163397448);
#694=AXIS2_PLACEMENT_3D('',#695,#696,#697);
#695=CARTESIAN_POINT('',(-0.300000000000002,3.67394039744209E-17,0.));
#696=DIRECTION('',(-1.,1.22464679914735E-16,0.));
#697=DIRECTION('',(-1.22464679914735E-16,-1.,0.));
#698=FACE_BOUND('',#699,.T.);
#699=EDGE_LOOP('',(#849));
#700=FACE_BOUND('',#701,.T.);
#701=EDGE_LOOP('',(#850));
#702=PLANE('',#703);
#703=AXIS2_PLACEMENT_3D('',#704,#705,#706);
#704=CARTESIAN_POINT('',(0.,0.,0.));
#705=DIRECTION('',(1.,-1.22464679914735E-16,0.));
#706=DIRECTION('',(-1.22464679914735E-16,-1.,0.));
#707=FACE_OUTER_BOUND('',#708,.T.);
#708=EDGE_LOOP('',(#851));
#709=FACE_OUTER_BOUND('',#710,.T.);
#710=EDGE_LOOP('',(#852));
#711=CYLINDRICAL_SURFACE('',#712,4.);
#712=AXIS2_PLACEMENT_3D('',#713,#714,#715);
#713=CARTESIAN_POINT('',(24.4,-2.98813818991954E-15,0.));
#714=DIRECTION('',(-1.,1.22464679914735E-16,0.));
#715=DIRECTION('',(-1.22464679914735E-16,-1.,0.));
#716=FACE_OUTER_BOUND('',#717,.T.);
#717=EDGE_LOOP('',(#853));
#718=FACE_OUTER_BOUND('',#719,.T.);
#719=EDGE_LOOP('',(#854));
#720=CONICAL_SURFACE('',#721,3.7,0.785398163397447);
#721=AXIS2_PLACEMENT_3D('',#722,#723,#724);
#722=CARTESIAN_POINT('',(24.7,-3.02487759389396E-15,0.));
#723=DIRECTION('',(-1.,1.22464679914735E-16,0.));
#724=DIRECTION('',(-1.22464679914735E-16,-1.,0.));
#725=FACE_BOUND('',#726,.T.);
#726=EDGE_LOOP('',(#855));
#727=PLANE('',#728);
#728=AXIS2_PLACEMENT_3D('',#729,#730,#731);
#729=CARTESIAN_POINT('',(25.,-3.06161699786838E-15,0.));
#730=DIRECTION('',(1.,-1.22464679914735E-16,0.));
#731=DIRECTION('',(-1.22464679914735E-16,-1.,0.));
#732=ORIENTED_EDGE('',*,*,#856,.F.);
#733=ORIENTED_EDGE('',*,*,#857,.T.);
#734=ORIENTED_EDGE('',*,*,#858,.T.);
#735=ORIENTED_EDGE('',*,*,#859,.T.);
#736=ORIENTED_EDGE('',*,*,#860,.T.);
#737=ORIENTED_EDGE('',*,*,#861,.T.);
#738=ORIENTED_EDGE('',*,*,#862,.T.);
#739=ORIENTED_EDGE('',*,*,#863,.T.);
#740=ORIENTED_EDGE('',*,*,#864,.T.);
#741=ORIENTED_EDGE('',*,*,#865,.T.);
#742=ORIENTED_EDGE('',*,*,#866,.F.);
#743=ORIENTED_EDGE('',*,*,#867,.T.);
#744=ORIENTED_EDGE('',*,*,#868,.T.);
#745=ORIENTED_EDGE('',*,*,#869,.T.);
#746=ORIENTED_EDGE('',*,*,#864,.F.);
#747=ORIENTED_EDGE('',*,*,#870,.F.);
#748=ORIENTED_EDGE('',*,*,#863,.F.);
#749=ORIENTED_EDGE('',*,*,#856,.T.);
#750=ORIENTED_EDGE('',*,*,#871,.T.);
#751=ORIENTED_EDGE('',*,*,#862,.F.);
#752=ORIENTED_EDGE('',*,*,#872,.T.);
#753=ORIENTED_EDGE('',*,*,#861,.F.);
#754=ORIENTED_EDGE('',*,*,#873,.T.);
#755=ORIENTED_EDGE('',*,*,#860,.F.);
#756=ORIENTED_EDGE('',*,*,#874,.T.);
#757=ORIENTED_EDGE('',*,*,#859,.F.);
#758=ORIENTED_EDGE('',*,*,#875,.T.);
#759=ORIENTED_EDGE('',*,*,#858,.F.);
#760=ORIENTED_EDGE('',*,*,#865,.F.);
#761=ORIENTED_EDGE('',*,*,#876,.F.);
#762=ORIENTED_EDGE('',*,*,#877,.F.);
#763=ORIENTED_EDGE('',*,*,#878,.T.);
#764=ORIENTED_EDGE('',*,*,#879,.T.);
#765=ORIENTED_EDGE('',*,*,#866,.T.);
#766=ORIENTED_EDGE('',*,*,#880,.T.);
#767=ORIENTED_EDGE('',*,*,#867,.F.);
#768=ORIENTED_EDGE('',*,*,#881,.F.);
#769=ORIENTED_EDGE('',*,*,#868,.F.);
#770=ORIENTED_EDGE('',*,*,#882,.F.);
#771=ORIENTED_EDGE('',*,*,#869,.F.);
#772=ORIENTED_EDGE('',*,*,#883,.F.);
#773=ORIENTED_EDGE('',*,*,#876,.T.);
#774=ORIENTED_EDGE('',*,*,#871,.F.);
#775=ORIENTED_EDGE('',*,*,#872,.F.);
#776=ORIENTED_EDGE('',*,*,#884,.T.);
#777=ORIENTED_EDGE('',*,*,#881,.T.);
#778=ORIENTED_EDGE('',*,*,#873,.F.);
#779=ORIENTED_EDGE('',*,*,#882,.T.);
#780=ORIENTED_EDGE('',*,*,#874,.F.);
#781=ORIENTED_EDGE('',*,*,#883,.T.);
#782=ORIENTED_EDGE('',*,*,#875,.F.);
#783=ORIENTED_EDGE('',*,*,#879,.F.);
#784=ORIENTED_EDGE('',*,*,#878,.F.);
#785=ORIENTED_EDGE('',*,*,#885,.F.);
#786=ORIENTED_EDGE('',*,*,#886,.F.);
#787=ORIENTED_EDGE('',*,*,#877,.T.);
#788=ORIENTED_EDGE('',*,*,#887,.F.);
#789=ORIENTED_EDGE('',*,*,#880,.F.);
#790=ORIENTED_EDGE('',*,*,#888,.F.);
#791=ORIENTED_EDGE('',*,*,#884,.F.);
#792=ORIENTED_EDGE('',*,*,#889,.T.);
#793=ORIENTED_EDGE('',*,*,#890,.T.);
#794=ORIENTED_EDGE('',*,*,#886,.T.);
#795=ORIENTED_EDGE('',*,*,#885,.T.);
#796=ORIENTED_EDGE('',*,*,#891,.F.);
#797=ORIENTED_EDGE('',*,*,#888,.T.);
#798=ORIENTED_EDGE('',*,*,#887,.T.);
#799=ORIENTED_EDGE('',*,*,#890,.F.);
#800=ORIENTED_EDGE('',*,*,#889,.F.);
#801=ORIENTED_EDGE('',*,*,#892,.T.);
#802=ORIENTED_EDGE('',*,*,#891,.T.);
#803=ORIENTED_EDGE('',*,*,#892,.F.);
#804=ORIENTED_EDGE('',*,*,#893,.T.);
#805=ORIENTED_EDGE('',*,*,#893,.F.);
#806=ORIENTED_EDGE('',*,*,#857,.F.);
#807=ORIENTED_EDGE('',*,*,#870,.T.);
#808=ORIENTED_EDGE('',*,*,#894,.T.);
#809=ORIENTED_EDGE('',*,*,#895,.F.);
#810=ORIENTED_EDGE('',*,*,#895,.T.);
#811=ORIENTED_EDGE('',*,*,#896,.T.);
#812=ORIENTED_EDGE('',*,*,#894,.F.);
#813=ORIENTED_EDGE('',*,*,#897,.T.);
#814=ORIENTED_EDGE('',*,*,#896,.F.);
#815=ORIENTED_EDGE('',*,*,#898,.T.);
#816=ORIENTED_EDGE('',*,*,#897,.F.);
#817=ORIENTED_EDGE('',*,*,#899,.T.);
#818=ORIENTED_EDGE('',*,*,#898,.F.);
#819=ORIENTED_EDGE('',*,*,#900,.T.);
#820=ORIENTED_EDGE('',*,*,#899,.F.);
#821=ORIENTED_EDGE('',*,*,#901,.T.);
#822=ORIENTED_EDGE('',*,*,#900,.F.);
#823=ORIENTED_EDGE('',*,*,#902,.T.);
#824=ORIENTED_EDGE('',*,*,#901,.F.);
#825=ORIENTED_EDGE('',*,*,#902,.F.);
#826=ORIENTED_EDGE('',*,*,#903,.T.);
#827=ORIENTED_EDGE('',*,*,#904,.T.);
#828=ORIENTED_EDGE('',*,*,#903,.F.);
#829=ORIENTED_EDGE('',*,*,#905,.T.);
#830=ORIENTED_EDGE('',*,*,#904,.F.);
#831=ORIENTED_EDGE('',*,*,#906,.T.);
#832=ORIENTED_EDGE('',*,*,#905,.F.);
#833=ORIENTED_EDGE('',*,*,#906,.F.);
#834=ORIENTED_EDGE('',*,*,#907,.T.);
#835=ORIENTED_EDGE('',*,*,#908,.T.);
#836=ORIENTED_EDGE('',*,*,#907,.F.);
#837=ORIENTED_EDGE('',*,*,#909,.T.);
#838=ORIENTED_EDGE('',*,*,#908,.F.);
#839=ORIENTED_EDGE('',*,*,#910,.T.);
#840=ORIENTED_EDGE('',*,*,#909,.F.);
#841=ORIENTED_EDGE('',*,*,#911,.T.);
#842=ORIENTED_EDGE('',*,*,#910,.F.);
#843=ORIENTED_EDGE('',*,*,#911,.F.);
#844=ORIENTED_EDGE('',*,*,#912,.T.);
#845=ORIENTED_EDGE('',*,*,#913,.T.);
#846=ORIENTED_EDGE('',*,*,#912,.F.);
#847=ORIENTED_EDGE('',*,*,#914,.T.);
#848=ORIENTED_EDGE('',*,*,#913,.F.);
#849=ORIENTED_EDGE('',*,*,#914,.F.);
#850=ORIENTED_EDGE('',*,*,#915,.T.);
#851=ORIENTED_EDGE('',*,*,#916,.T.);
#852=ORIENTED_EDGE('',*,*,#915,.F.);
#853=ORIENTED_EDGE('',*,*,#917,.T.);
#854=ORIENTED_EDGE('',*,*,#916,.F.);
#855=ORIENTED_EDGE('',*,*,#917,.F.);
#856=EDGE_CURVE('',#918,#918,#919,.T.);
#857=EDGE_CURVE('',#920,#920,#921,.T.);
#858=EDGE_CURVE('',#922,#922,#923,.T.);
#859=EDGE_CURVE('',#924,#924,#925,.T.);
#860=EDGE_CURVE('',#926,#926,#927,.T.);
#861=EDGE_CURVE('',#928,#928,#929,.T.);
#862=EDGE_CURVE('',#930,#930,#931,.T.);
#863=EDGE_CURVE('',#932,#932,#933,.T.);
#864=EDGE_CURVE('',#934,#934,#935,.F.);
#865=EDGE_CURVE('',#936,#936,#937,.F.);
#866=EDGE_CURVE('',#938,#938,#939,.T.);
#867=EDGE_CURVE('',#940,#940,#941,.F.);
#868=EDGE_CURVE('',#942,#942,#943,.F.);
#869=EDGE_CURVE('',#944,#944,#945,.F.);
#870=EDGE_CURVE('',#946,#946,#947,.T.);
#871=EDGE_CURVE('',#948,#948,#949,.T.);
#872=EDGE_CURVE('',#950,#950,#951,.T.);
#873=EDGE_CURVE('',#952,#952,#953,.T.);
#874=EDGE_CURVE('',#954,#954,#955,.T.);
#875=EDGE_CURVE('',#956,#956,#957,.T.);
#876=EDGE_CURVE('',#958,#958,#959,.T.);
#877=EDGE_CURVE('',#960,#960,#961,.T.);
#878=EDGE_CURVE('',#962,#963,#964,.T.);
#879=EDGE_CURVE('',#963,#962,#965,.T.);
#880=EDGE_CURVE('',#966,#966,#967,.T.);
#881=EDGE_CURVE('',#968,#968,#969,.T.);
#882=EDGE_CURVE('',#970,#970,#971,.T.);
#883=EDGE_CURVE('',#972,#972,#973,.T.);
#884=EDGE_CURVE('',#974,#974,#975,.T.);
#885=EDGE_CURVE('',#976,#977,#978,.F.);
#886=EDGE_CURVE('',#977,#976,#979,.F.);
#887=EDGE_CURVE('',#980,#980,#981,.T.);
#888=EDGE_CURVE('',#982,#982,#983,.F.);
#889=EDGE_CURVE('',#984,#984,#985,.T.);
#890=EDGE_CURVE('',#986,#986,#987,.T.);
#891=EDGE_CURVE('',#988,#988,#989,.T.);
#892=EDGE_CURVE('',#990,#990,#991,.T.);
#893=EDGE_CURVE('',#992,#992,#993,.T.);
#894=EDGE_CURVE('',#994,#994,#995,.T.);
#895=EDGE_CURVE('',#996,#996,#997,.T.);
#896=EDGE_CURVE('',#998,#998,#999,.T.);
#897=EDGE_CURVE('',#1000,#1000,#1001,.T.);
#898=EDGE_CURVE('',#1002,#1002,#1003,.T.);
#899=EDGE_CURVE('',#1004,#1004,#1005,.T.);
#900=EDGE_CURVE('',#1006,#1006,#1007,.T.);
#901=EDGE_CURVE('',#1008,#1008,#1009,.T.);
#902=EDGE_CURVE('',#1010,#1010,#1011,.T.);
#903=EDGE_CURVE('',#1012,#1012,#1013,.T.);
#904=EDGE_CURVE('',#1014,#1014,#1015,.T.);
#905=EDGE_CURVE('',#1016,#1016,#1017,.T.);
#906=EDGE_CURVE('',#1018,#1018,#1019,.T.);
#907=EDGE_CURVE('',#1020,#1020,#1021,.T.);
#908=EDGE_CURVE('',#1022,#1022,#1023,.T.);
#909=EDGE_CURVE('',#1024,#1024,#1025,.T.);
#910=EDGE_CURVE('',#1026,#1026,#1027,.T.);
#911=EDGE_CURVE('',#1028,#1028,#1029,.T.);
#912=EDGE_CURVE('',#1030,#1030,#1031,.T.);
#913=EDGE_CURVE('',#1032,#1032,#1033,.T.);
#914=EDGE_CURVE('',#1034,#1034,#1035,.T.);
#915=EDGE_CURVE('',#1036,#1036,#1037,.T.);
#916=EDGE_CURVE('',#1038,#1038,#1039,.T.);
#917=EDGE_CURVE('',#1040,#1040,#1041,.T.);
#918=VERTEX_POINT('',#1042);
#919=CIRCLE('',#1043,25.);
#920=VERTEX_POINT('',#1047);
#921=CIRCLE('',#1048,3.);
#922=VERTEX_POINT('',#1052);
#923=CIRCLE('',#1053,2.8);
#924=VERTEX_POINT('',#1057);
#925=CIRCLE('',#1058,2.8);
#926=VERTEX_POINT('',#1062);
#927=CIRCLE('',#1063,2.8);
#928=VERTEX_POINT('',#1067);
#929=CIRCLE('',#1068,11.25);
#930=VERTEX_POINT('',#1072);
#931=CIRCLE('',#1073,2.8);
#932=VERTEX_POINT('',#1077);
#933=CIRCLE('',#1078,25.);
#934=VERTEX_POINT('',#1082);
#935=CIRCLE('',#1083,2.5);
#936=VERTEX_POINT('',#1087);
#937=CIRCLE('',#1088,5.);
#938=VERTEX_POINT('',#1092);
#939=CIRCLE('',#1093,10.);
#940=VERTEX_POINT('',#1097);
#941=CIRCLE('',#1098,5.);
#942=VERTEX_POINT('',#1102);
#943=CIRCLE('',#1103,5.);
#944=VERTEX_POINT('',#1107);
#945=CIRCLE('',#1108,5.);
#946=VERTEX_POINT('',#1112);
#947=CIRCLE('',#1113,2.5);
#948=VERTEX_POINT('',#1117);
#949=CIRCLE('',#1118,2.8);
#950=VERTEX_POINT('',#1122);
#951=CIRCLE('',#1123,10.6245689258718);
#952=VERTEX_POINT('',#1127);
#953=CIRCLE('',#1128,2.8);
#954=VERTEX_POINT('',#1132);
#955=CIRCLE('',#1133,2.8);
#956=VERTEX_POINT('',#1137);
#957=CIRCLE('',#1138,2.8);
#958=VERTEX_POINT('',#1142);
#959=CIRCLE('',#1143,5.);
#960=VERTEX_POINT('',#1147);
#961=CIRCLE('',#1148,10.);
#962=VERTEX_POINT('',#1152);
#963=VERTEX_POINT('',#1153);
#964=B_SPLINE_CURVE_WITH_KNOTS('',3,
(#1154,#1155,#1156,#1157,#1158,#1159,#1160,#1161,#1162,#1163,#1164,#1165,#1166,#1167,
#1168,#1169,#1170,#1171,#1172,#1173,#1174,#1175,#1176,#1177,#1178,#1179,#1180,#1181,
#1182,#1183,#1184,#1185,#1186,#1187,#1188),
.UNSPECIFIED.,.F.,.F.,
(4,1,1,1,1,1,1,1,1,1,1,1,1,1,1,1,1,1,1,1,1,1,1,1,1,1,1,1,1,1,1,1,4),
(0.,0.0199925467838163,0.0466118300320661,0.0798919171466257,0.119803950029389,0.155256174784654,
0.186250774352017,0.214964084721718,0.24585593597359,0.281069925274014,0.318427228495442,
0.35645819746706,0.393017756355791,0.433805184236888,0.471577972677123,0.499995231990873,
0.50632834940689,0.533752451501539,0.562578308856905,0.595753263914632,0.631870127399872,
0.668864262875524,0.703798866750072,0.736730118898036,0.769719954284328,0.80958335809427,
0.847273487133937,0.882790268501872,0.913799794409367,0.941003280720242,0.964368775292733,
0.98128207514664,1.),
.UNSPECIFIED.);
#965=B_SPLINE_CURVE_WITH_KNOTS('',3,
(#1189,#1190,#1191,#1192,#1193,#1194,#1195,#1196,#1197,#1198,#1199,#1200,#1201,#1202,
#1203,#1204,#1205,#1206,#1207,#1208,#1209,#1210,#1211,#1212,#1213,#1214,#1215,#1216,
#1217,#1218,#1219,#1220,#1221,#1222,#1223),
.UNSPECIFIED.,.F.,.F.,
(4,1,1,1,1,1,1,1,1,1,1,1,1,1,1,1,1,1,1,1,1,1,1,1,1,1,1,1,1,1,1,1,4),
(0.,0.0199925467838767,0.0466118300323221,0.079891917147057,0.119803950029865,0.155256174785115,
0.186250774352481,0.214964084722161,0.245855935974022,0.281069925274442,0.318427228495861,
0.356458197467465,0.393017756356184,0.43380518423727,0.471577972677495,0.499995231991237,
0.506328349407252,0.533752451501893,0.562578308857251,0.595753263914966,0.631870127400193,
0.668864262875838,0.703798866750382,0.736730118898325,0.769719954284578,0.809583358094556,
0.847273487134277,0.882790268502079,0.913799794409652,0.941003280720528,0.964368775292482,
0.981282075146351,1.),
.UNSPECIFIED.);
#966=VERTEX_POINT('',#1224);
#967=B_SPLINE_CURVE_WITH_KNOTS('',3,
(#1225,#1226,#1227,#1228,#1229,#1230,#1231,#1232,#1233,#1234,#1235,#1236,#1237,#1238,
#1239,#1240,#1241,#1242,#1243,#1244,#1245,#1246,#1247,#1248,#1249,#1250,#1251,#1252,
#1253,#1254,#1255,#1256,#1257,#1258,#1259,#1260,#1261,#1262,#1263,#1264,#1265,#1266,
#1267,#1268,#1269,#1270,#1271,#1272,#1273,#1274,#1275,#1276,#1277,#1278,#1279,#1280,
#1281,#1282,#1283,#1284,#1285,#1286,#1287,#1288,#1289,#1290,#1291,#1292,#1293,#1294,
#1295),
.UNSPECIFIED.,.T.,.F.,
(4,1,1,1,1,1,1,1,1,1,1,1,1,1,1,1,1,1,1,1,1,1,1,1,1,1,1,1,1,1,1,1,1,1,1,1,1,1,1,1,
1,1,1,1,1,1,1,1,1,1,1,1,1,1,1,1,1,1,1,1,1,1,1,1,1,1,1,1,4),
(0.,0.0129941510751153,0.0244757431727524,0.0349691660642563,0.0459579375757273,
0.0573601605725058,0.0686544865070349,0.0805431190752077,0.0931260736106191,0.107482458766864,
0.12292822649613,0.140535202003066,0.159213861665643,0.17822937758647,0.196509185913333,
0.216902931515015,0.235789355301717,0.249998007418053,0.253164570853179,0.266876643364963,
0.281289594621878,0.297877098073857,0.315935557982949,0.334432654747834,0.351899984190707,
0.368365635800799,0.384860579036552,0.404792312337307,0.423637406260726,0.441395835160792,
0.45690060534605,0.470502522255638,0.482186643524965,0.490039360038977,0.498186464066521,
0.499998404798826,0.510480563135221,0.524078132483408,0.538994568318541,0.551099734751247,
0.562894734933043,0.577203027470297,0.592102377920517,0.607583194070417,0.621915950102054,
0.637332863390101,0.654902734115042,0.673540695705111,0.692129173003277,0.709598466371857,
0.725926254764906,0.742231588979406,0.749997035589526,0.758511518600777,0.77478792129491,
0.792146874633621,0.810591985984244,0.829085498186954,0.846543340048794,0.862992122039718,
0.87946876714641,0.899373956026784,0.918197822318923,0.935940328973891,0.951442754905649,
0.965346552833329,0.977636651162095,0.987912484496211,1.),
.UNSPECIFIED.);
#968=VERTEX_POINT('',#1296);
#969=CIRCLE('',#1297,5.);
#970=VERTEX_POINT('',#1301);
#971=CIRCLE('',#1302,5.);
#972=VERTEX_POINT('',#1306);
#973=CIRCLE('',#1307,5.);
#974=VERTEX_POINT('',#1311);
#975=CIRCLE('',#1312,9.76799755445466);
#976=VERTEX_POINT('',#1316);
#977=VERTEX_POINT('',#1317);
#978=B_SPLINE_CURVE_WITH_KNOTS('',3,
(#1318,#1319,#1320,#1321,#1322,#1323,#1324,#1325,#1326,#1327,#1328,#1329,#1330,#1331,
#1332,#1333,#1334,#1335,#1336,#1337,#1338,#1339,#1340,#1341,#1342,#1343,#1344,#1345,
#1346,#1347,#1348,#1349,#1350,#1351,#1352,#1353,#1354,#1355,#1356,#1357,#1358,#1359,
#1360,#1361,#1362,#1363,#1364,#1365,#1366,#1367,#1368),
.UNSPECIFIED.,.F.,.F.,
(4,1,1,1,1,1,1,1,1,1,1,1,1,1,1,1,1,1,1,1,1,1,1,1,1,1,1,1,1,1,1,1,1,1,1,1,1,1,1,1,
1,1,1,1,1,1,1,1,4),
(0.,0.0147388690445612,0.0294856088176,0.0442416309115704,0.0590039661535678,0.0737607635004669,
0.0934064398150572,0.117941313525702,0.147663380815711,0.172772633496933,0.19328101066399,
0.208839466046954,0.224341259434648,0.239581570253423,0.254623667674137,0.270735987637622,
0.288122025166025,0.315724832415879,0.35260514022203,0.389698158764603,0.418069868295011,
0.436172376246351,0.45308495446937,0.473984152177024,0.494826999946262,0.499995977862743,
0.515626246692096,0.531169318864891,0.546710190145248,0.562239136763769,0.577758058020515,
0.598454063338752,0.624614083724032,0.656505958165117,0.685317131248668,0.710766873476084,
0.742791216868519,0.784513364842131,0.832023429779059,0.866660909721536,0.888956051691104,
0.902623725669106,0.916103968562879,0.929054663949559,0.941663347840398,0.957684593827492,
0.973369880617874,0.98872994400972,1.),
.UNSPECIFIED.);
#979=B_SPLINE_CURVE_WITH_KNOTS('',3,
(#1369,#1370,#1371,#1372,#1373,#1374,#1375,#1376,#1377,#1378,#1379,#1380,#1381,#1382,
#1383,#1384,#1385,#1386,#1387,#1388,#1389,#1390,#1391,#1392,#1393,#1394,#1395,#1396,
#1397,#1398,#1399,#1400,#1401,#1402,#1403,#1404,#1405,#1406,#1407,#1408,#1409,#1410,
#1411,#1412,#1413,#1414,#1415,#1416,#1417,#1418,#1419),
.UNSPECIFIED.,.F.,.F.,
(4,1,1,1,1,1,1,1,1,1,1,1,1,1,1,1,1,1,1,1,1,1,1,1,1,1,1,1,1,1,1,1,1,1,1,1,1,1,1,1,
1,1,1,1,1,1,1,1,4),
(0.,0.0147388690445356,0.02948560881754,0.0442416309114724,0.0590039661534328,0.0737607635002961,
0.0934064398148392,0.117941313525428,0.147663380815366,0.172772633496527,0.193281010663534,
0.20883946604646,0.224341259434115,0.239581570252855,0.254623667673533,0.270735987636979,
0.288122025165341,0.31572483241513,0.35260514022119,0.389698158763676,0.418069868294018,
0.436172376245316,0.453084954468293,0.473984152175896,0.494826999945081,0.499995977861553,
0.515626246690864,0.531169318863623,0.546710190143941,0.562239136762424,0.577758058019131,
0.598454063337321,0.62461408372254,0.656505958163549,0.68531713124703,0.710766873474386,
0.742791216866744,0.784513364840257,0.832023429777071,0.866660909719489,0.888956051689047,
0.902623725667103,0.916103968560951,0.929054663947777,0.941663347838808,0.957684593826265,
0.97336988061705,0.988729944009348,1.),
.UNSPECIFIED.);
#980=VERTEX_POINT('',#1420);
#981=CIRCLE('',#1421,4.5);
#982=VERTEX_POINT('',#1425);
#983=B_SPLINE_CURVE_WITH_KNOTS('',3,
(#1426,#1427,#1428,#1429,#1430,#1431,#1432,#1433,#1434,#1435,#1436,#1437,#1438,#1439,
#1440,#1441,#1442,#1443,#1444,#1445,#1446,#1447,#1448,#1449,#1450,#1451,#1452,#1453,
#1454,#1455,#1456,#1457,#1458,#1459,#1460,#1461,#1462,#1463,#1464,#1465,#1466,#1467,
#1468,#1469,#1470,#1471,#1472,#1473,#1474,#1475,#1476,#1477,#1478,#1479,#1480,#1481,
#1482,#1483,#1484,#1485,#1486,#1487,#1488,#1489),
.UNSPECIFIED.,.T.,.F.,
(4,1,1,1,1,1,1,1,1,1,1,1,1,1,1,1,1,1,1,1,1,1,1,1,1,1,1,1,1,1,1,1,1,1,1,1,1,1,1,1,
1,1,1,1,1,1,1,1,1,1,1,1,1,1,1,1,1,1,1,1,1,4),
(0.,0.0137703141922332,0.027546261484477,0.0413200469794839,0.0553355721985393,0.0695947403908478,
0.0900094011917539,0.116280928267456,0.148717597333445,0.175711089247033,0.197317190837293,
0.212667098615338,0.227445739830936,0.241012068531365,0.250001569807335,0.253922036638844,
0.265800545817728,0.277289399601443,0.289425095055031,0.30259320119802,0.317516254649847,
0.333166166449553,0.349260871260785,0.365079512876353,0.385136749984681,0.408989415692195,
0.432577685406983,0.451381420143276,0.466120978782201,0.480855101631866,0.495330943701948,
0.499999368791454,0.50955827385858,0.523755044569285,0.538164807463134,0.552761835874744,
0.567331943963693,0.588166137451152,0.614641348949822,0.647455656446023,0.674497060298727,
0.696415748782437,0.711924537376526,0.726833096097025,0.740610959491413,0.749994909172614,
0.753842511695207,0.766207800089118,0.778241145083379,0.790889651527838,0.804488284227237,
0.819615332157179,0.835327209496583,0.851207259241978,0.866678400987351,0.886219050933441,
0.909499817283891,0.932904985659598,0.951948971007507,0.967673056710167,0.983692435856125,
1.),
.UNSPECIFIED.);
#984=VERTEX_POINT('',#1490);
#985=CIRCLE('',#1491,10.);
#986=VERTEX_POINT('',#1495);
#987=CIRCLE('',#1496,4.);
#988=VERTEX_POINT('',#1500);
#989=CIRCLE('',#1501,4.);
#990=VERTEX_POINT('',#1505);
#991=CIRCLE('',#1506,10.0000000000001);
#992=VERTEX_POINT('',#1510);
#993=CIRCLE('',#1511,9.5);
#994=VERTEX_POINT('',#1515);
#995=CIRCLE('',#1516,1.);
#996=VERTEX_POINT('',#1520);
#997=CIRCLE('',#1521,1.);
#998=VERTEX_POINT('',#1525);
#999=CIRCLE('',#1526,3.5);
#1000=VERTEX_POINT('',#1530);
#1001=CIRCLE('',#1531,3.5);
#1002=VERTEX_POINT('',#1535);
#1003=CIRCLE('',#1536,4.);
#1004=VERTEX_POINT('',#1540);
#1005=CIRCLE('',#1541,4.);
#1006=VERTEX_POINT('',#1545);
#1007=CIRCLE('',#1546,20.4);
#1008=VERTEX_POINT('',#1550);
#1009=CIRCLE('',#1551,21.);
#1010=VERTEX_POINT('',#1555);
#1011=CIRCLE('',#1556,21.);
#1012=VERTEX_POINT('',#1560);
#1013=CIRCLE('',#1561,20.2);
#1014=VERTEX_POINT('',#1565);
#1015=CIRCLE('',#1566,20.2);
#1016=VERTEX_POINT('',#1570);
#1017=CIRCLE('',#1571,21.);
#1018=VERTEX_POINT('',#1575);
#1019=CIRCLE('',#1576,21.);
#1020=VERTEX_POINT('',#1580);
#1021=CIRCLE('',#1581,19.7);
#1022=VERTEX_POINT('',#1585);
#1023=CIRCLE('',#1586,19.7);
#1024=VERTEX_POINT('',#1590);
#1025=CIRCLE('',#1591,21.);
#1026=VERTEX_POINT('',#1595);
#1027=CIRCLE('',#1596,21.);
#1028=VERTEX_POINT('',#1600);
#1029=CIRCLE('',#1601,20.4);
#1030=VERTEX_POINT('',#1605);
#1031=CIRCLE('',#1606,19.);
#1032=VERTEX_POINT('',#1610);
#1033=CIRCLE('',#1611,19.);
#1034=VERTEX_POINT('',#1615);
#1035=CIRCLE('',#1616,18.4);
#1036=VERTEX_POINT('',#1620);
#1037=CIRCLE('',#1621,4.);
#1038=VERTEX_POINT('',#1625);
#1039=CIRCLE('',#1626,4.);
#1040=VERTEX_POINT('',#1630);
#1041=CIRCLE('',#1631,3.4);
#1042=CARTESIAN_POINT('',(4.59242549680257E-15,-1.53080849893419E-15,25.));
#1043=AXIS2_PLACEMENT_3D('',#1044,#1045,#1046);
#1044=CARTESIAN_POINT('',(0.,0.,0.));
#1045=DIRECTION('',(1.12481983699639E-32,1.,6.12323399573677E-17));
#1046=DIRECTION('',(1.83697019872103E-16,-6.12323399573677E-17,1.));
#1047=CARTESIAN_POINT('',(18.75,-6.82561128359175E-32,-4.0079349790277E-16));
#1048=AXIS2_PLACEMENT_3D('',#1049,#1050,#1051);
#1049=CARTESIAN_POINT('',(15.75,-1.77159124326932E-31,-3.94430452610506E-31));
#1050=DIRECTION('',(1.12481983699639E-32,1.,6.12323399573677E-17));
#1051=DIRECTION('',(1.,1.12481983699639E-32,-3.67394039744206E-16));
#1052=CARTESIAN_POINT('',(-11.1369318036881,0.,-13.9369318036881));
#1053=AXIS2_PLACEMENT_3D('',#1054,#1055,#1056);
#1054=CARTESIAN_POINT('',(-11.1369318036881,6.81940394285451E-16,-11.1369318036881));
#1055=DIRECTION('',(1.12481983699639E-32,1.,6.12323399573677E-17));
#1056=DIRECTION('',(0.,6.12323399573677E-17,-1.));
#1057=CARTESIAN_POINT('',(-13.9369318036881,-1.77635683940025E-15,11.1369318036881));
#1058=AXIS2_PLACEMENT_3D('',#1059,#1060,#1061);
#1059=CARTESIAN_POINT('',(-11.1369318036881,-6.81940394285451E-16,11.1369318036881));
#1060=DIRECTION('',(1.12481983699639E-32,1.,6.12323399573677E-17));
#1061=DIRECTION('',(-1.,1.12481983699639E-32,0.));
#1062=CARTESIAN_POINT('',(11.1369318036881,-8.88178419700125E-16,13.9369318036881));
#1063=AXIS2_PLACEMENT_3D('',#1064,#1065,#1066);
#1064=CARTESIAN_POINT('',(11.1369318036881,-6.81940394285451E-16,11.1369318036881));
#1065=DIRECTION('',(1.12481983699639E-32,1.,6.12323399573677E-17));
#1066=DIRECTION('',(0.,-6.12323399573677E-17,1.));
#1067=CARTESIAN_POINT('',(2.06659147356115E-15,-2.20051458973234E-14,11.25));
#1068=AXIS2_PLACEMENT_3D('',#1069,#1070,#1071);
#1069=CARTESIAN_POINT('',(0.,0.,0.));
#1070=DIRECTION('',(1.12481983699639E-32,1.,6.12323399573677E-17));
#1071=DIRECTION('',(1.83697019872103E-16,-6.12323399573677E-17,1.));
#1072=CARTESIAN_POINT('',(13.9369318036881,0.,-11.1369318036881));
#1073=AXIS2_PLACEMENT_3D('',#1074,#1075,#1076);
#1074=CARTESIAN_POINT('',(11.1369318036881,6.81940394285451E-16,-11.1369318036881));
#1075=DIRECTION('',(1.12481983699639E-32,1.,6.12323399573677E-17));
#1076=DIRECTION('',(1.,-1.12481983699639E-32,0.));
#1077=CARTESIAN_POINT('',(4.59242549680257E-15,9.,25.));
#1078=AXIS2_PLACEMENT_3D('',#1079,#1080,#1081);
#1079=CARTESIAN_POINT('',(1.01233785329675E-31,9.,5.51091059616309E-16));
#1080=DIRECTION('',(1.12481983699639E-32,1.,6.12323399573677E-17));
#1081=DIRECTION('',(1.83697019872103E-16,-6.12323399573677E-17,1.));
#1082=CARTESIAN_POINT('',(18.25,9.00000000000001,8.57252759403148E-16));
#1083=AXIS2_PLACEMENT_3D('',#1084,#1085,#1086);
#1084=CARTESIAN_POINT('',(15.75,9.,5.51091059616309E-16));
#1085=DIRECTION('',(1.12481983699639E-32,1.,6.12323399573677E-17));
#1086=DIRECTION('',(1.,-1.12481983699639E-32,0.));
#1087=CARTESIAN_POINT('',(16.1369318036881,9.,-11.1369318036881));
#1088=AXIS2_PLACEMENT_3D('',#1089,#1090,#1091);
#1089=CARTESIAN_POINT('',(11.1369318036881,9.,-11.1369318036881));
#1090=DIRECTION('',(1.12481983699639E-32,1.,6.12323399573677E-17));
#1091=DIRECTION('',(1.,-1.12481983699639E-32,0.));
#1092=CARTESIAN_POINT('',(1.83697019872103E-15,9.,10.));
#1093=AXIS2_PLACEMENT_3D('',#1094,#1095,#1096);
#1094=CARTESIAN_POINT('',(1.01233785329675E-31,9.,5.51091059616309E-16));
#1095=DIRECTION('',(1.12481983699639E-32,1.,6.12323399573677E-17));
#1096=DIRECTION('',(1.83697019872103E-16,-6.12323399573677E-17,1.));
#1097=CARTESIAN_POINT('',(11.1369318036881,9.,16.1369318036881));
#1098=AXIS2_PLACEMENT_3D('',#1099,#1100,#1101);
#1099=CARTESIAN_POINT('',(11.1369318036881,9.,11.1369318036881));
#1100=DIRECTION('',(1.12481983699639E-32,1.,6.12323399573677E-17));
#1101=DIRECTION('',(-3.5527136788005E-16,-6.12323399573677E-17,1.));
#1102=CARTESIAN_POINT('',(-16.1369318036881,9.,11.1369318036881));
#1103=AXIS2_PLACEMENT_3D('',#1104,#1105,#1106);
#1104=CARTESIAN_POINT('',(-11.1369318036881,9.,11.1369318036881));
#1105=DIRECTION('',(1.12481983699639E-32,1.,6.12323399573677E-17));
#1106=DIRECTION('',(-1.,1.12481983699639E-32,0.));
#1107=CARTESIAN_POINT('',(-11.1369318036881,9.,-16.1369318036881));
#1108=AXIS2_PLACEMENT_3D('',#1109,#1110,#1111);
#1109=CARTESIAN_POINT('',(-11.1369318036881,9.,-11.1369318036881));
#1110=DIRECTION('',(1.12481983699639E-32,1.,6.12323399573677E-17));
#1111=DIRECTION('',(0.,6.12323399573677E-17,-1.));
#1112=CARTESIAN_POINT('',(18.25,0.5,3.6383768973258E-16));
#1113=AXIS2_PLACEMENT_3D('',#1114,#1115,#1116);
#1114=CARTESIAN_POINT('',(15.75,0.5,3.06161699786838E-17));
#1115=DIRECTION('',(1.12481983699639E-32,1.,6.12323399573677E-17));
#1116=DIRECTION('',(1.,-1.12481983699639E-32,-6.88753506497541E-49));
#1117=CARTESIAN_POINT('',(13.9369318036881,4.,-11.1369318036881));
#1118=AXIS2_PLACEMENT_3D('',#1119,#1120,#1121);
#1119=CARTESIAN_POINT('',(11.1369318036881,4.,-11.1369318036881));
#1120=DIRECTION('',(1.12481983699639E-32,1.,6.12323399573677E-17));
#1121=DIRECTION('',(1.,-1.12481983699639E-32,-6.88753506497541E-49));
#1122=CARTESIAN_POINT('',(1.9517016491084E-15,0.296057338755859,10.6245689258718));
#1123=AXIS2_PLACEMENT_3D('',#1124,#1125,#1126);
#1124=CARTESIAN_POINT('',(3.33011167520948E-33,0.296057338755856,1.81282836135721E-17));
#1125=DIRECTION('',(1.12481983699639E-32,1.,6.12323399573677E-17));
#1126=DIRECTION('',(1.83697019872103E-16,-6.12323399573677E-17,1.));
#1127=CARTESIAN_POINT('',(11.1369318036881,4.,13.9369318036881));
#1128=AXIS2_PLACEMENT_3D('',#1129,#1130,#1131);
#1129=CARTESIAN_POINT('',(11.1369318036881,4.,11.1369318036881));
#1130=DIRECTION('',(1.23259516440783E-32,1.,6.12323399573677E-17));
#1131=DIRECTION('',(-3.5527136788005E-16,-6.12323399573677E-17,1.));
#1132=CARTESIAN_POINT('',(-13.9369318036881,4.,11.1369318036881));
#1133=AXIS2_PLACEMENT_3D('',#1134,#1135,#1136);
#1134=CARTESIAN_POINT('',(-11.1369318036881,4.,11.1369318036881));
#1135=DIRECTION('',(1.12481983699639E-32,1.,6.12323399573677E-17));
#1136=DIRECTION('',(-1.,1.12481983699639E-32,6.8875350649754E-49));
#1137=CARTESIAN_POINT('',(-11.1369318036881,4.,-13.9369318036881));
#1138=AXIS2_PLACEMENT_3D('',#1139,#1140,#1141);
#1139=CARTESIAN_POINT('',(-11.1369318036881,4.,-11.1369318036881));
#1140=DIRECTION('',(1.23259516440783E-32,1.,6.12323399573677E-17));
#1141=DIRECTION('',(7.54746861368278E-49,6.12323399573677E-17,-1.));
#1142=CARTESIAN_POINT('',(16.1369318036881,4.,-11.1369318036881));
#1143=AXIS2_PLACEMENT_3D('',#1144,#1145,#1146);
#1144=CARTESIAN_POINT('',(11.1369318036881,4.,-11.1369318036881));
#1145=DIRECTION('',(1.12481983699639E-32,1.,6.12323399573677E-17));
#1146=DIRECTION('',(1.,-1.12481983699639E-32,-6.88753506497541E-49));
#1147=CARTESIAN_POINT('',(1.83697019872103E-15,35.,10.));
#1148=AXIS2_PLACEMENT_3D('',#1149,#1150,#1151);
#1149=CARTESIAN_POINT('',(3.93686942948738E-31,35.,2.14313189850787E-15));
#1150=DIRECTION('',(1.12481983699639E-32,1.,6.12323399573677E-17));
#1151=DIRECTION('',(1.83697019872103E-16,-6.12323399573677E-17,1.));
#1152=CARTESIAN_POINT('',(5.50796564514256E-17,24.066987298,10.));
#1153=CARTESIAN_POINT('',(6.12323399573676E-16,19.9330127018355,10.));
#1154=CARTESIAN_POINT('',(7.93969524943799E-16,24.066987298,10.));
#1155=CARTESIAN_POINT('',(0.0433987920950414,24.0669915806764,10.0000031730241));
#1156=CARTESIAN_POINT('',(0.144572657087242,24.0637970435109,9.99933864377269));
#1157=CARTESIAN_POINT('',(0.317135413556671,24.045630350809,9.99559629674025));
#1158=CARTESIAN_POINT('',(0.529625665138111,24.0027258612242,9.98686185251241));
#1159=CARTESIAN_POINT('',(0.753908983822598,23.929791686824,9.97241449044677));
#1160=CARTESIAN_POINT('',(0.963142844521305,23.8331192339419,9.95412325572042));
#1161=CARTESIAN_POINT('',(1.14007101411871,23.72776682931,9.93524183866063));
#1162=CARTESIAN_POINT('',(1.29826468015167,23.6122627325123,9.91575683750298));
#1163=CARTESIAN_POINT('',(1.45178444547733,23.4765085207604,9.89446228265615));
#1164=CARTESIAN_POINT('',(1.60313117072881,23.311816544636,9.87104977457157));
#1165=CARTESIAN_POINT('',(1.74400150326445,23.1184086539272,9.84705307898824));
#1166=CARTESIAN_POINT('',(1.86262072943271,22.9070003150522,9.82519566598158));
#1167=CARTESIAN_POINT('',(1.95870436121825,22.676042867416,9.80641953682015));
#1168=CARTESIAN_POINT('',(2.02603112840241,22.4352779675237,9.79265553160812));
#1169=CARTESIAN_POINT('',(2.06055026529719,22.2053724874088,9.78540846434062));
#1170=CARTESIAN_POINT('',(2.06760283910292,22.0479409486895,9.78391629762155));
#1171=CARTESIAN_POINT('',(2.0662562489295,21.9129708108001,9.78420079070364));
#1172=CARTESIAN_POINT('',(2.05767306676995,21.77726393015,9.78601532122494));
#1173=CARTESIAN_POINT('',(2.02831651152882,21.5853086282326,9.79216239986836));
#1174=CARTESIAN_POINT('',(1.97577000794948,21.3789416150052,9.80295077009359));
#1175=CARTESIAN_POINT('',(1.89494545895545,21.1630803754898,9.81897757133043));
#1176=CARTESIAN_POINT('',(1.78829482450735,20.954721212128,9.83904550237222));
#1177=CARTESIAN_POINT('',(1.66285430620265,20.7657013004454,9.86107781874704));
#1178=CARTESIAN_POINT('',(1.52369583461817,20.5978588486367,9.88359696903811));
#1179=CARTESIAN_POINT('',(1.36039492443985,20.4378199031326,9.90756985234873));
#1180=CARTESIAN_POINT('',(1.171637039825,20.2909621354036,9.93186342173683));
#1181=CARTESIAN_POINT('',(0.961618320009317,20.1651778656031,9.95441050395519));
#1182=CARTESIAN_POINT('',(0.755816834939477,20.072101442172,9.97208335120527));
#1183=CARTESIAN_POINT('',(0.562856909748097,20.0081163431414,9.9847064815703));
#1184=CARTESIAN_POINT('',(0.390428153290761,19.9679927301669,9.99281415808251));
#1185=CARTESIAN_POINT('',(0.245517710998695,19.9462365847521,9.99727207851828));
#1186=CARTESIAN_POINT('',(0.117897559160286,19.9352913812611,9.99952809259595));
#1187=CARTESIAN_POINT('',(0.0405926111707318,19.9330095322185,10.0000018168668));
#1188=CARTESIAN_POINT('',(1.04710246278119E-15,19.9330127019177,10.));
#1189=CARTESIAN_POINT('',(-1.7754433636616E-16,19.9330127019177,10.));
#1190=CARTESIAN_POINT('',(-0.0433987920927579,19.9330084192877,10.0000031730241));
#1191=CARTESIAN_POINT('',(-0.144572657082884,19.936202956511,9.99933864377275));
#1192=CARTESIAN_POINT('',(-0.3171354135563,19.9543696491824,9.99559629674029));
#1193=CARTESIAN_POINT('',(-0.529625665137073,19.9972741387786,9.98686185251246));
#1194=CARTESIAN_POINT('',(-0.753908983822568,20.0702083131751,9.97241449044678));
#1195=CARTESIAN_POINT('',(-0.963142844521367,20.1668807660583,9.95412325572042));
#1196=CARTESIAN_POINT('',(-1.14007101411862,20.2722331706899,9.93524183866063));
#1197=CARTESIAN_POINT('',(-1.29826468015172,20.3877372674877,9.91575683750298));
#1198=CARTESIAN_POINT('',(-1.45178444547734,20.5234914792397,9.89446228265615));
#1199=CARTESIAN_POINT('',(-1.6031311707288,20.688183455364,9.87104977457158));
#1200=CARTESIAN_POINT('',(-1.74400150326445,20.8815913460728,9.84705307898824));
#1201=CARTESIAN_POINT('',(-1.86262072943272,21.0929996849478,9.82519566598158));
#1202=CARTESIAN_POINT('',(-1.95870436121826,21.323957132584,9.80641953682015));
#1203=CARTESIAN_POINT('',(-2.02603112840241,21.5647220324763,9.79265553160812));
#1204=CARTESIAN_POINT('',(-2.06055026529719,21.7946275125912,9.78540846434062));
#1205=CARTESIAN_POINT('',(-2.06760283910292,21.9520590513105,9.78391629762154));
#1206=CARTESIAN_POINT('',(-2.0662562489295,22.0870291891999,9.78420079070365));
#1207=CARTESIAN_POINT('',(-2.05767306676995,22.22273606985,9.78601532122493));
#1208=CARTESIAN_POINT('',(-2.02831651152882,22.4146913717674,9.79216239986835));
#1209=CARTESIAN_POINT('',(-1.97577000794949,22.6210583849948,9.8029507700936));
#1210=CARTESIAN_POINT('',(-1.89494545895543,22.8369196245102,9.81897757133042));
#1211=CARTESIAN_POINT('',(-1.78829482450734,23.045278787872,9.83904550237223));
#1212=CARTESIAN_POINT('',(-1.66285430620268,23.2342986995546,9.86107781874703));
#1213=CARTESIAN_POINT('',(-1.52369583461824,23.4021411513632,9.8835969690381));
#1214=CARTESIAN_POINT('',(-1.36039492443969,23.5621800968675,9.90756985234875));
#1215=CARTESIAN_POINT('',(-1.17163703982478,23.7090378645965,9.93186342173686));
#1216=CARTESIAN_POINT('',(-0.961618320009981,23.8348221343965,9.95441050395514));
#1217=CARTESIAN_POINT('',(-0.755816834938604,23.9278985578286,9.97208335120534));
#1218=CARTESIAN_POINT('',(-0.562856909747895,23.991883656858,9.9847064815703));
#1219=CARTESIAN_POINT('',(-0.390428153293483,24.0320072698343,9.99281415808241));
#1220=CARTESIAN_POINT('',(-0.245517710998288,24.0537634152432,9.99727207851828));
#1221=CARTESIAN_POINT('',(-0.117897559161756,24.0647086187517,9.99952809259594));
#1222=CARTESIAN_POINT('',(-0.0405926111717803,24.0669904677501,10.0000018168668));
#1223=CARTESIAN_POINT('',(-6.83810212040948E-16,24.066987298,10.));
#1224=CARTESIAN_POINT('',(10.000000001121,24.066987298,-3.59190461804924E-16));
#1225=CARTESIAN_POINT('',(10.0000000005605,24.066987298,2.79388352730781E-11));
#1226=CARTESIAN_POINT('',(9.99999983975134,24.0669866317728,-0.0563897887910423));
#1227=CARTESIAN_POINT('',(9.99909921262139,24.0626365828603,-0.16264844154331));
#1228=CARTESIAN_POINT('',(9.99541983997243,24.0447508665887,-0.313462976240635));
#1229=CARTESIAN_POINT('',(9.98999852972392,24.0181179141471,-0.454040374853323));
#1230=CARTESIAN_POINT('',(9.98278296568122,23.9821551020672,-0.592087360223472));
#1231=CARTESIAN_POINT('',(9.97360555073099,23.9354873899049,-0.730463909220588));
#1232=CARTESIAN_POINT('',(9.96251624055543,23.8776146387082,-0.868652288854418));
#1233=CARTESIAN_POINT('',(9.94952253103096,23.8075786603522,-1.00672952600098));
#1234=CARTESIAN_POINT('',(9.93398757848045,23.7203322686999,-1.15025322353625));
#1235=CARTESIAN_POINT('',(9.91575649540557,23.6122604468924,-1.29826747711427));
#1236=CARTESIAN_POINT('',(9.89446213292958,23.4765075366329,-1.4517853452863));
#1237=CARTESIAN_POINT('',(9.87104973739584,23.3118162362062,-1.60313141547525));
#1238=CARTESIAN_POINT('',(9.84705306885587,23.1184085618897,-1.74400155180922));
#1239=CARTESIAN_POINT('',(9.82519566715029,22.9070003256024,-1.86262072485592));
#1240=CARTESIAN_POINT('',(9.80641953689009,22.676042870098,-1.95870436046699));
#1241=CARTESIAN_POINT('',(9.79265553153536,22.4352779654183,-2.02603112886102));
#1242=CARTESIAN_POINT('',(9.78540846431981,22.2053724867275,-2.06055026537411));
#1243=CARTESIAN_POINT('',(9.78391629761405,22.0479409477709,-2.06760283913932));
#1244=CARTESIAN_POINT('',(9.7842007907169,21.9129708097576,-2.06625624886622));
#1245=CARTESIAN_POINT('',(9.78601532122905,21.777263930019,-2.05767306675077));
#1246=CARTESIAN_POINT('',(9.79216239985345,21.5853086286569,-2.02831651159922));
#1247=CARTESIAN_POINT('',(9.80295077006115,21.3789416154441,-1.9757700081138));
#1248=CARTESIAN_POINT('',(9.81897757142237,21.163080374314,-1.89494545848403));
#1249=CARTESIAN_POINT('',(9.83904550246946,20.9547212113664,-1.78829482397654));
#1250=CARTESIAN_POINT('',(9.86107781842254,20.7657013030208,-1.66285430798036));
#1251=CARTESIAN_POINT('',(9.88359696895016,20.5978588493496,-1.52369583569058));
#1252=CARTESIAN_POINT('',(9.90756985256768,20.4378199010549,-1.36039492103483));
#1253=CARTESIAN_POINT('',(9.93186342144545,20.2909621402925,-1.17163705021218));
#1254=CARTESIAN_POINT('',(9.95441050971681,20.1651778222691,-0.961618240646069));
#1255=CARTESIAN_POINT('',(9.97208334903225,20.0721014925987,-0.755816931072063));
#1256=CARTESIAN_POINT('',(9.98470648585722,20.0081162069993,-0.562856554335433));
#1257=CARTESIAN_POINT('',(9.99281462181322,19.9679907694523,-0.390419863878825));
#1258=CARTESIAN_POINT('',(9.9971923346031,19.9466248844761,-0.248100025731727));
#1259=CARTESIAN_POINT('',(9.99935654589759,19.9361249333585,-0.128353962925968));
#1260=CARTESIAN_POINT('',(9.99994901736105,19.9332593557419,-0.0510849134951192));
#1261=CARTESIAN_POINT('',(10.0000536730072,19.9327530872939,0.0376277092449292));
#1262=CARTESIAN_POINT('',(9.99928621370853,19.9364630490778,0.150004144013021));
#1263=CARTESIAN_POINT('',(9.99549206515426,19.9548765772149,0.318462785726273));
#1264=CARTESIAN_POINT('',(9.98840822338459,19.9896953929892,0.491379622064435));
#1265=CARTESIAN_POINT('',(9.97902155574114,20.0368193179196,0.652998182877372));
#1266=CARTESIAN_POINT('',(9.96771469683352,20.09497343683,0.808040446793444));
#1267=CARTESIAN_POINT('',(9.95344996191426,20.1707620855301,0.968665181061191));
#1268=CARTESIAN_POINT('',(9.93581100735868,20.2689532178951,1.13527951607673));
#1269=CARTESIAN_POINT('',(9.91660277897093,20.382530664748,1.29177584197588));
#1270=CARTESIAN_POINT('',(9.89631544581239,20.5116103777982,1.43858520706757));
#1271=CARTESIAN_POINT('',(9.87489583798611,20.6603678264806,1.57894978836273));
#1272=CARTESIAN_POINT('',(9.85221363590487,20.8377036431356,1.71461350752832));
#1273=CARTESIAN_POINT('',(9.83013500630332,21.0412600753808,1.83650153938593));
#1274=CARTESIAN_POINT('',(9.81136845511501,21.2574751780192,1.93375853322782));
#1275=CARTESIAN_POINT('',(9.79740438968925,21.4739999611005,2.00297209757736));
#1276=CARTESIAN_POINT('',(9.78829544298867,21.687114993869,2.04685190287368));
#1277=CARTESIAN_POINT('',(9.78458630643776,21.8618006013776,2.0644312969286));
#1278=CARTESIAN_POINT('',(9.78385536574948,22.0032513329728,2.06789145858754));
#1279=CARTESIAN_POINT('',(9.78465625455053,22.1445780831599,2.06410068436553));
#1280=CARTESIAN_POINT('',(9.78870194761199,22.3267530009468,2.04491599097102));
#1281=CARTESIAN_POINT('',(9.79851897370904,22.5479656315103,1.99756863625584));
#1282=CARTESIAN_POINT('',(9.81356534681846,22.7713571510373,1.9226725545223));
#1283=CARTESIAN_POINT('',(9.83276777385997,22.9847070078256,1.82234897778684));
#1284=CARTESIAN_POINT('',(9.85413589567336,23.1777703591367,1.70335469158863));
#1285=CARTESIAN_POINT('',(9.87631920451136,23.3500692936219,1.57001012664148));
#1286=CARTESIAN_POINT('',(9.90025976229989,23.5153263854016,1.4123802493454));
#1287=CARTESIAN_POINT('',(9.92489853924868,23.6682798485215,1.22895222437506));
#1288=CARTESIAN_POINT('',(9.94819634264211,23.8009469953925,1.02363092294539));
#1289=CARTESIAN_POINT('',(9.96687936547982,23.9008912998163,0.82136162105275));
#1290=CARTESIAN_POINT('',(9.98071839176587,23.9718554719643,0.629625530379544));
#1291=CARTESIAN_POINT('',(9.99011370391661,24.0187194361555,0.454876501458791));
#1292=CARTESIAN_POINT('',(9.99588210378532,24.0470033727552,0.299054545833257));
#1293=CARTESIAN_POINT('',(9.99923520213356,24.0632928349166,0.149467390141775));
#1294=CARTESIAN_POINT('',(10.0000001501496,24.0669879177428,0.0524553272489792));
#1295=CARTESIAN_POINT('',(10.0000000005605,24.066987298,2.79388352730781E-11));
#1296=CARTESIAN_POINT('',(11.1369318036881,4.,16.1369318036881));
#1297=AXIS2_PLACEMENT_3D('',#1298,#1299,#1300);
#1298=CARTESIAN_POINT('',(11.1369318036881,4.,11.1369318036881));
#1299=DIRECTION('',(1.23259516440783E-32,1.,6.12323399573677E-17));
#1300=DIRECTION('',(-3.5527136788005E-16,-6.12323399573677E-17,1.));
#1301=CARTESIAN_POINT('',(-16.1369318036881,4.,11.1369318036881));
#1302=AXIS2_PLACEMENT_3D('',#1303,#1304,#1305);
#1303=CARTESIAN_POINT('',(-11.1369318036881,4.,11.1369318036881));
#1304=DIRECTION('',(1.12481983699639E-32,1.,6.12323399573677E-17));
#1305=DIRECTION('',(-1.,1.12481983699639E-32,6.8875350649754E-49));
#1306=CARTESIAN_POINT('',(-11.1369318036881,4.,-16.1369318036881));
#1307=AXIS2_PLACEMENT_3D('',#1308,#1309,#1310);
#1308=CARTESIAN_POINT('',(-11.1369318036881,4.,-11.1369318036881));
#1309=DIRECTION('',(1.23259516440783E-32,1.,6.12323399573677E-17));
#1310=DIRECTION('',(7.54746861368278E-49,6.12323399573677E-17,-1.));
#1311=CARTESIAN_POINT('',(1.79435204087131E-15,-0.349693972308704,9.76799755445466));
#1312=AXIS2_PLACEMENT_3D('',#1313,#1314,#1315);
#1313=CARTESIAN_POINT('',(-3.93342716930925E-33,-0.349693972308729,-2.14125801934504E-17));
#1314=DIRECTION('',(1.12481983699639E-32,1.,6.12323399573677E-17));
#1315=DIRECTION('',(1.83697019872103E-16,-6.12323399573677E-17,1.));
#1316=CARTESIAN_POINT('',(2.44929359829471E-16,19.9330127019977,4.));
#1317=CARTESIAN_POINT('',(-4.96011403164883E-16,24.066987298,4.));
#1318=CARTESIAN_POINT('',(-1.24515574416716E-16,24.066987298,4.));
#1319=CARTESIAN_POINT('',(0.0325761321032399,24.0669882046358,4.00000139044319));
#1320=CARTESIAN_POINT('',(0.0976936778712715,24.0654459506639,3.99920276097255));
#1321=CARTESIAN_POINT('',(0.195021831642688,24.0585365644336,3.99563728911565));
#1322=CARTESIAN_POINT('',(0.29180069524499,24.0470589293546,3.98973282338884));
#1323=CARTESIAN_POINT('',(0.387784140768943,24.0310614868678,3.98154405352476));
#1324=CARTESIAN_POINT('',(0.493227653632779,24.0083465523268,3.9699937532395));
#1325=CARTESIAN_POINT('',(0.617645269771284,23.9743270744594,3.95285823958097));
#1326=CARTESIAN_POINT('',(0.769659136441757,23.921072906583,3.92645366212122));
#1327=CARTESIAN_POINT('',(0.92645717980794,23.850577237414,3.89236756328648));
#1328=CARTESIAN_POINT('',(1.06814784819046,23.771640399733,3.85547924762007));
#1329=CARTESIAN_POINT('',(1.17783026931527,23.6998937036665,3.82308872164644));
#1330=CARTESIAN_POINT('',(1.26648088081382,23.6345503544731,3.79451087058862));
#1331=CARTESIAN_POINT('',(1.34301126578215,23.5722503442454,3.76807832010354));
#1332=CARTESIAN_POINT('',(1.41556888930524,23.5072198935819,3.741397270566));
#1333=CARTESIAN_POINT('',(1.48586530285399,23.4380298689799,3.714034927402));
#1334=CARTESIAN_POINT('',(1.55583018482192,23.3622158541794,3.68528761309352));
#1335=CARTESIAN_POINT('',(1.63889243401174,23.2623205336269,3.64928322045166));
#1336=CARTESIAN_POINT('',(1.74086253822247,23.1207710174275,3.60205120354158));
#1337=CARTESIAN_POINT('',(1.84985743167053,22.9324263782793,3.54723966646994));
#1338=CARTESIAN_POINT('',(1.93785720699723,22.7296320012927,3.49957061748205));
#1339=CARTESIAN_POINT('',(1.99272608805599,22.5561764889272,3.46838727154677));
#1340=CARTESIAN_POINT('',(2.02469836625446,22.4212482386856,3.4497589723026));
#1341=CARTESIAN_POINT('',(2.04630645581628,22.3004408702524,3.43697362335871));
#1342=CARTESIAN_POINT('',(2.06134543300325,22.1721690508477,3.42795970081812));
#1343=CARTESIAN_POINT('',(2.06651256765884,22.0687834495509,3.42483950676776));
#1344=CARTESIAN_POINT('',(2.06727261745351,21.9769228583253,3.42438080987699));
#1345=CARTESIAN_POINT('',(2.0652658040717,21.896753323572,3.42559293681114));
#1346=CARTESIAN_POINT('',(2.0575566838412,21.7940574608143,3.43023412764085));
#1347=CARTESIAN_POINT('',(2.04480936900263,21.6922859439349,3.43785656505724));
#1348=CARTESIAN_POINT('',(2.02708941336195,21.5915660069475,3.44834591395434));
#1349=CARTESIAN_POINT('',(2.00198430663005,21.4811305448563,3.46300880997192));
#1350=CARTESIAN_POINT('',(1.96427513804939,21.350476698843,3.48462104340152));
#1351=CARTESIAN_POINT('',(1.90496227067006,21.1904361156317,3.51757899552973));
#1352=CARTESIAN_POINT('',(1.82428233276227,21.0216595098738,3.56028613551805));
#1353=CARTESIAN_POINT('',(1.72949343093227,20.8636251517734,3.6073033098005));
#1354=CARTESIAN_POINT('',(1.62205220234415,20.714445549533,3.65705280179619));
#1355=CARTESIAN_POINT('',(1.48405578180718,20.5548175310643,3.7158822083766));
#1356=CARTESIAN_POINT('',(1.29411667405912,20.3798481431718,3.7872981064471));
#1357=CARTESIAN_POINT('',(1.07601966598984,20.22849571248,3.85501672011962));
#1358=CARTESIAN_POINT('',(0.875874441931635,20.1246691306338,3.90422515879242));
#1359=CARTESIAN_POINT('',(0.734081313025524,20.0665469924608,3.9326060007677));
#1360=CARTESIAN_POINT('',(0.632268237308293,20.0314208729639,3.95002318285232));
#1361=CARTESIAN_POINT('',(0.548302989283644,20.0064333686402,3.9625422476093));
#1362=CARTESIAN_POINT('',(0.465399066667736,19.985503612671,3.97311858719413));
#1363=CARTESIAN_POINT('',(0.376076101650682,19.9667799463656,3.98264620813689));
#1364=CARTESIAN_POINT('',(0.279873579784734,19.9511565313305,3.99064846273589));
#1365=CARTESIAN_POINT('',(0.17683194787815,19.9397381006767,3.99652671642923));
#1366=CARTESIAN_POINT('',(0.083666713114853,19.9340751036773,3.99945061538254));
#1367=CARTESIAN_POINT('',(0.024885950265807,19.9330121603435,4.00000074027456));
#1368=CARTESIAN_POINT('',(1.58183014390811E-11,19.9330127019988,4.));
#1369=CARTESIAN_POINT('',(-3.61241356238263E-16,19.9330127019988,4.));
#1370=CARTESIAN_POINT('',(-0.0325761321032205,19.9330117953638,4.00000139044319));
#1371=CARTESIAN_POINT('',(-0.0976936778712348,19.9345540493363,3.99920276097255));
#1372=CARTESIAN_POINT('',(-0.195021831642679,19.9414634355663,3.99563728911565));
#1373=CARTESIAN_POINT('',(-0.291800695244989,19.9529410706455,3.98973282338884));
#1374=CARTESIAN_POINT('',(-0.387784140768935,19.9689385131322,3.98154405352476));
#1375=CARTESIAN_POINT('',(-0.493227653632773,19.9916534476732,3.9699937532395));
#1376=CARTESIAN_POINT('',(-0.617645269771295,20.0256729255406,3.95285823958097));
#1377=CARTESIAN_POINT('',(-0.769659136441753,20.078927093417,3.92645366212123));
#1378=CARTESIAN_POINT('',(-0.926457179807943,20.149422762586,3.89236756328648));
#1379=CARTESIAN_POINT('',(-1.06814784819047,20.228359600267,3.85547924762007));
#1380=CARTESIAN_POINT('',(-1.17783026931527,20.3001062963335,3.82308872164644));
#1381=CARTESIAN_POINT('',(-1.26648088081382,20.3654496455269,3.79451087058863));
#1382=CARTESIAN_POINT('',(-1.34301126578215,20.4277496557546,3.76807832010354));
#1383=CARTESIAN_POINT('',(-1.41556888930523,20.4927801064181,3.741397270566));
#1384=CARTESIAN_POINT('',(-1.48586530285399,20.5619701310201,3.714034927402));
#1385=CARTESIAN_POINT('',(-1.55583018482192,20.6377841458206,3.68528761309352));
#1386=CARTESIAN_POINT('',(-1.63889243401173,20.7376794663731,3.64928322045166));
#1387=CARTESIAN_POINT('',(-1.74086253822246,20.8792289825725,3.60205120354158));
#1388=CARTESIAN_POINT('',(-1.84985743167053,21.0675736217207,3.54723966646994));
#1389=CARTESIAN_POINT('',(-1.93785720699724,21.2703679987073,3.49957061748205));
#1390=CARTESIAN_POINT('',(-1.99272608805599,21.4438235110728,3.46838727154677));
#1391=CARTESIAN_POINT('',(-2.02469836625446,21.5787517613144,3.4497589723026));
#1392=CARTESIAN_POINT('',(-2.04630645581628,21.6995591297476,3.43697362335871));
#1393=CARTESIAN_POINT('',(-2.06134543300325,21.8278309491523,3.42795970081812));
#1394=CARTESIAN_POINT('',(-2.06651256765885,21.9312165504491,3.42483950676776));
#1395=CARTESIAN_POINT('',(-2.06727261745351,22.0230771416747,3.42438080987699));
#1396=CARTESIAN_POINT('',(-2.0652658040717,22.103246676428,3.42559293681115));
#1397=CARTESIAN_POINT('',(-2.05755668384121,22.2059425391856,3.43023412764084));
#1398=CARTESIAN_POINT('',(-2.04480936900263,22.307714056065,3.43785656505725));
#1399=CARTESIAN_POINT('',(-2.02708941336197,22.4084339930525,3.44834591395433));
#1400=CARTESIAN_POINT('',(-2.00198430663006,22.5188694551437,3.46300880997191));
#1401=CARTESIAN_POINT('',(-1.9642751380494,22.649523301157,3.48462104340151));
#1402=CARTESIAN_POINT('',(-1.90496227067007,22.8095638843683,3.51757899552973));
#1403=CARTESIAN_POINT('',(-1.82428233276228,22.9783404901262,3.56028613551804));
#1404=CARTESIAN_POINT('',(-1.72949343093227,23.1363748482265,3.60730330980049));
#1405=CARTESIAN_POINT('',(-1.62205220234416,23.285554450467,3.65705280179619));
#1406=CARTESIAN_POINT('',(-1.48405578180719,23.4451824689357,3.7158822083766));
#1407=CARTESIAN_POINT('',(-1.29411667405914,23.6201518568282,3.78729810644709));
#1408=CARTESIAN_POINT('',(-1.0760196659898,23.77150428752,3.85501672011964));
#1409=CARTESIAN_POINT('',(-0.875874441931485,23.8753308693662,3.90422515879245));
#1410=CARTESIAN_POINT('',(-0.734081313025049,23.9334530075394,3.93260600076779));
#1411=CARTESIAN_POINT('',(-0.632268237307307,23.9685791270364,3.95002318285248));
#1412=CARTESIAN_POINT('',(-0.54830298928185,23.9935666313603,3.96254224760955));
#1413=CARTESIAN_POINT('',(-0.465399066664823,24.0144963873297,3.97311858719447));
#1414=CARTESIAN_POINT('',(-0.376076101646017,24.0332200536353,3.98264620813734));
#1415=CARTESIAN_POINT('',(-0.27987357977771,24.0488434686706,3.99064846273641));
#1416=CARTESIAN_POINT('',(-0.176831947868172,24.0602618993242,3.9965267164297));
#1417=CARTESIAN_POINT('',(-0.0836667131019403,24.0659248963236,3.99945061538283));
#1418=CARTESIAN_POINT('',(-0.0248859502508975,24.0669878396562,4.00000074027466));
#1419=CARTESIAN_POINT('',(-8.67507231913051E-16,24.066987298,4.));
#1420=CARTESIAN_POINT('',(8.26636589424464E-16,35.,4.5));
#1421=AXIS2_PLACEMENT_3D('',#1422,#1423,#1424);
#1422=CARTESIAN_POINT('',(3.93686942948738E-31,35.,2.14313189850787E-15));
#1423=DIRECTION('',(1.12481983699639E-32,1.,6.12323399573677E-17));
#1424=DIRECTION('',(1.83697019872103E-16,-6.12323399573677E-17,1.));
#1425=CARTESIAN_POINT('',(4.00000000001673,24.066987298,8.20357800689861E-18));
#1426=CARTESIAN_POINT('',(4.00000000000837,24.066987298,1.90993679205498E-11));
#1427=CARTESIAN_POINT('',(4.00000048882127,24.0669877539457,-0.0607480042722611));
#1428=CARTESIAN_POINT('',(3.9972240865893,24.0616232632505,-0.182267267848699));
#1429=CARTESIAN_POINT('',(3.98486607344938,24.0376049709227,-0.362787832374887));
#1430=CARTESIAN_POINT('',(3.96459656988336,23.9977525830735,-0.540856296702516));
#1431=CARTESIAN_POINT('',(3.93673755135442,23.9419977379432,-0.715851078773683));
#1432=CARTESIAN_POINT('',(3.89684651711176,23.8601546713557,-0.910672606558657));
#1433=CARTESIAN_POINT('',(3.83704178043407,23.7326672060331,-1.14043106270828));
#1434=CARTESIAN_POINT('',(3.74741762116011,23.5273169491918,-1.40955151178153));
#1435=CARTESIAN_POINT('',(3.64415588629872,23.2569975646989,-1.65549210998625));
#1436=CARTESIAN_POINT('',(3.55366569704477,22.9620176737159,-1.83844396384881));
#1437=CARTESIAN_POINT('',(3.4944919343464,22.7076508899198,-1.94709742123997));
#1438=CARTESIAN_POINT('',(3.45787288663805,22.4913298633637,-2.01098646421888));
#1439=CARTESIAN_POINT('',(3.43627046704256,22.3029431410017,-2.0475221264086));
#1440=CARTESIAN_POINT('',(3.42628292695821,22.1391504231793,-2.06412314219197));
#1441=CARTESIAN_POINT('',(3.42425264921689,22.0223596203211,-2.06748494668155));
#1442=CARTESIAN_POINT('',(3.42508067561975,21.9130165269332,-2.06611286381403));
#1443=CARTESIAN_POINT('',(3.42966766269359,21.7928533411772,-2.05851412756769));
#1444=CARTESIAN_POINT('',(3.44249640840739,21.638091621743,-2.03704121143604));
#1445=CARTESIAN_POINT('',(3.4625173367069,21.4804878526028,-2.00292732823051));
#1446=CARTESIAN_POINT('',(3.49145805727438,21.3127386125023,-1.95225028313851));
#1447=CARTESIAN_POINT('',(3.53016317329655,21.137074576569,-1.88170679532959));
#1448=CARTESIAN_POINT('',(3.57794762892723,20.9590205531029,-1.78959485089767));
#1449=CARTESIAN_POINT('',(3.63138732200305,20.7885956121025,-1.67892933472492));
#1450=CARTESIAN_POINT('',(3.69255300603943,20.6158245928687,-1.5407873538688));
#1451=CARTESIAN_POINT('',(3.76352205192947,20.4359791649803,-1.36108956358704));
#1452=CARTESIAN_POINT('',(3.8397636446769,20.2611826468996,-1.13137510282579));
#1453=CARTESIAN_POINT('',(3.90462383414498,20.1233595625787,-0.88095717940244));
#1454=CARTESIAN_POINT('',(3.94889486862674,20.0334567590054,-0.649091746967339));
#1455=CARTESIAN_POINT('',(3.97670232155189,19.9783628397431,-0.444948922040051));
#1456=CARTESIAN_POINT('',(3.99345602608777,19.9456754658427,-0.254226177859577));
#1457=CARTESIAN_POINT('',(3.99934776960626,19.9342752097169,-0.105074460532577));
#1458=CARTESIAN_POINT('',(4.00032581221386,19.9323821886065,0.0215796670462032));
#1459=CARTESIAN_POINT('',(3.99834084885692,19.9362222195981,0.146998871970049));
#1460=CARTESIAN_POINT('',(3.98909259725326,19.9541543377445,0.314408701588767));
#1461=CARTESIAN_POINT('',(3.97001495811669,19.9915257233404,0.500596404177304));
#1462=CARTESIAN_POINT('',(3.94263402415087,20.0460841899085,0.683203991534008));
#1463=CARTESIAN_POINT('',(3.90291608559728,20.1271774275498,0.88475940179675));
#1464=CARTESIAN_POINT('',(3.84320463350279,20.2537506290512,1.11990052954615));
#1465=CARTESIAN_POINT('',(3.75307883480307,20.4588797027526,1.3947972043343));
#1466=CARTESIAN_POINT('',(3.64900564711941,20.7290043572225,1.64497856453641));
#1467=CARTESIAN_POINT('',(3.55715345323285,21.0251375735386,1.83178529478768));
#1468=CARTESIAN_POINT('',(3.49681555903146,21.2807286833029,1.94296064232141));
#1469=CARTESIAN_POINT('',(3.45921184415952,21.4991461971661,2.00869607225646));
#1470=CARTESIAN_POINT('',(3.43690956029269,21.6894845006024,2.04645532117287));
#1471=CARTESIAN_POINT('',(3.42640770136223,21.856435809477,2.06391687608033));
#1472=CARTESIAN_POINT('',(3.42424529059117,21.975578641806,2.06749713869199));
#1473=CARTESIAN_POINT('',(3.42508440893423,22.0884890318968,2.06610663721429));
#1474=CARTESIAN_POINT('',(3.42991586077491,22.2128742558659,2.05810402904416));
#1475=CARTESIAN_POINT('',(3.4437173383067,22.3742552595031,2.03498960873452));
#1476=CARTESIAN_POINT('',(3.46524078018868,22.537893758097,1.99824044001045));
#1477=CARTESIAN_POINT('',(3.49590634381019,22.7097274746983,1.94431994158751));
#1478=CARTESIAN_POINT('',(3.53615127268154,22.8871005343368,1.87048486795397));
#1479=CARTESIAN_POINT('',(3.58473794017725,23.063945031535,1.77599322294903));
#1480=CARTESIAN_POINT('',(3.63805301596426,23.2310564241085,1.66442440970157));
#1481=CARTESIAN_POINT('',(3.69810187111774,23.3987039217065,1.52733587057208));
#1482=CARTESIAN_POINT('',(3.76724750857418,23.5727657056073,1.35050205639583));
#1483=CARTESIAN_POINT('',(3.84177156401021,23.7431628651281,1.12423407038466));
#1484=CARTESIAN_POINT('',(3.90588825840338,23.8792649387498,0.875377920630642));
#1485=CARTESIAN_POINT('',(3.95069204722495,23.9701636788252,0.638944463231573));
#1486=CARTESIAN_POINT('',(3.97927546542793,24.0266993744081,0.423686909271966));
#1487=CARTESIAN_POINT('',(3.99613831599866,24.0595289382222,0.214554276704712));
#1488=CARTESIAN_POINT('',(3.99999942112921,24.066986758044,0.071941130974013));
#1489=CARTESIAN_POINT('',(4.00000000000837,24.066987298,1.90993679205498E-11));
#1490=CARTESIAN_POINT('',(1.83697019872103E-15,-1.20000000000003,10.));
#1491=AXIS2_PLACEMENT_3D('',#1492,#1493,#1494);
#1492=CARTESIAN_POINT('',(-1.34978380439569E-32,-1.20000000000001,-7.34788079488421E-17));
#1493=DIRECTION('',(1.12481983699639E-32,1.,6.12323399573677E-17));
#1494=DIRECTION('',(1.83697019872103E-16,-6.12323399573677E-17,1.));
#1495=CARTESIAN_POINT('',(7.34788079488412E-16,34.5,4.));
#1496=AXIS2_PLACEMENT_3D('',#1497,#1498,#1499);
#1497=CARTESIAN_POINT('',(3.88062843763756E-31,34.5,2.11251572852918E-15));
#1498=DIRECTION('',(1.12481983699639E-32,1.,6.12323399573677E-17));
#1499=DIRECTION('',(1.83697019872103E-16,-6.12323399573677E-17,1.));
#1500=CARTESIAN_POINT('',(7.34788079488412E-16,9.,4.));
#1501=AXIS2_PLACEMENT_3D('',#1502,#1503,#1504);
#1502=CARTESIAN_POINT('',(1.01233785329675E-31,9.,5.51091059616309E-16));
#1503=DIRECTION('',(1.12481983699639E-32,1.,6.12323399573677E-17));
#1504=DIRECTION('',(1.83697019872103E-16,-6.12323399573677E-17,1.));
#1505=CARTESIAN_POINT('',(1.83697019872103E-15,-4.5,10.));
#1506=AXIS2_PLACEMENT_3D('',#1507,#1508,#1509);
#1507=CARTESIAN_POINT('',(-5.06168926648377E-32,-4.5,-2.75545529808155E-16));
#1508=DIRECTION('',(1.12481983699639E-32,1.,6.12323399573677E-17));
#1509=DIRECTION('',(1.83697019872103E-16,-6.12323399573677E-17,1.));
#1510=CARTESIAN_POINT('',(1.74512168878498E-15,-5.,9.5));
#1511=AXIS2_PLACEMENT_3D('',#1512,#1513,#1514);
#1512=CARTESIAN_POINT('',(-5.62409918498197E-32,-5.,-3.06161699786838E-16));
#1513=DIRECTION('',(1.12481983699639E-32,1.,6.12323399573677E-17));
#1514=DIRECTION('',(1.83697019872103E-16,-6.12323399573677E-17,1.));
#1515=CARTESIAN_POINT('',(-66.7,-0.999999999999992,0.));
#1516=AXIS2_PLACEMENT_3D('',#1517,#1518,#1519);
#1517=CARTESIAN_POINT('',(-66.7,8.16839415031284E-15,0.));
#1518=DIRECTION('',(-1.,1.22464679914735E-16,0.));
#1519=DIRECTION('',(-1.22464679914735E-16,-1.,0.));
#1520=CARTESIAN_POINT('',(-85.5819660112501,-0.99999999999999,-1.22464679914735E-16));
#1521=AXIS2_PLACEMENT_3D('',#1522,#1523,#1524);
#1522=CARTESIAN_POINT('',(-85.5819660112501,1.04807680740415E-14,0.));
#1523=DIRECTION('',(-1.,1.22464679914735E-16,0.));
#1524=DIRECTION('',(-1.22464679914735E-16,-1.,0.));
#1525=CARTESIAN_POINT('',(-61.7,-3.49999999999999,0.));
#1526=AXIS2_PLACEMENT_3D('',#1527,#1528,#1529);
#1527=CARTESIAN_POINT('',(-61.7,7.55607075073917E-15,0.));
#1528=DIRECTION('',(-1.,1.22464679914735E-16,0.));
#1529=DIRECTION('',(-1.22464679914735E-16,-1.,0.));
#1530=CARTESIAN_POINT('',(-56.7,-3.49999999999999,0.));
#1531=AXIS2_PLACEMENT_3D('',#1532,#1533,#1534);
#1532=CARTESIAN_POINT('',(-56.7,6.94374735116549E-15,0.));
#1533=DIRECTION('',(-1.,1.22464679914735E-16,0.));
#1534=DIRECTION('',(-1.22464679914735E-16,-1.,0.));
#1535=CARTESIAN_POINT('',(-56.7,-3.99999999999999,0.));
#1536=AXIS2_PLACEMENT_3D('',#1537,#1538,#1539);
#1537=CARTESIAN_POINT('',(-56.7,6.94374735116549E-15,0.));
#1538=DIRECTION('',(-1.,1.22464679914735E-16,0.));
#1539=DIRECTION('',(-1.22464679914735E-16,-1.,0.));
#1540=CARTESIAN_POINT('',(-51.,-3.99999999999999,0.));
#1541=AXIS2_PLACEMENT_3D('',#1542,#1543,#1544);
#1542=CARTESIAN_POINT('',(-51.,6.2456986756515E-15,0.));
#1543=DIRECTION('',(-1.,1.22464679914735E-16,0.));
#1544=DIRECTION('',(-1.22464679914735E-16,-1.,0.));
#1545=CARTESIAN_POINT('',(-51.,-20.4,0.));
#1546=AXIS2_PLACEMENT_3D('',#1547,#1548,#1549);
#1547=CARTESIAN_POINT('',(-51.,6.2456986756515E-15,0.));
#1548=DIRECTION('',(-1.,1.22464679914735E-16,0.));
#1549=DIRECTION('',(-1.22464679914735E-16,-1.,0.));
#1550=CARTESIAN_POINT('',(-50.4,-21.,0.));
#1551=AXIS2_PLACEMENT_3D('',#1552,#1553,#1554);
#1552=CARTESIAN_POINT('',(-50.4,6.17221986770266E-15,0.));
#1553=DIRECTION('',(-1.,1.22464679914735E-16,0.));
#1554=DIRECTION('',(-1.22464679914735E-16,-1.,0.));
#1555=CARTESIAN_POINT('',(-48.9,-21.,0.));
#1556=AXIS2_PLACEMENT_3D('',#1557,#1558,#1559);
#1557=CARTESIAN_POINT('',(-48.9,5.98852284783056E-15,0.));
#1558=DIRECTION('',(-1.,1.22464679914735E-16,0.));
#1559=DIRECTION('',(-1.22464679914735E-16,-1.,0.));
#1560=CARTESIAN_POINT('',(-48.9,-20.2,0.));
#1561=AXIS2_PLACEMENT_3D('',#1562,#1563,#1564);
#1562=CARTESIAN_POINT('',(-48.9,5.98852284783056E-15,0.));
#1563=DIRECTION('',(-1.,1.22464679914735E-16,0.));
#1564=DIRECTION('',(-1.22464679914735E-16,-1.,0.));
#1565=CARTESIAN_POINT('',(-47.3,-20.2,0.));
#1566=AXIS2_PLACEMENT_3D('',#1567,#1568,#1569);
#1567=CARTESIAN_POINT('',(-47.3,5.79257935996698E-15,0.));
#1568=DIRECTION('',(-1.,1.22464679914735E-16,0.));
#1569=DIRECTION('',(-1.22464679914735E-16,-1.,0.));
#1570=CARTESIAN_POINT('',(-47.3,-21.,0.));
#1571=AXIS2_PLACEMENT_3D('',#1572,#1573,#1574);
#1572=CARTESIAN_POINT('',(-47.3,5.79257935996698E-15,0.));
#1573=DIRECTION('',(-1.,1.22464679914735E-16,0.));
#1574=DIRECTION('',(-1.22464679914735E-16,-1.,0.));
#1575=CARTESIAN_POINT('',(-37.3,-21.,0.));
#1576=AXIS2_PLACEMENT_3D('',#1577,#1578,#1579);
#1577=CARTESIAN_POINT('',(-37.3,4.56793256081963E-15,0.));
#1578=DIRECTION('',(-1.,1.22464679914735E-16,0.));
#1579=DIRECTION('',(-1.22464679914735E-16,-1.,0.));
#1580=CARTESIAN_POINT('',(-37.3,-19.7,0.));
#1581=AXIS2_PLACEMENT_3D('',#1582,#1583,#1584);
#1582=CARTESIAN_POINT('',(-37.3,4.56793256081963E-15,0.));
#1583=DIRECTION('',(-1.,1.22464679914735E-16,0.));
#1584=DIRECTION('',(-1.22464679914735E-16,-1.,0.));
#1585=CARTESIAN_POINT('',(-30.3,-19.7,0.));
#1586=AXIS2_PLACEMENT_3D('',#1587,#1588,#1589);
#1587=CARTESIAN_POINT('',(-30.3,3.71067980141648E-15,0.));
#1588=DIRECTION('',(-1.,1.22464679914735E-16,0.));
#1589=DIRECTION('',(-1.22464679914735E-16,-1.,0.));
#1590=CARTESIAN_POINT('',(-30.3,-21.,0.));
#1591=AXIS2_PLACEMENT_3D('',#1592,#1593,#1594);
#1592=CARTESIAN_POINT('',(-30.3,3.71067980141648E-15,0.));
#1593=DIRECTION('',(-1.,1.22464679914735E-16,0.));
#1594=DIRECTION('',(-1.22464679914735E-16,-1.,0.));
#1595=CARTESIAN_POINT('',(-3.4,-21.,0.));
#1596=AXIS2_PLACEMENT_3D('',#1597,#1598,#1599);
#1597=CARTESIAN_POINT('',(-3.4,4.163799117101E-16,0.));
#1598=DIRECTION('',(-1.,1.22464679914735E-16,0.));
#1599=DIRECTION('',(-1.22464679914735E-16,-1.,0.));
#1600=CARTESIAN_POINT('',(-2.8,-20.4,0.));
#1601=AXIS2_PLACEMENT_3D('',#1602,#1603,#1604);
#1602=CARTESIAN_POINT('',(-2.8,3.42901103761259E-16,0.));
#1603=DIRECTION('',(-1.,1.22464679914735E-16,0.));
#1604=DIRECTION('',(-1.22464679914735E-16,-1.,0.));
#1605=CARTESIAN_POINT('',(-2.8,-19.,0.));
#1606=AXIS2_PLACEMENT_3D('',#1607,#1608,#1609);
#1607=CARTESIAN_POINT('',(-2.8,3.42901103761259E-16,0.));
#1608=DIRECTION('',(-1.,1.22464679914735E-16,0.));
#1609=DIRECTION('',(-1.22464679914735E-16,-1.,0.));
#1610=CARTESIAN_POINT('',(-0.600000000000005,-19.,0.));
#1611=AXIS2_PLACEMENT_3D('',#1612,#1613,#1614);
#1612=CARTESIAN_POINT('',(-0.600000000000005,7.34788079488417E-17,0.));
#1613=DIRECTION('',(-1.,1.22464679914735E-16,0.));
#1614=DIRECTION('',(-1.22464679914735E-16,-1.,0.));
#1615=CARTESIAN_POINT('',(-3.50119115480122E-15,-18.4,0.));
#1616=AXIS2_PLACEMENT_3D('',#1617,#1618,#1619);
#1617=CARTESIAN_POINT('',(0.,0.,0.));
#1618=DIRECTION('',(-1.,1.22464679914735E-16,0.));
#1619=DIRECTION('',(-1.22464679914735E-16,-1.,0.));
#1620=CARTESIAN_POINT('',(-6.25493615786125E-16,-4.,0.));
#1621=AXIS2_PLACEMENT_3D('',#1622,#1623,#1624);
#1622=CARTESIAN_POINT('',(0.,0.,0.));
#1623=DIRECTION('',(-1.,1.22464679914735E-16,0.));
#1624=DIRECTION('',(-1.22464679914735E-16,-1.,0.));
#1625=CARTESIAN_POINT('',(24.4,-4.,0.));
#1626=AXIS2_PLACEMENT_3D('',#1627,#1628,#1629);
#1627=CARTESIAN_POINT('',(24.4,-2.98813818991954E-15,0.));
#1628=DIRECTION('',(-1.,1.22464679914735E-16,0.));
#1629=DIRECTION('',(-1.22464679914735E-16,-1.,0.));
#1630=CARTESIAN_POINT('',(25.,-3.4,0.));
#1631=AXIS2_PLACEMENT_3D('',#1632,#1633,#1634);
#1632=CARTESIAN_POINT('',(25.,-3.06161699786838E-15,0.));
#1633=DIRECTION('',(-1.,1.22464679914735E-16,0.));
#1634=DIRECTION('',(-1.22464679914735E-16,-1.,0.));
ENDSEC;
END-ISO-10303-21;
