<svg width="15" height="20" viewBox="0 0 15 20" fill="none" xmlns="http://www.w3.org/2000/svg">
<path d="M15 18.9994L15 0.998888C14.9994 0.816641 14.9491 0.638002 14.8544 0.482197C14.7596 0.326392 14.6242 0.199323 14.4625 0.114667C14.3008 0.0300109 14.1191 -0.00902683 13.9368 0.00175656C13.7546 0.0125399 13.5787 0.0727354 13.4282 0.175864L0.404972 9.17612C-0.134991 9.54913 -0.134991 10.4472 0.404972 10.8212L13.4282 19.8214C13.5784 19.9256 13.7543 19.9867 13.9369 19.9981C14.1194 20.0094 14.3016 19.9706 14.4636 19.8859C14.6257 19.8012 14.7613 19.6737 14.8559 19.5174C14.9504 19.3612 15.0003 19.182 15 18.9994Z" fill="#E0E0E0"/>
</svg>
