<svg width="16" height="20" viewBox="0 0 16 20" fill="none" xmlns="http://www.w3.org/2000/svg">
<path d="M0.973268 1.0006L0.973268 19.0011C0.97384 19.1834 1.02419 19.362 1.11891 19.5178C1.21362 19.6736 1.3491 19.8007 1.51078 19.8853C1.67245 19.97 1.8542 20.009 2.03645 19.9982C2.21869 19.9875 2.39455 19.9273 2.54507 19.8241L15.5683 10.8239C16.1083 10.4509 16.1083 9.55285 15.5683 9.17883L2.54507 0.178578C2.39486 0.0744001 2.21892 0.0133077 2.03637 0.00193837C1.85382 -0.00943092 1.67164 0.0293578 1.50962 0.11409C1.3476 0.198823 1.21194 0.326258 1.11738 0.482551C1.02282 0.638844 0.97298 0.818016 0.973268 1.0006Z" fill="#E0E0E0"/>
</svg>
