<svg width="22" height="22" viewBox="0 0 22 22" fill="none" xmlns="http://www.w3.org/2000/svg">
<path d="M7.12702 1.86685C7.08833 1.77102 7.06889 1.66852 7.06981 1.56518C7.07074 1.46185 7.09201 1.35971 7.13241 1.26459C7.21401 1.0725 7.36859 0.920684 7.56214 0.842546C7.75568 0.764407 7.97235 0.766346 8.16447 0.847935C8.35659 0.929524 8.50842 1.08408 8.58657 1.2776L9.37233 3.24175C9.41102 3.33757 9.43046 3.44008 9.42954 3.54341C9.42861 3.64675 9.40734 3.74889 9.36694 3.844C9.32653 3.93912 9.26779 4.02535 9.19406 4.09776C9.12032 4.17018 9.03305 4.22736 8.93721 4.26605C8.84138 4.30474 8.73886 4.32418 8.63551 4.32325C8.53216 4.32233 8.43001 4.30106 8.33488 4.26066C8.23975 4.22026 8.15352 4.16153 8.08109 4.0878C8.00867 4.01408 7.95148 3.92682 7.91278 3.83099L7.12702 1.86685ZM1.27606 8.58717L3.24046 9.37283C3.33629 9.41152 3.43881 9.43096 3.54216 9.43003C3.64551 9.42911 3.74766 9.40784 3.84279 9.36744C3.93792 9.32704 4.02416 9.2683 4.09658 9.19458C4.169 9.12086 4.2262 9.03359 4.26489 8.93777C4.30359 8.84195 4.32303 8.73944 4.3221 8.63611C4.32118 8.53277 4.29991 8.43063 4.2595 8.33552C4.2191 8.2404 4.16035 8.15417 4.08662 8.08176C4.01289 8.00934 3.92561 7.95216 3.82978 7.91347L1.86538 7.12781C1.76955 7.08912 1.66703 7.06968 1.56368 7.07061C1.46033 7.07153 1.35818 7.0928 1.26305 7.1332C1.16792 7.1736 1.08168 7.23234 1.00926 7.30606C0.936835 7.37978 0.879642 7.46705 0.840947 7.56287C0.762798 7.75639 0.764737 7.97303 0.846337 8.16512C0.927937 8.35722 1.08251 8.50903 1.27606 8.58717ZM20.7236 13.4131L18.7592 12.6274C18.5657 12.5493 18.349 12.5512 18.1569 12.6328C17.9648 12.7144 17.8129 12.869 17.7348 13.0625C17.6566 13.256 17.6586 13.4726 17.7402 13.6647C17.8218 13.8568 17.9763 14.0086 18.1699 14.0868L20.1343 14.8724C20.3278 14.9506 20.5445 14.9486 20.7366 14.867C20.9287 14.7855 21.0806 14.6309 21.1587 14.4374C21.2369 14.2439 21.2349 14.0272 21.1533 13.8351C21.0717 13.643 20.9172 13.4912 20.7236 13.4131ZM14.0869 18.1693C14.0087 17.9757 13.8569 17.8212 13.6648 17.7396C13.4727 17.658 13.256 17.6561 13.0624 17.7342C12.8689 17.8123 12.7143 17.9641 12.6327 18.1562C12.5511 18.3483 12.5492 18.565 12.6273 18.7585L13.4131 20.7226C13.4912 20.9162 13.6431 21.0707 13.8352 21.1523C14.0273 21.2339 14.244 21.2358 14.4375 21.1577C14.6311 21.0796 14.7857 20.9277 14.8673 20.7357C14.9489 20.5436 14.9508 20.3269 14.8726 20.1334L14.0869 18.1693ZM21.7952 0.248392C21.7231 0.171499 21.6363 0.10989 21.5399 0.0672341C21.4435 0.0245779 21.3396 0.00174556 21.2342 9.6229e-05C21.1288 -0.0015531 21.0241 0.0180143 20.9265 0.0576336C20.8288 0.097253 20.7401 0.156114 20.6657 0.230714L15.5179 5.37776L14.9895 4.8494C14.6976 4.55721 14.351 4.32541 13.9694 4.16726C13.5879 4.00911 13.1789 3.92771 12.7658 3.92771C12.3528 3.92771 11.9438 4.00911 11.5622 4.16726C11.1807 4.32541 10.834 4.55721 10.5421 4.8494L8.85274 6.53562C8.81622 6.5721 8.78724 6.61543 8.76747 6.66312C8.74769 6.71081 8.73752 6.76192 8.73752 6.81355C8.73752 6.86517 8.74769 6.91629 8.76747 6.96398C8.78724 7.01167 8.81622 7.05499 8.85274 7.09147L14.9129 13.1469C14.9494 13.1835 14.9927 13.2124 15.0404 13.2322C15.0881 13.252 15.1392 13.2621 15.1909 13.2621C15.2425 13.2621 15.2936 13.252 15.3413 13.2322C15.389 13.2124 15.4323 13.1835 15.4688 13.1469L17.113 11.5029C17.7089 10.9186 18.0544 10.1256 18.0766 9.29132C18.0847 8.86956 18.0074 8.45052 17.8492 8.05946C17.691 7.66839 17.4553 7.31339 17.1563 7.01585L16.6278 6.48848L21.7549 1.36501C21.9043 1.22 21.992 1.02287 21.9995 0.814792C22.007 0.606714 21.9338 0.403784 21.7952 0.248392ZM6.83924 7.30164C6.7648 7.22719 6.67617 7.16846 6.57859 7.12893C6.48101 7.0894 6.37649 7.06988 6.27122 7.07153C6.16595 7.07318 6.06209 7.09596 5.9658 7.13853C5.86951 7.18109 5.78275 7.24257 5.71069 7.31931C5.57209 7.47471 5.49889 7.67764 5.5064 7.88571C5.5139 8.09379 5.60152 8.29092 5.75096 8.43593L6.35108 9.03598L4.84537 10.5395C4.54696 10.8372 4.31186 11.1922 4.15421 11.583C3.99655 11.9739 3.91961 12.3926 3.928 12.814C3.94874 13.6481 4.29282 14.4414 4.88761 15.0266L5.37871 15.5118L0.24377 20.6372C0.098886 20.7783 0.0123133 20.9687 0.0012158 21.1706C-0.00988166 21.3725 0.0553064 21.5712 0.183856 21.7273C0.25445 21.8092 0.341187 21.8756 0.438639 21.9225C0.536091 21.9693 0.642161 21.9955 0.750212 21.9995C0.858263 22.0034 0.96597 21.9851 1.06659 21.9455C1.16721 21.9059 1.25859 21.846 1.33499 21.7695L6.48172 16.6225L7.00916 17.1508C7.6 17.7389 8.39971 18.069 9.23335 18.069C10.067 18.069 10.8667 17.7389 11.4575 17.1508L12.9642 15.6463L13.5869 16.2699C13.6599 16.3429 13.7466 16.4008 13.842 16.4403C13.9374 16.4798 14.0396 16.5002 14.1429 16.5002C14.2461 16.5002 14.3483 16.4798 14.4437 16.4403C14.5391 16.4008 14.6258 16.3429 14.6988 16.2699C14.7718 16.1969 14.8297 16.1103 14.8692 16.0149C14.9087 15.9195 14.9291 15.8173 14.9291 15.7141C14.9291 15.6108 14.9087 15.5086 14.8692 15.4132C14.8297 15.3179 14.7718 15.2312 14.6988 15.1582L6.83924 7.30164Z" fill="#E0E0E0"/>
</svg>
