<svg width="24" height="24" viewBox="0 0 24 24" fill="none" xmlns="http://www.w3.org/2000/svg">
<path d="M3.7643 20.2367C6.5275 22.868 9.8176 21.8152 11.1343 20.7493C11.8141 20.1982 12.121 19.8417 12.3839 19.5777C13.3046 18.723 13.2463 17.8671 12.6479 17.1829C12.407 16.909 10.8703 15.4327 9.3963 13.919C8.6329 13.1556 8.1071 12.6166 7.6561 12.181C7.0544 11.5803 6.5275 10.8917 5.7377 10.9115C5.0139 10.9115 4.4881 11.5495 3.8292 12.2085C3.0724 12.9653 2.5136 13.919 2.3167 14.7749C1.7238 17.2753 2.6456 19.0519 3.7643 20.2367ZM3.7643 20.2367L1 23M20.2357 3.76664C17.4714 1.13311 14.1923 2.20456 12.8767 3.27161C12.1947 3.82384 11.8889 4.18026 11.6249 4.44427C10.7042 5.30011 10.7625 6.15596 11.362 6.84019C11.4478 6.9392 11.703 7.19221 12.0605 7.54863M20.2357 3.76664C21.3544 4.9514 22.2883 6.74779 21.6954 9.25041C21.4974 10.1063 20.9386 11.06 20.1818 11.8179C19.524 12.4758 18.9971 13.1149 18.2733 13.1149C17.4835 13.1347 17.0743 12.5627 16.4704 11.962M20.2357 3.76664L23 1M12.0605 7.54863C12.6996 8.18116 13.6698 9.13491 14.6136 10.1052C15.377 10.8686 16.0194 11.5264 16.4704 11.9609L14.7522 13.6385M12.0605 7.54863L10.3632 9.25591" stroke="#E0E0E0" stroke-linecap="round"/>
</svg>
